<svg width="112" height="33" viewBox="0 0 112 33" fill="none" xmlns="http://www.w3.org/2000/svg">
<g filter="url(#filter0_i_332_142)">
<path d="M108.74 0.253906H3.22448C1.96856 0.253906 0.950439 1.27203 0.950439 2.52794V30.726C0.950439 31.9819 1.96856 33 3.22448 33H108.74C109.996 33 111.014 31.9819 111.014 30.726V2.52794C111.014 1.27203 109.996 0.253906 108.74 0.253906Z" fill="white"/>
</g>
<path d="M35.4949 27.5425H33.5762L37.0696 17.6194H39.2887L42.787 27.5425H40.8683L38.2179 19.6544H38.1404L35.4949 27.5425ZM35.5579 23.6518H40.7907V25.0956H35.5579V23.6518ZM44.0165 30.3334V20.1002H45.7413V21.3309H45.8432C45.9337 21.15 46.061 20.9578 46.2257 20.7543C46.3908 20.5476 46.6136 20.3716 46.8947 20.2262C47.1758 20.0776 47.5342 20.0033 47.9703 20.0033C48.5452 20.0033 49.0637 20.1503 49.5253 20.4442C49.9906 20.735 50.359 21.1662 50.63 21.7379C50.9047 22.3064 51.0421 23.0041 51.0421 23.8311C51.0421 24.6483 50.9079 25.3428 50.64 25.9145C50.3717 26.4863 50.007 26.9223 49.5449 27.2227C49.0828 27.5231 48.5598 27.6733 47.9749 27.6733C47.5487 27.6733 47.1949 27.6023 46.9138 27.4601C46.6327 27.318 46.4067 27.1468 46.2357 26.9465C46.0674 26.7431 45.9369 26.5509 45.8432 26.37H45.7704V30.3334H44.0165ZM45.7363 23.8214C45.7363 24.3026 45.8045 24.7242 45.9401 25.086C46.0788 25.4478 46.2775 25.7304 46.5359 25.9339C46.7978 26.1342 47.1144 26.2343 47.4855 26.2343C47.8735 26.2343 48.1977 26.1309 48.4597 25.9242C48.7212 25.7142 48.9181 25.4284 49.0505 25.0666C49.1865 24.7016 49.2542 24.2865 49.2542 23.8214C49.2542 23.3595 49.1878 22.9492 49.0555 22.5907C48.9231 22.2321 48.7262 21.9511 48.4642 21.7476C48.2027 21.5441 47.8766 21.4424 47.4855 21.4424C47.1107 21.4424 46.7928 21.5409 46.5313 21.7379C46.2693 21.935 46.071 22.2111 45.9351 22.5664C45.8027 22.9218 45.7363 23.34 45.7363 23.8214ZM52.5443 30.3334V20.1002H54.269V21.3309H54.3708C54.4613 21.15 54.5887 20.9578 54.7533 20.7543C54.9184 20.5476 55.1413 20.3716 55.4223 20.2262C55.7034 20.0776 56.0618 20.0033 56.498 20.0033C57.0728 20.0033 57.5913 20.1503 58.0529 20.4442C58.5182 20.735 58.8866 21.1662 59.1577 21.7379C59.4324 22.3064 59.5697 23.0041 59.5697 23.8311C59.5697 24.6483 59.4356 25.3428 59.1677 25.9145C58.8993 26.4863 58.5346 26.9223 58.0725 27.2227C57.6104 27.5231 57.0874 27.6733 56.5025 27.6733C56.0764 27.6733 55.7225 27.6023 55.4414 27.4601C55.1604 27.318 54.9343 27.1468 54.7633 26.9465C54.5951 26.7431 54.4645 26.5509 54.3708 26.37H54.2981V30.3334H52.5443ZM54.264 23.8214C54.264 24.3026 54.3322 24.7242 54.4677 25.086C54.6064 25.4478 54.8052 25.7304 55.0635 25.9339C55.3255 26.1342 55.642 26.2343 56.0131 26.2343C56.4011 26.2343 56.7254 26.1309 56.9873 25.9242C57.2489 25.7142 57.4458 25.4284 57.5781 25.0666C57.7141 24.7016 57.7819 24.2865 57.7819 23.8214C57.7819 23.3595 57.7155 22.9492 57.5831 22.5907C57.4508 22.2321 57.2539 21.9511 56.9919 21.7476C56.7304 21.5441 56.4043 21.4424 56.0131 21.4424C55.6384 21.4424 55.3205 21.5409 55.059 21.7379C54.797 21.935 54.5987 22.2111 54.4627 22.5664C54.3304 22.9218 54.264 23.34 54.264 23.8214ZM69.9266 20.3473C69.8811 19.9242 69.6906 19.5947 69.3549 19.3589C69.022 19.1231 68.589 19.0052 68.056 19.0052C67.6817 19.0052 67.3601 19.0617 67.0918 19.1748C66.8239 19.2878 66.6188 19.4413 66.4764 19.6351C66.3345 19.8289 66.2618 20.0502 66.2586 20.2989C66.2586 20.5056 66.3054 20.6849 66.3991 20.8367C66.496 20.9885 66.627 21.1177 66.7916 21.2243C66.9563 21.3277 67.1386 21.4149 67.3392 21.4859C67.5393 21.557 67.7413 21.6168 67.9446 21.6652L68.8751 21.8978C69.2499 21.985 69.6101 22.1029 69.9557 22.2515C70.3046 22.4001 70.6161 22.5874 70.8908 22.8136C71.1682 23.0396 71.3879 23.3126 71.5498 23.6324C71.7113 23.9522 71.7918 24.3269 71.7918 24.7565C71.7918 25.3379 71.6431 25.8499 71.3461 26.2924C71.0491 26.7317 70.6193 27.0757 70.0571 27.3245C69.4986 27.57 68.8219 27.6927 68.0269 27.6927C67.2551 27.6927 66.5847 27.5732 66.0162 27.3342C65.4508 27.0951 65.0083 26.7463 64.6886 26.2876C64.372 25.8289 64.201 25.2701 64.1751 24.6111H65.9439C65.9693 24.9567 66.0762 25.2442 66.2636 25.4736C66.451 25.703 66.6947 25.8741 66.9949 25.9872C67.2987 26.1002 67.638 26.1568 68.0128 26.1568C68.4035 26.1568 68.7459 26.0986 69.0397 25.9823C69.3367 25.8628 69.5696 25.6981 69.7374 25.4881C69.9052 25.2749 69.9912 25.0262 69.9944 24.7419C69.9912 24.4835 69.9152 24.2704 69.7665 24.1024C69.6178 23.9312 69.4095 23.7891 69.1416 23.676C68.8765 23.5597 68.5667 23.4563 68.2111 23.3659L67.0822 23.0752C66.265 22.8652 65.6191 22.547 65.1443 22.1207C64.6727 21.6911 64.4366 21.121 64.4366 20.4103C64.4366 19.8257 64.5949 19.3137 64.9114 18.8744C65.2312 18.435 65.666 18.0943 66.2149 17.852C66.7639 17.6065 67.3861 17.4838 68.0805 17.4838C68.7846 17.4838 69.4018 17.6065 69.9312 17.852C70.4642 18.0943 70.8826 18.4318 71.1864 18.8647C71.4898 19.2943 71.6467 19.7885 71.6562 20.3473H69.9266ZM77.0334 20.1002V21.4569H72.7551V20.1002H77.0334ZM73.8111 18.3172H75.5653V25.304C75.5653 25.5398 75.6008 25.7207 75.6717 25.8467C75.7459 25.9694 75.8427 26.0534 75.9624 26.0986C76.082 26.1438 76.2143 26.1664 76.3599 26.1664C76.4695 26.1664 76.5695 26.1584 76.66 26.1423C76.7537 26.1261 76.8247 26.1116 76.8733 26.0986L77.169 27.4698C77.0753 27.5021 76.9411 27.5376 76.7669 27.5764C76.5954 27.6152 76.3858 27.6378 76.137 27.6443C75.6977 27.6572 75.302 27.5909 74.95 27.4456C74.5975 27.297 74.3182 27.0677 74.1117 26.7576C73.908 26.4475 73.8079 26.0599 73.8111 25.5947V18.3172ZM81.6666 27.6879C80.9398 27.6879 80.3099 27.528 79.7768 27.2082C79.2438 26.8884 78.8304 26.441 78.5366 25.866C78.2459 25.2911 78.1004 24.6192 78.1004 23.8504C78.1004 23.0817 78.2459 22.4081 78.5366 21.83C78.8304 21.2518 79.2438 20.8028 79.7768 20.483C80.3099 20.1632 80.9398 20.0033 81.6666 20.0033C82.3933 20.0033 83.0232 20.1632 83.5563 20.483C84.0893 20.8028 84.5009 21.2518 84.7915 21.83C85.0858 22.4081 85.2327 23.0817 85.2327 23.8504C85.2327 24.6192 85.0858 25.2911 84.7915 25.866C84.5009 26.441 84.0893 26.8884 83.5563 27.2082C83.0232 27.528 82.3933 27.6879 81.6666 27.6879ZM81.6761 26.2827C82.0704 26.2827 82.3997 26.1745 82.6644 25.9581C82.9296 25.7385 83.1265 25.4445 83.2556 25.0763C83.388 24.7081 83.4544 24.2978 83.4544 23.8456C83.4544 23.3901 83.388 22.9783 83.2556 22.61C83.1265 22.2386 82.9296 21.943 82.6644 21.7234C82.3997 21.5037 82.0704 21.3939 81.6761 21.3939C81.2722 21.3939 80.9366 21.5037 80.6682 21.7234C80.4036 21.943 80.2048 22.2386 80.0725 22.61C79.9433 22.9783 79.8787 23.3901 79.8787 23.8456C79.8787 24.2978 79.9433 24.7081 80.0725 25.0763C80.2048 25.4445 80.4036 25.7385 80.6682 25.9581C80.9366 26.1745 81.2722 26.2827 81.6761 26.2827ZM86.7213 27.5425V20.1002H88.4218V21.3406H88.4996C88.6351 20.911 88.8675 20.5799 89.1973 20.3473C89.5297 20.1115 89.9095 19.9936 90.3356 19.9936C90.433 19.9936 90.5408 19.9984 90.6604 20.0081C90.7832 20.0146 90.885 20.0259 90.9655 20.0421V21.6555C90.8914 21.6297 90.7736 21.6071 90.6122 21.5877C90.4539 21.5651 90.3002 21.5538 90.1519 21.5538C89.8317 21.5538 89.5443 21.6232 89.2891 21.7621C89.0372 21.8978 88.8389 22.0868 88.6933 22.329C88.5478 22.5713 88.4755 22.8507 88.4755 23.1673V27.5425H86.7213ZM95.1193 27.6879C94.373 27.6879 93.7285 27.5328 93.1859 27.2227C92.6465 26.9094 92.2317 26.4668 91.9407 25.8951C91.65 25.3201 91.5049 24.6434 91.5049 23.865C91.5049 23.0994 91.65 22.4276 91.9407 21.8493C92.2349 21.2679 92.6451 20.8157 93.1714 20.4927C93.698 20.1664 94.3166 20.0033 95.0274 20.0033C95.4859 20.0033 95.9189 20.0776 96.3259 20.2262C96.7361 20.3716 97.0977 20.5976 97.4111 20.9045C97.7276 21.2114 97.9764 21.6022 98.1574 22.0771C98.338 22.5487 98.4285 23.1107 98.4285 23.7632V24.3011H92.3286V23.1188H96.7475C96.7439 22.7829 96.6716 22.4841 96.5292 22.2224C96.3873 21.9576 96.1886 21.7492 95.9334 21.5974C95.6814 21.4456 95.3876 21.3697 95.0515 21.3697C94.6931 21.3697 94.378 21.4569 94.1064 21.6313C93.8354 21.8025 93.6239 22.0286 93.472 22.3096C93.3233 22.5874 93.2473 22.8927 93.2441 23.2254V24.2574C93.2441 24.6903 93.3233 25.0618 93.4815 25.3719C93.6398 25.6787 93.8613 25.9145 94.1456 26.0793C94.4298 26.2408 94.7623 26.3215 95.1434 26.3215C95.3986 26.3215 95.6296 26.286 95.8365 26.2149C96.043 26.1406 96.2222 26.0324 96.3741 25.8903C96.526 25.7482 96.6406 25.5721 96.7184 25.3622L98.3562 25.5463C98.2525 25.9791 98.0555 26.3571 97.7649 26.6801C97.4775 26.9998 97.1091 27.2486 96.6602 27.4262C96.2113 27.6006 95.6974 27.6879 95.1193 27.6879Z" fill="#0D1117"/>
<path d="M37.2124 12.0789H35.6062V7.1174H37.2633C37.7494 7.1174 38.1669 7.21673 38.5158 7.41539C38.8646 7.61241 39.1319 7.89589 39.3177 8.26574C39.505 8.63395 39.5987 9.07571 39.5987 9.59091C39.5987 10.1077 39.5042 10.5519 39.3152 10.9234C39.1279 11.2948 38.8566 11.5807 38.5012 11.7809C38.1459 11.9796 37.7163 12.0789 37.2124 12.0789ZM36.3548 11.4248H37.1712C37.5491 11.4248 37.8633 11.3537 38.1136 11.2116C38.364 11.0679 38.5513 10.8604 38.6757 10.589C38.8 10.3161 38.8622 9.98337 38.8622 9.59091C38.8622 9.20169 38.8 8.87136 38.6757 8.60007C38.5529 8.32873 38.3696 8.12279 38.1257 7.98226C37.8819 7.84177 37.579 7.7715 37.2173 7.7715H36.3548V11.4248ZM42.0389 12.154C41.69 12.154 41.3856 12.0741 41.1256 11.9142C40.8655 11.7543 40.6636 11.5306 40.5199 11.2431C40.3761 10.9557 40.3043 10.6197 40.3043 10.2353C40.3043 9.84933 40.3761 9.51178 40.5199 9.22266C40.6636 8.93358 40.8655 8.70909 41.1256 8.54918C41.3856 8.38927 41.69 8.30931 42.0389 8.30931C42.3877 8.30931 42.6922 8.38927 42.9522 8.54918C43.2122 8.70909 43.4141 8.93358 43.5579 9.22266C43.7016 9.51178 43.7735 9.84933 43.7735 10.2353C43.7735 10.6197 43.7016 10.9557 43.5579 11.2431C43.4141 11.5306 43.2122 11.7543 42.9522 11.9142C42.6922 12.0741 42.3877 12.154 42.0389 12.154ZM42.0413 11.5459C42.2674 11.5459 42.4548 11.4862 42.6034 11.3667C42.752 11.2472 42.8617 11.0881 42.9328 10.8894C43.0055 10.6908 43.0418 10.4719 43.0418 10.2329C43.0418 9.99546 43.0055 9.77743 42.9328 9.57877C42.8617 9.37852 42.752 9.21783 42.6034 9.09667C42.4548 8.97556 42.2674 8.91498 42.0413 8.91498C41.8136 8.91498 41.6246 8.97556 41.4744 9.09667C41.3258 9.21783 41.2152 9.37852 41.1425 9.57877C41.0714 9.77743 41.0359 9.99546 41.0359 10.2329C41.0359 10.4719 41.0714 10.6908 41.1425 10.8894C41.2152 11.0881 41.3258 11.2472 41.4744 11.3667C41.6246 11.4862 41.8136 11.5459 42.0413 11.5459ZM45.2756 12.0789L44.1805 8.35779H44.9291L45.6581 11.0905H45.6945L46.4263 8.35779H47.1749L47.9017 11.0784H47.9381L48.6621 8.35779H49.4107L48.3183 12.0789H47.5792L46.8233 9.39225H46.7679L46.012 12.0789H45.2756ZM50.8229 9.86948V12.0789H50.0984V8.35779H50.7938V8.96346H50.8397C50.9253 8.76639 51.0594 8.60812 51.2418 8.4886C51.426 8.36907 51.6575 8.30931 51.9372 8.30931C52.1905 8.30931 52.4129 8.36261 52.6035 8.46922C52.7941 8.57419 52.9419 8.73087 53.0465 8.93922C53.1515 9.14757 53.2043 9.40517 53.2043 9.71203V12.0789H52.4798V9.79926C52.4798 9.52951 52.4097 9.31876 52.2692 9.16694C52.1287 9.01349 51.9354 8.93681 51.6898 8.93681C51.522 8.93681 51.3728 8.97315 51.2418 9.04583C51.1126 9.1185 51.0098 9.22507 50.9343 9.3656C50.8598 9.5045 50.8229 9.67246 50.8229 9.86948ZM54.8998 7.1174V12.0789H54.1758V7.1174H54.8998ZM57.4417 12.154C57.0929 12.154 56.7886 12.0741 56.5285 11.9142C56.2688 11.7543 56.0669 11.5306 55.9231 11.2431C55.7794 10.9557 55.7076 10.6197 55.7076 10.2353C55.7076 9.84933 55.7794 9.51178 55.9231 9.22266C56.0669 8.93358 56.2688 8.70909 56.5285 8.54918C56.7886 8.38927 57.0929 8.30931 57.4417 8.30931C57.7906 8.30931 58.0953 8.38927 58.3554 8.54918C58.6151 8.70909 58.8171 8.93358 58.9608 9.22266C59.1045 9.51178 59.1764 9.84933 59.1764 10.2353C59.1764 10.6197 59.1045 10.9557 58.9608 11.2431C58.8171 11.5306 58.6151 11.7543 58.3554 11.9142C58.0953 12.0741 57.7906 12.154 57.4417 12.154ZM57.4445 11.5459C57.6705 11.5459 57.8579 11.4862 58.0066 11.3667C58.1549 11.2472 58.2649 11.0881 58.3359 10.8894C58.4087 10.6908 58.445 10.4719 58.445 10.2329C58.445 9.99546 58.4087 9.77743 58.3359 9.57877C58.2649 9.37852 58.1549 9.21783 58.0066 9.09667C57.8579 8.97556 57.6705 8.91498 57.4445 8.91498C57.2166 8.91498 57.0279 8.97556 56.8773 9.09667C56.7291 9.21783 56.6181 9.37852 56.5458 9.57877C56.4744 9.77743 56.4389 9.99546 56.4389 10.2329C56.4389 10.4719 56.4744 10.6908 56.5458 10.8894C56.6181 11.0881 56.7291 11.2472 56.8773 11.3667C57.0279 11.4862 57.2166 11.5459 57.4445 11.5459ZM61.0679 12.1613C60.8323 12.1613 60.619 12.1177 60.4285 12.0305C60.2379 11.9417 60.0869 11.8132 59.9755 11.6453C59.8654 11.4773 59.8108 11.2714 59.8108 11.0275C59.8108 10.8176 59.8509 10.6447 59.9318 10.5091C60.0128 10.3734 60.1215 10.266 60.2588 10.1868C60.3962 10.1077 60.5494 10.0479 60.7191 10.0076C60.8887 9.96722 61.0615 9.93652 61.2376 9.91555C61.4604 9.88968 61.6414 9.86871 61.7801 9.85256C61.9193 9.83478 62.0203 9.80654 62.083 9.76774C62.1463 9.72899 62.1776 9.666 62.1776 9.57877V9.56185C62.1776 9.35027 62.1176 9.18632 61.9984 9.07002C61.8802 8.95377 61.7042 8.8956 61.47 8.8956C61.2262 8.8956 61.0343 8.94972 60.8937 9.05792C60.7545 9.16453 60.6586 9.28324 60.6054 9.41404L59.9245 9.25899C60.0055 9.03291 60.1233 8.8504 60.2784 8.7115C60.4348 8.57096 60.6149 8.46922 60.8187 8.40623C61.022 8.34165 61.2357 8.30931 61.4604 8.30931C61.6091 8.30931 61.7665 8.32709 61.933 8.36261C62.1008 8.39654 62.2577 8.45953 62.4028 8.55159C62.5497 8.64364 62.6702 8.77531 62.7639 8.9465C62.8576 9.11605 62.9044 9.33654 62.9044 9.60788V12.0789H62.1967V11.5702H62.1676C62.1212 11.6639 62.0507 11.7559 61.9571 11.8463C61.8634 11.9368 61.7433 12.0119 61.5959 12.0717C61.449 12.1314 61.273 12.1613 61.0679 12.1613ZM61.2253 11.5799C61.4258 11.5799 61.5969 11.5403 61.7392 11.4612C61.8829 11.382 61.9916 11.2787 62.0662 11.1511C62.1422 11.0219 62.1799 10.8838 62.1799 10.7368V10.2571C62.154 10.2829 62.104 10.3072 62.0298 10.3298C61.9571 10.3508 61.8738 10.3694 61.7801 10.3855C61.6865 10.4001 61.5955 10.4138 61.5063 10.4267C61.4177 10.438 61.3435 10.4477 61.2835 10.4558C61.143 10.4736 61.0147 10.5034 60.8983 10.5454C60.7837 10.5874 60.6918 10.648 60.6222 10.7271C60.5544 10.8047 60.5203 10.908 60.5203 11.0372C60.5203 11.2165 60.5867 11.3522 60.7191 11.4442C60.8514 11.5347 61.0202 11.5799 61.2253 11.5799ZM65.2621 12.1516C64.962 12.1516 64.6936 12.0749 64.458 11.9215C64.2238 11.7664 64.0396 11.5459 63.9055 11.2601C63.7731 10.9726 63.7067 10.6278 63.7067 10.2256C63.7067 9.82346 63.774 9.47944 63.9077 9.19359C64.0437 8.9077 64.2293 8.68889 64.4653 8.53708C64.7009 8.38526 64.9683 8.30931 65.2671 8.30931C65.4977 8.30931 65.6838 8.34811 65.8243 8.42561C65.9662 8.50151 66.0763 8.59034 66.1536 8.69212C66.2327 8.79386 66.2941 8.88351 66.3378 8.961H66.3814V7.1174H67.1059V12.0789H66.3983V11.4999H66.3378C66.2941 11.5791 66.2313 11.6695 66.149 11.7713C66.0681 11.873 65.9566 11.9618 65.8147 12.0377C65.6724 12.1136 65.4882 12.1516 65.2621 12.1516ZM65.4222 11.5339C65.6305 11.5339 65.8066 11.479 65.9503 11.3691C66.0954 11.2576 66.2054 11.1034 66.2796 10.9064C66.3555 10.7093 66.3937 10.48 66.3937 10.2184C66.3937 9.95994 66.3564 9.73381 66.2823 9.54002C66.2077 9.34623 66.099 9.19518 65.9548 9.08699C65.8111 8.97879 65.6337 8.92467 65.4222 8.92467C65.2039 8.92467 65.0225 8.9812 64.8769 9.09426C64.7314 9.20733 64.6218 9.36155 64.5476 9.55698C64.4749 9.75242 64.4385 9.97286 64.4385 10.2184C64.4385 10.4671 64.4758 10.6908 64.5499 10.8894C64.6241 11.0881 64.7341 11.2455 64.8792 11.3618C65.0266 11.4765 65.2071 11.5339 65.4222 11.5339ZM71.5126 12.154C71.1637 12.154 70.859 12.0741 70.5993 11.9142C70.3392 11.7543 70.1372 11.5306 69.9935 11.2431C69.8498 10.9557 69.7779 10.6197 69.7779 10.2353C69.7779 9.84933 69.8498 9.51178 69.9935 9.22266C70.1372 8.93358 70.3392 8.70909 70.5993 8.54918C70.859 8.38927 71.1637 8.30931 71.5126 8.30931C71.8614 8.30931 72.1657 8.38927 72.4258 8.54918C72.686 8.70909 72.8879 8.93358 73.0316 9.22266C73.1753 9.51178 73.2472 9.84933 73.2472 10.2353C73.2472 10.6197 73.1753 10.9557 73.0316 11.2431C72.8879 11.5306 72.686 11.7543 72.4258 11.9142C72.1657 12.0741 71.8614 12.154 71.5126 12.154ZM71.5148 11.5459C71.7409 11.5459 71.9283 11.4862 72.077 11.3667C72.2257 11.2472 72.3353 11.0881 72.4063 10.8894C72.479 10.6908 72.5154 10.4719 72.5154 10.2329C72.5154 9.99546 72.479 9.77743 72.4063 9.57877C72.3353 9.37852 72.2257 9.21783 72.077 9.09667C71.9283 8.97556 71.7409 8.91498 71.5148 8.91498C71.2874 8.91498 71.0982 8.97556 70.9482 9.09667C70.7994 9.21783 70.6889 9.37852 70.6161 9.57877C70.5452 9.77743 70.5097 9.99546 70.5097 10.2329C70.5097 10.4719 70.5452 10.6908 70.6161 10.8894C70.6889 11.0881 70.7994 11.2472 70.9482 11.3667C71.0982 11.4862 71.2874 11.5459 71.5148 11.5459ZM74.7799 9.86948V12.0789H74.0558V8.35779H74.7508V8.96346H74.7972C74.8827 8.76639 75.0169 8.60812 75.1992 8.4886C75.3834 8.36907 75.6149 8.30931 75.8946 8.30931C76.148 8.30931 76.3699 8.36261 76.5605 8.46922C76.751 8.57419 76.8988 8.73087 77.0039 8.93922C77.109 9.14757 77.1613 9.40517 77.1613 9.71203V12.0789H76.4372V9.79926C76.4372 9.52951 76.3667 9.31876 76.2262 9.16694C76.0857 9.01349 75.8928 8.93681 75.6472 8.93681C75.4794 8.93681 75.3298 8.97315 75.1992 9.04583C75.0701 9.1185 74.9673 9.22507 74.8913 9.3656C74.8172 9.5045 74.7799 9.67246 74.7799 9.86948ZM81.6752 8.35779V8.93922H79.6427V8.35779H81.6752ZM80.188 7.46628H80.9125V10.9864C80.9125 11.1268 80.9334 11.2326 80.9753 11.3037C81.0171 11.3732 81.0713 11.4208 81.1377 11.4466C81.2054 11.4709 81.2791 11.483 81.3582 11.483C81.416 11.483 81.4669 11.479 81.5106 11.4709C81.5543 11.4628 81.5884 11.4563 81.6125 11.4515L81.7435 12.0499C81.7012 12.066 81.6416 12.0822 81.5638 12.0983C81.4865 12.1161 81.3896 12.1258 81.2732 12.1274C81.0826 12.1306 80.9053 12.0967 80.7402 12.0256C80.5755 11.9546 80.4423 11.8448 80.3404 11.6962C80.239 11.5476 80.188 11.361 80.188 11.1365V7.46628ZM83.2812 9.86948V12.0789H82.5567V7.1174H83.2712V8.96346H83.3175C83.4044 8.76316 83.5377 8.60407 83.7173 8.48619C83.8965 8.3683 84.1307 8.30931 84.4195 8.30931C84.6747 8.30931 84.8975 8.36184 85.0881 8.46681C85.2805 8.57178 85.4292 8.72846 85.5343 8.93681C85.6407 9.14352 85.6939 9.40194 85.6939 9.71203V12.0789H84.9694V9.79926C84.9694 9.52628 84.8994 9.31471 84.7588 9.16453C84.6183 9.01272 84.4227 8.93681 84.1726 8.93681C84.0016 8.93681 83.8478 8.97315 83.7123 9.04583C83.5781 9.1185 83.4726 9.22507 83.3949 9.3656C83.3189 9.5045 83.2812 9.67246 83.2812 9.86948ZM88.2645 12.154C87.8979 12.154 87.5818 12.0757 87.3171 11.919C87.0538 11.7608 86.8505 11.5387 86.7068 11.2528C86.5644 10.9653 86.4935 10.6286 86.4935 10.2426C86.4935 9.86143 86.5644 9.52551 86.7068 9.23475C86.8505 8.94404 87.0506 8.71714 87.3076 8.554C87.5659 8.3909 87.8679 8.30931 88.2135 8.30931C88.4237 8.30931 88.627 8.34406 88.8239 8.41351C89.0208 8.48296 89.1978 8.59197 89.3547 8.74056C89.5111 8.88914 89.6348 9.08216 89.7253 9.31957C89.8158 9.55535 89.8609 9.84206 89.8609 10.1796V10.4364H86.9028V9.89372H89.1509C89.1509 9.70316 89.1122 9.53438 89.0349 9.38739C88.9572 9.2388 88.848 9.12173 88.7079 9.03614C88.5688 8.9505 88.4055 8.9077 88.2186 8.9077C88.0148 8.9077 87.837 8.95777 87.6855 9.05792C87.535 9.15643 87.419 9.28565 87.3367 9.44556C87.2557 9.60383 87.2152 9.77584 87.2152 9.96158V10.3855C87.2152 10.6342 87.2589 10.8458 87.3462 11.0202C87.4349 11.1947 87.5586 11.3279 87.7169 11.42C87.8752 11.5104 88.0603 11.5556 88.2718 11.5556C88.4091 11.5556 88.5342 11.5363 88.647 11.4975C88.7602 11.4571 88.858 11.3974 88.9403 11.3182C89.0227 11.2391 89.0859 11.1414 89.1291 11.0251L89.8149 11.1486C89.7599 11.3505 89.6612 11.5274 89.5193 11.6792C89.3788 11.8294 89.2018 11.9465 88.9885 12.0305C88.7771 12.1129 88.5356 12.154 88.2645 12.154Z" fill="#0D1117"/>
<path d="M23.934 2.5412C23.878 2.47855 21.8584 2.56593 20.1009 4.47345C18.3434 6.37931 18.6137 8.56548 18.6533 8.62151C18.6929 8.67759 21.1594 8.76495 22.7338 6.5475C24.3083 4.33001 23.9901 2.6055 23.934 2.5412ZM29.3978 21.8851C29.3186 21.7268 25.5646 19.8507 25.9141 16.2434C26.2637 12.6344 28.6756 11.6452 28.7136 11.5381C28.7515 11.4309 27.7293 10.2356 26.6461 9.6305C25.8508 9.20393 24.9706 8.95952 24.0693 8.915C23.8912 8.91004 23.2729 8.75836 22.0018 9.10624C21.1643 9.33542 19.2765 10.0773 18.7572 10.107C18.2362 10.1367 16.6865 9.24637 15.0196 9.0106C13.953 8.80452 12.822 9.22658 12.0125 9.55136C11.2046 9.8745 9.66805 10.7945 8.59311 13.2395C7.51818 15.6828 8.08036 19.5539 8.48264 20.7574C8.88492 21.9593 9.5131 23.9295 10.5814 25.3671C11.5311 26.9894 12.7907 28.1155 13.3166 28.498C13.8425 28.8804 15.3263 29.1344 16.3551 28.6084C17.1827 28.1006 18.6764 27.8088 19.2666 27.8303C19.8552 27.8517 21.0159 28.0841 22.2046 28.7189C23.146 29.0437 24.0363 28.9085 24.9282 28.5458C25.8201 28.1814 27.1111 26.7998 28.6179 23.9987C29.19 22.6963 29.4505 21.9923 29.3978 21.8851Z" fill="#0D1117"/>
<path d="M23.934 2.5412C23.878 2.47855 21.8584 2.56593 20.1009 4.47345C18.3434 6.37931 18.6137 8.56548 18.6533 8.62151C18.6929 8.67759 21.1594 8.76495 22.7338 6.5475C24.3083 4.33001 23.9901 2.6055 23.934 2.5412ZM29.3978 21.8851C29.3186 21.7268 25.5646 19.8507 25.9141 16.2434C26.2637 12.6344 28.6756 11.6452 28.7136 11.5381C28.7515 11.4309 27.7293 10.2356 26.6461 9.6305C25.8508 9.20393 24.9706 8.95952 24.0693 8.915C23.8912 8.91004 23.2729 8.75836 22.0018 9.10624C21.1643 9.33542 19.2765 10.0773 18.7572 10.107C18.2362 10.1367 16.6865 9.24637 15.0196 9.0106C13.953 8.80452 12.822 9.22658 12.0125 9.55136C11.2046 9.8745 9.66805 10.7945 8.59311 13.2395C7.51818 15.6828 8.08036 19.5539 8.48264 20.7574C8.88492 21.9593 9.5131 23.9295 10.5814 25.3671C11.5311 26.9894 12.7907 28.1155 13.3166 28.498C13.8425 28.8804 15.3263 29.1344 16.3551 28.6084C17.1827 28.1006 18.6764 27.8088 19.2666 27.8303C19.8552 27.8517 21.0159 28.0841 22.2046 28.7189C23.146 29.0437 24.0363 28.9085 24.9282 28.5458C25.8201 28.1814 27.1111 26.7998 28.6179 23.9987C29.19 22.6963 29.4505 21.9923 29.3978 21.8851Z" fill="#0D1117"/>
<defs>
<filter id="filter0_i_332_142" x="0.950439" y="0.253906" width="110.063" height="36.7461" filterUnits="userSpaceOnUse" color-interpolation-filters="sRGB">
<feFlood flood-opacity="0" result="BackgroundImageFix"/>
<feBlend mode="normal" in="SourceGraphic" in2="BackgroundImageFix" result="shape"/>
<feColorMatrix in="SourceAlpha" type="matrix" values="0 0 0 0 0 0 0 0 0 0 0 0 0 0 0 0 0 0 127 0" result="hardAlpha"/>
<feOffset dy="4"/>
<feGaussianBlur stdDeviation="2"/>
<feComposite in2="hardAlpha" operator="arithmetic" k2="-1" k3="1"/>
<feColorMatrix type="matrix" values="0 0 0 0 0 0 0 0 0 0 0 0 0 0 0 0 0 0 0.25 0"/>
<feBlend mode="normal" in2="shape" result="effect1_innerShadow_332_142"/>
</filter>
</defs>
</svg>
