<svg width="111" height="33" viewBox="0 0 111 33" fill="none" xmlns="http://www.w3.org/2000/svg">
<g filter="url(#filter0_i_332_150)">
<path d="M107.917 0H2.27672C1.01932 0 0 1.01932 0 2.27672V30.5081C0 31.7655 1.01932 32.7848 2.27672 32.7848H107.917C109.174 32.7848 110.193 31.7655 110.193 30.5081V2.27672C110.193 1.01932 109.174 0 107.917 0Z" fill="white"/>
</g>
<path d="M17.8988 15.3505L7.29955 4.72285L20.7849 12.4644L17.8988 15.3505ZM4.53411 4.09817C3.90942 4.42474 3.49219 5.02024 3.49219 5.79323V26.9863C3.49219 27.7593 3.91019 28.3548 4.53411 28.6814L16.8576 16.3871L4.53411 4.09817ZM24.9534 14.9325L22.125 13.2951L18.9699 16.3925L22.125 19.4899L25.011 17.8524C25.8755 17.1662 25.8755 15.6195 24.9534 14.9325ZM7.30032 28.0628L20.7857 20.3213L17.8996 17.4352L7.30032 28.0628Z" fill="#0D1117"/>
<path d="M34.5008 20.1032C34.42 19.8413 34.3084 19.6068 34.1661 19.3998C34.027 19.1896 33.8589 19.0101 33.6616 18.8614C33.4676 18.7126 33.2444 18.601 32.9922 18.5267C32.7399 18.449 32.465 18.4102 32.1675 18.4102C31.6339 18.4102 31.1585 18.5445 30.7413 18.8128C30.3241 19.0813 29.9959 19.4758 29.7565 19.9965C29.5205 20.5139 29.4024 21.1446 29.4024 21.8884C29.4024 22.6386 29.5205 23.2741 29.7565 23.7948C29.9926 24.3155 30.3209 24.7116 30.7413 24.9833C31.1617 25.2517 31.65 25.3859 32.2063 25.3859C32.7108 25.3859 33.1474 25.2889 33.516 25.0949C33.888 24.9008 34.1742 24.6259 34.3747 24.2702C34.5752 23.9112 34.6754 23.4908 34.6754 23.0089L35.0829 23.072H32.3858V21.6652H36.417V22.8586C36.417 23.7091 36.2358 24.4448 35.8736 25.0658C35.5114 25.6867 35.0134 26.1653 34.3795 26.5016C33.7457 26.8347 33.018 27.0013 32.1966 27.0013C31.2814 27.0013 30.4777 26.7959 29.7857 26.3852C29.0968 25.9713 28.5583 25.3843 28.1703 24.6243C27.7854 23.8611 27.593 22.9556 27.593 21.9078C27.593 21.1058 27.7062 20.3894 27.9326 19.7588C28.1622 19.1282 28.4824 18.593 28.8931 18.1531C29.3038 17.7101 29.7857 17.3737 30.3387 17.1441C30.8917 16.9113 31.4932 16.7948 32.1432 16.7948C32.693 16.7948 33.2056 16.8757 33.681 17.0374C34.1564 17.1959 34.5784 17.4223 34.9471 17.7165C35.319 18.0108 35.6246 18.3601 35.8639 18.7643C36.1032 19.1686 36.2601 19.6149 36.3345 20.1032H34.5008ZM41.3298 27.011C40.6021 27.011 39.9715 26.8509 39.4379 26.5307C38.9043 26.2106 38.4903 25.7627 38.196 25.187C37.905 24.6114 37.7594 23.9387 37.7594 23.169C37.7594 22.3994 37.905 21.725 38.196 21.1462C38.4903 20.5673 38.9043 20.1178 39.4379 19.7976C39.9715 19.4775 40.6021 19.3174 41.3298 19.3174C42.0574 19.3174 42.688 19.4775 43.2216 19.7976C43.7555 20.1178 44.1676 20.5673 44.4585 21.1462C44.7531 21.725 44.9002 22.3994 44.9002 23.169C44.9002 23.9387 44.7531 24.6114 44.4585 25.187C44.1676 25.7627 43.7555 26.2106 43.2216 26.5307C42.688 26.8509 42.0574 27.011 41.3298 27.011ZM41.3395 25.6042C41.734 25.6042 42.0639 25.4959 42.3291 25.2792C42.5942 25.0593 42.7915 24.765 42.9209 24.3963C43.0535 24.0277 43.1198 23.6169 43.1198 23.1642C43.1198 22.7082 43.0535 22.2959 42.9209 21.9272C42.7915 21.5553 42.5942 21.2594 42.3291 21.0395C42.0639 20.8195 41.734 20.7096 41.3395 20.7096C40.9352 20.7096 40.5989 20.8195 40.3305 21.0395C40.0653 21.2594 39.8664 21.5553 39.7338 21.9272C39.6044 22.2959 39.5398 22.7082 39.5398 23.1642C39.5398 23.6169 39.6044 24.0277 39.7338 24.3963C39.8664 24.765 40.0653 25.0593 40.3305 25.2792C40.5989 25.4959 40.9352 25.6042 41.3395 25.6042ZM49.6408 27.011C48.9132 27.011 48.2825 26.8509 47.7488 26.5307C47.2152 26.2106 46.8013 25.7627 46.5071 25.187C46.2157 24.6114 46.0704 23.9387 46.0704 23.169C46.0704 22.3994 46.2157 21.725 46.5071 21.1462C46.8013 20.5673 47.2152 20.1178 47.7488 19.7976C48.2825 19.4775 48.9132 19.3174 49.6408 19.3174C50.3684 19.3174 50.9991 19.4775 51.5327 19.7976C52.066 20.1178 52.4785 20.5673 52.7695 21.1462C53.0641 21.725 53.2111 22.3994 53.2111 23.169C53.2111 23.9387 53.0641 24.6114 52.7695 25.187C52.4785 25.7627 52.066 26.2106 51.5327 26.5307C50.9991 26.8509 50.3684 27.011 49.6408 27.011ZM49.6504 25.6042C50.0451 25.6042 50.3748 25.4959 50.6398 25.2792C50.9053 25.0593 51.1024 24.765 51.2318 24.3963C51.3643 24.0277 51.4307 23.6169 51.4307 23.1642C51.4307 22.7082 51.3643 22.2959 51.2318 21.9272C51.1024 21.5553 50.9053 21.2594 50.6398 21.0395C50.3748 20.8195 50.0451 20.7096 49.6504 20.7096C49.246 20.7096 48.91 20.8195 48.6413 21.0395C48.3763 21.2594 48.1773 21.5553 48.0448 21.9272C47.9155 22.2959 47.8508 22.7082 47.8508 23.1642C47.8508 23.6169 47.9155 24.0277 48.0448 24.3963C48.1773 24.765 48.3763 25.0593 48.6413 25.2792C48.91 25.4959 49.246 25.6042 49.6504 25.6042ZM57.9417 29.8149C57.3111 29.8149 56.7697 29.7292 56.3171 29.5577C55.864 29.3896 55.5002 29.1632 55.2251 28.8786C54.9506 28.594 54.7598 28.2787 54.6528 27.9327L56.2342 27.5494C56.3057 27.695 56.409 27.8389 56.5447 27.9812C56.6809 28.1267 56.8635 28.2464 57.093 28.3401C57.3256 28.4372 57.6184 28.4857 57.9709 28.4857C58.469 28.4857 58.8816 28.3644 59.208 28.1219C59.5345 27.8826 59.698 27.488 59.698 26.9382V25.5266H59.6106C59.5199 25.7077 59.3874 25.8937 59.213 26.0845C59.0414 26.2752 58.8133 26.4353 58.5287 26.5647C58.2477 26.6941 57.8935 26.7587 57.4663 26.7587C56.894 26.7587 56.3749 26.6245 55.9095 26.3561C55.4469 26.0845 55.0781 25.6802 54.8035 25.1434C54.5316 24.6033 54.396 23.9274 54.396 23.1157C54.396 22.2975 54.5316 21.607 54.8035 21.0443C55.0781 20.4784 55.4487 20.0499 55.9141 19.7588C56.3799 19.4645 56.899 19.3174 57.4713 19.3174C57.908 19.3174 58.2668 19.3917 58.5482 19.5405C58.8328 19.6861 59.0591 19.8623 59.2276 20.0693C59.3956 20.273 59.5231 20.4654 59.6106 20.6465H59.7076V19.4144H61.4397V26.9867C61.4397 27.6238 61.2876 28.151 60.9834 28.5681C60.6792 28.9853 60.264 29.2974 59.7367 29.5044C59.2094 29.7114 58.6115 29.8149 57.9417 29.8149ZM57.9563 25.3811C58.3283 25.3811 58.6452 25.2905 58.907 25.1094C59.1693 24.9283 59.3683 24.668 59.504 24.3284C59.6397 23.9888 59.7076 23.5813 59.7076 23.106C59.7076 22.637 59.6397 22.2263 59.504 21.8738C59.3715 21.5213 59.1739 21.2481 58.9121 21.054C58.6534 20.8567 58.3347 20.7581 57.9563 20.7581C57.5651 20.7581 57.2387 20.86 56.9764 21.0637C56.7146 21.2675 56.5174 21.5472 56.3849 21.9029C56.2519 22.2554 56.1859 22.6564 56.1859 23.106C56.1859 23.5619 56.2519 23.9614 56.3849 24.3042C56.5206 24.6437 56.7196 24.9089 56.9814 25.0997C57.2464 25.2873 57.5715 25.3811 57.9563 25.3811ZM64.995 16.9307V26.8655H63.2392V16.9307H64.995ZM70.0999 27.011C69.3527 27.011 68.7074 26.8558 68.1642 26.5453C67.6242 26.2316 67.2084 25.7885 66.9175 25.2161C66.6265 24.6405 66.4808 23.963 66.4808 23.1836C66.4808 22.4171 66.6265 21.7445 66.9175 21.1656C67.2116 20.5834 67.6223 20.1307 68.1496 19.8073C68.6769 19.4807 69.2962 19.3174 70.0074 19.3174C70.4669 19.3174 70.8999 19.3917 71.3074 19.5405C71.7182 19.6861 72.0806 19.9124 72.3944 20.2196C72.7113 20.5268 72.9599 20.9182 73.1411 21.3936C73.3223 21.8657 73.413 22.4285 73.413 23.0817V23.6202H67.3054V22.4365H71.7295C71.7264 22.1002 71.6535 21.801 71.5114 21.5391C71.3689 21.2739 71.1699 21.0653 70.9145 20.9133C70.6622 20.7613 70.3681 20.6853 70.0316 20.6853C69.6728 20.6853 69.3577 20.7726 69.0858 20.9473C68.814 21.1187 68.6022 21.3451 68.4502 21.6264C68.3017 21.9045 68.2257 22.2102 68.2225 22.5432V23.5765C68.2225 24.0099 68.3017 24.3818 68.4602 24.6922C68.6186 24.9995 68.8399 25.2356 69.1245 25.4005C69.4091 25.5622 69.7424 25.643 70.124 25.643C70.3795 25.643 70.6108 25.6074 70.8175 25.5363C71.0247 25.4619 71.2041 25.3536 71.3562 25.2113C71.5082 25.069 71.623 24.8927 71.7004 24.6825L73.3401 24.8669C73.2367 25.3002 73.0391 25.6786 72.7482 26.002C72.4604 26.3221 72.092 26.5712 71.6421 26.749C71.1927 26.9237 70.6786 27.011 70.0999 27.011ZM78.3644 26.8655V16.9307H82.09C82.8532 16.9307 83.4934 17.073 84.0111 17.3576C84.5316 17.6421 84.9245 18.0335 85.19 18.5315C85.4582 19.0263 85.5925 19.589 85.5925 20.2196C85.5925 20.8567 85.4582 21.4227 85.19 21.9175C84.9213 22.4123 84.5252 22.802 84.0015 23.0866C83.4774 23.3679 82.8322 23.5086 82.0659 23.5086H79.5965V22.0291H81.8232C82.2694 22.0291 82.635 21.9514 82.9196 21.7962C83.2042 21.641 83.4141 21.4275 83.5503 21.1559C83.6892 20.8842 83.7588 20.5722 83.7588 20.2196C83.7588 19.8671 83.6892 19.5567 83.5503 19.2883C83.4141 19.0198 83.2024 18.8112 82.9146 18.6625C82.63 18.5105 82.263 18.4345 81.8136 18.4345H80.1643V26.8655H78.3644ZM88.8341 16.9307V26.8655H87.0778V16.9307H88.8341ZM92.7842 27.0159C92.312 27.0159 91.8867 26.9318 91.5083 26.7636C91.1331 26.5922 90.8353 26.34 90.6154 26.0068C90.3991 25.6737 90.2907 25.263 90.2907 24.7747C90.2907 24.3543 90.3682 24.0066 90.5234 23.7317C90.6787 23.4568 90.8904 23.2369 91.1591 23.072C91.4273 22.9071 91.7296 22.7826 92.0661 22.6985C92.4058 22.6112 92.7564 22.5481 93.1189 22.5093C93.5551 22.464 93.9094 22.4236 94.1812 22.388C94.4526 22.3492 94.6502 22.291 94.7727 22.2134C94.8988 22.1325 94.9621 22.008 94.9621 21.8399V21.8107C94.9621 21.4453 94.8538 21.1623 94.637 20.9618C94.4203 20.7613 94.1084 20.6611 93.7008 20.6611C93.2705 20.6611 92.9295 20.7549 92.6772 20.9424C92.4281 21.13 92.2601 21.3515 92.1727 21.607L90.533 21.3741C90.6623 20.9214 90.8759 20.5431 91.1737 20.239C91.471 19.9318 91.8348 19.7022 92.2651 19.5502C92.695 19.395 93.1704 19.3174 93.6913 19.3174C94.0501 19.3174 94.4075 19.3594 94.7632 19.4435C95.1188 19.5275 95.4439 19.6666 95.738 19.8607C96.0326 20.0515 96.2685 20.3118 96.4466 20.6417C96.6278 20.9715 96.7179 21.3838 96.7179 21.8787V26.8655H95.03V25.8419H94.9717C94.8651 26.0489 94.7149 26.2429 94.5204 26.424C94.3297 26.6019 94.0888 26.7458 93.7978 26.8558C93.51 26.9625 93.1722 27.0159 92.7842 27.0159ZM93.24 25.7255C93.5925 25.7255 93.898 25.6559 94.1566 25.5169C94.4157 25.3746 94.6142 25.187 94.7536 24.9542C94.8956 24.7213 94.9671 24.4675 94.9671 24.1926V23.3146C94.912 23.3598 94.8182 23.4019 94.6857 23.4407C94.5564 23.4795 94.4107 23.5134 94.2491 23.5425C94.0874 23.5716 93.9271 23.5975 93.7687 23.6202C93.6102 23.6428 93.4727 23.6622 93.3566 23.6784C93.0943 23.7139 92.8598 23.7722 92.6531 23.853C92.4459 23.9339 92.2829 24.0471 92.1631 24.1926C92.0434 24.3349 91.9837 24.5192 91.9837 24.7456C91.9837 25.069 92.1017 25.3131 92.3375 25.4781C92.5738 25.643 92.8744 25.7255 93.24 25.7255ZM99.3084 29.6596C99.0693 29.6596 98.8476 29.6402 98.644 29.6014C98.4432 29.5658 98.2834 29.5238 98.1637 29.4753L98.5712 28.1073C98.8266 28.1817 99.0548 28.2173 99.2551 28.214C99.4559 28.2108 99.6321 28.1478 99.7838 28.0249C99.939 27.9052 100.07 27.7047 100.177 27.4233L100.327 27.0207L97.6254 19.4144H99.4883L101.205 25.0415H101.283L103.005 19.4144H104.873L101.889 27.7677C101.75 28.1623 101.566 28.5002 101.336 28.7816C101.107 29.0662 100.825 29.2828 100.492 29.4316C100.162 29.5836 99.7678 29.6596 99.3084 29.6596Z" fill="#0D1117"/>
<path d="M31.6834 8.89606C31.6365 8.7489 31.5735 8.61712 31.4942 8.50069C31.4167 8.38266 31.3237 8.2824 31.2153 8.19993C31.107 8.11588 30.9833 8.05199 30.8442 8.00832C30.7068 7.96466 30.5556 7.94285 30.3907 7.94285C30.1109 7.94285 29.8587 8.01479 29.6339 8.15872C29.4091 8.30261 29.2313 8.51362 29.1003 8.79174C28.971 9.06828 28.9062 9.40701 28.9062 9.80803C28.9062 10.2107 28.9718 10.5511 29.1027 10.8292C29.2337 11.1073 29.4132 11.3183 29.6412 11.4622C29.8692 11.6061 30.1287 11.6781 30.4198 11.6781C30.6898 11.6781 30.9251 11.6231 31.1256 11.5132C31.3277 11.4032 31.4838 11.248 31.5937 11.0475C31.7053 10.8453 31.7611 10.6077 31.7611 10.3344L31.9551 10.3707H30.5338V9.75225H32.4863V10.3174C32.4863 10.7346 32.3973 11.0968 32.2195 11.404C32.0432 11.7096 31.799 11.9457 31.487 12.1123C31.1765 12.2788 30.8208 12.3621 30.4198 12.3621C29.9702 12.3621 29.5757 12.2586 29.2361 12.0516C28.8982 11.8446 28.6346 11.5512 28.4454 11.1711C28.2562 10.7896 28.1616 10.3368 28.1616 9.8129C28.1616 9.41675 28.2166 9.06099 28.3266 8.74566C28.4365 8.43038 28.591 8.16273 28.7899 7.94285C28.9903 7.72132 29.2256 7.55234 29.4956 7.43591C29.7673 7.31789 30.064 7.25887 30.3858 7.25887C30.6542 7.25887 30.9041 7.29849 31.1353 7.37772C31.3681 7.45695 31.5751 7.56933 31.7562 7.71485C31.9389 7.86038 32.0901 8.03341 32.2098 8.2339C32.3294 8.4328 32.4103 8.6535 32.4523 8.89606H31.6834ZM33.4377 12.2942V7.32676H36.552V7.97194H34.1871V9.48546H36.3895V10.1282H34.1871V11.649H36.5811V12.2942H33.4377ZM37.3081 7.97194V7.32676H41.1526V7.97194H39.6026V12.2942H38.8556V7.97194H37.3081ZM44.5591 7.32676V12.2942H43.8096V7.32676H44.5591ZM45.4056 7.97194V7.32676H49.25V7.97194H47.7V12.2942H46.9533V7.97194H45.4056ZM56.2223 9.81049C56.2223 10.3408 56.1253 10.7968 55.9308 11.1784C55.7369 11.5584 55.4709 11.8511 55.1331 12.0565C54.7966 12.2602 54.4141 12.3621 53.9856 12.3621C53.5558 12.3621 53.1715 12.2602 52.8336 12.0565C52.4975 11.8511 52.2321 11.5576 52.0381 11.176C51.8441 10.7944 51.7471 10.3392 51.7471 9.81049C51.7471 9.2801 51.8441 8.82489 52.0381 8.44491C52.2321 8.06333 52.4975 7.77063 52.8336 7.56691C53.1715 7.36155 53.5558 7.25887 53.9856 7.25887C54.4141 7.25887 54.7966 7.36155 55.1331 7.56691C55.4709 7.77063 55.7369 8.06333 55.9308 8.44491C56.1253 8.82489 56.2223 9.2801 56.2223 9.81049ZM55.4801 9.81049C55.4801 9.40623 55.4145 9.06586 55.2833 8.78933C55.154 8.51121 54.976 8.30102 54.7497 8.15872C54.5252 8.01479 54.2702 7.94285 53.9856 7.94285C53.6997 7.94285 53.4442 8.01479 53.2193 8.15872C52.9948 8.30102 52.8167 8.51121 52.6856 8.78933C52.5563 9.06586 52.4916 9.40623 52.4916 9.81049C52.4916 10.2147 52.5563 10.5559 52.6856 10.834C52.8167 11.1105 52.9948 11.3207 53.2193 11.4647C53.4442 11.607 53.6997 11.6781 53.9856 11.6781C54.2702 11.6781 54.5252 11.607 54.7497 11.4647C54.976 11.3207 55.154 11.1105 55.2833 10.834C55.4145 10.5559 55.4801 10.2147 55.4801 9.81049ZM61.1659 7.32676V12.2942H60.477L57.9521 8.65109H57.9061V12.2942H57.1566V7.32676H57.8501L60.3777 10.9747H60.4237V7.32676H61.1659Z" fill="#0D1117"/>
<defs>
<filter id="filter0_i_332_150" x="0" y="0" width="110.193" height="36.7848" filterUnits="userSpaceOnUse" color-interpolation-filters="sRGB">
<feFlood flood-opacity="0" result="BackgroundImageFix"/>
<feBlend mode="normal" in="SourceGraphic" in2="BackgroundImageFix" result="shape"/>
<feColorMatrix in="SourceAlpha" type="matrix" values="0 0 0 0 0 0 0 0 0 0 0 0 0 0 0 0 0 0 127 0" result="hardAlpha"/>
<feOffset dy="4"/>
<feGaussianBlur stdDeviation="2"/>
<feComposite in2="hardAlpha" operator="arithmetic" k2="-1" k3="1"/>
<feColorMatrix type="matrix" values="0 0 0 0 0 0 0 0 0 0 0 0 0 0 0 0 0 0 0.25 0"/>
<feBlend mode="normal" in2="shape" result="effect1_innerShadow_332_150"/>
</filter>
</defs>
</svg>
