<svg width="560" height="448" viewBox="0 0 560 448" fill="none" xmlns="http://www.w3.org/2000/svg">
<g clip-path="url(#clip0_109_1673)">
<path d="M614.797 387.018H-53.4607V387.353H614.797V387.018Z" fill="#EBEBEB"/>
<path d="M547.838 408.536H503.572V408.87H547.838V408.536Z" fill="#EBEBEB"/>
<path d="M389.22 412.173H377.606V412.508H389.22V412.173Z" fill="#EBEBEB"/>
<path d="M502.236 396.126H476.588V396.46H502.236V396.126Z" fill="#EBEBEB"/>
<path d="M74.3769 398.372H16.6528V398.707H74.3769V398.372Z" fill="#EBEBEB"/>
<path d="M94.7455 398.372H86.2854V398.707H94.7455V398.372Z" fill="#EBEBEB"/>
<path d="M247.456 404.016H122.251V404.35H247.456V404.016Z" fill="#EBEBEB"/>
<path d="M263.294 327.374H5.22581C3.20412 327.371 1.26645 326.565 -0.161844 325.133C-1.59014 323.701 -2.39234 321.761 -2.39233 319.738V-43.2487C-2.37473 -45.26 -1.56477 -47.1831 -0.138376 -48.6004C1.28802 -50.0176 3.21565 -50.8145 5.22581 -50.8179H263.294C265.318 -50.8179 267.259 -50.0134 268.69 -48.5814C270.121 -47.1493 270.925 -45.2071 270.925 -43.1819V319.738C270.925 321.763 270.121 323.706 268.69 325.138C267.259 326.57 265.318 327.374 263.294 327.374ZM5.22581 -50.5505C3.29274 -50.5469 1.44005 -49.7761 0.0744209 -48.4071C-1.29121 -47.0382 -2.05821 -45.183 -2.05821 -43.2487V319.738C-2.05821 321.672 -1.29121 323.528 0.0744209 324.897C1.44005 326.266 3.29274 327.036 5.22581 327.04H263.294C265.228 327.036 267.082 326.266 268.45 324.897C269.817 323.529 270.587 321.674 270.591 319.738V-43.2487C270.587 -45.1842 269.817 -47.0394 268.45 -48.4079C267.082 -49.7765 265.228 -50.5469 263.294 -50.5505H5.22581Z" fill="#EBEBEB"/>
<path d="M552.395 327.374H294.314C292.291 327.371 290.352 326.565 288.922 325.134C287.491 323.703 286.686 321.762 286.683 319.738V-43.2487C286.704 -45.2612 287.517 -47.1843 288.945 -48.6012C290.374 -50.0181 292.303 -50.8145 294.314 -50.8179H552.395C554.403 -50.811 556.327 -50.0125 557.751 -48.5957C559.174 -47.1788 559.982 -45.2577 560 -43.2487V319.738C560 321.759 559.2 323.697 557.774 325.128C556.349 326.56 554.415 327.367 552.395 327.374ZM294.314 -50.5505C292.38 -50.5469 290.526 -49.7765 289.158 -48.4079C287.79 -47.0394 287.02 -45.1842 287.017 -43.2487V319.738C287.02 321.674 287.79 323.529 289.158 324.897C290.526 326.266 292.38 327.036 294.314 327.04H552.395C554.33 327.036 556.184 326.266 557.551 324.897C558.919 323.529 559.689 321.674 559.693 319.738V-43.2487C559.689 -45.1842 558.919 -47.0394 557.551 -48.4079C556.184 -49.7765 554.33 -50.5469 552.395 -50.5505H294.314Z" fill="#EBEBEB"/>
<path d="M217.17 78.1392L165.006 47.7822H124.817L71.7976 76.7083V273.494H217.17V78.1392Z" fill="#E0E0E0"/>
<path d="M70.3005 78.1392L71.7974 76.7083C91.1115 58.0869 116.908 47.7134 143.729 47.7822C170.55 47.7134 196.346 58.0869 215.66 76.7083L217.157 78.1392V273.494H70.3005V78.1392ZM207.427 82.325C190.044 66.3791 167.318 57.5331 143.735 57.5331C120.153 57.5331 97.4269 66.3791 80.0437 82.325V263.745H207.427V82.325Z" fill="#FAFAFA"/>
<path d="M147.391 264.922H140.08V199.607H78.1995V192.306H140.08V125.507H78.1995V118.192H140.08V56.2608H147.391V118.192H209.272V125.507H147.391V192.306H209.272V199.607H147.391V264.922Z" fill="#F0F0F0"/>
<path d="M65.4893 76.2269L66.8258 74.7291C87.2316 54.3548 114.882 42.9124 143.709 42.9124C172.536 42.9124 200.186 54.3548 220.592 74.7291L222.022 76.16V278.375H65.4893V76.2269ZM212.372 80.2388C193.924 62.5441 169.357 52.6652 143.802 52.6652C118.247 52.6652 93.6805 62.5441 75.2325 80.2388V268.626H212.305L212.372 80.2388Z" fill="#F0F0F0"/>
<path d="M491.036 78.1392L438.871 47.7822H398.682L345.663 76.7083V273.494H491.036V78.1392Z" fill="#E0E0E0"/>
<path d="M344.166 78.1392L345.663 76.7083C364.977 58.0869 390.773 47.7134 417.594 47.7822C444.42 47.7113 470.221 58.0848 489.539 76.7083L491.036 78.1392V273.494H344.166V78.1392ZM481.292 82.325C463.909 66.3791 441.183 57.5331 417.601 57.5331C394.018 57.5331 371.292 66.3791 353.909 82.325V263.745H481.292V82.325Z" fill="#FAFAFA"/>
<path d="M421.256 264.922H413.946V199.607H352.065V192.306H413.946V125.507H352.065V118.192H413.946V56.2608H421.256V118.192H483.137V125.507H421.256V192.306H483.137V199.607H421.256V264.922Z" fill="#F0F0F0"/>
<path d="M339.288 76.2268L340.718 74.7959C361.124 54.4216 388.774 42.9792 417.601 42.9792C446.428 42.9792 474.078 54.4216 494.484 74.7959L495.914 76.2268V278.375H339.288V76.2268ZM486.171 80.2388C467.723 62.5441 443.156 52.6652 417.601 52.6652C392.046 52.6652 367.479 62.5441 349.031 80.2388V268.626H486.171V80.2388Z" fill="#F0F0F0"/>
<path d="M302.902 28.8764C305.923 16.0669 297.995 3.23189 285.193 0.208576C272.391 -2.81474 259.563 5.11852 256.542 17.928C253.52 30.7375 261.449 43.5726 274.251 46.5959C287.053 49.6192 299.88 41.6859 302.902 28.8764Z" fill="#F0F0F0"/>
<path d="M299.741 26.6703C301.533 15.6254 294.037 5.21834 282.999 3.4255C271.961 1.63266 261.56 9.13295 259.768 20.1778C257.976 31.2227 265.472 41.6298 276.511 43.4226C287.549 45.2155 297.95 37.7152 299.741 26.6703Z" fill="#FAFAFA"/>
<path d="M278.784 25.0077C278.554 25.007 278.329 24.9472 278.129 24.8339L268.773 19.4846C268.619 19.3984 268.483 19.2824 268.374 19.1434C268.265 19.0043 268.184 18.845 268.137 18.6746C268.09 18.5042 268.077 18.3262 268.099 18.1507C268.121 17.9753 268.178 17.806 268.265 17.6525C268.442 17.3466 268.732 17.1229 269.072 17.0302C269.413 16.9376 269.776 16.9834 270.083 17.1577L277.474 21.3301V9.46817C277.474 9.1135 277.615 8.77334 277.865 8.52255C278.116 8.27175 278.456 8.13086 278.81 8.13086C279.165 8.13086 279.505 8.27175 279.756 8.52255C280.006 8.77334 280.147 9.1135 280.147 9.46817V23.6704C280.147 24.0251 280.006 24.3653 279.756 24.6161C279.505 24.8669 279.165 25.0077 278.81 25.0077H278.784Z" fill="#E0E0E0"/>
<path d="M280.668 447.412C423.786 447.412 539.806 440.634 539.806 432.273C539.806 423.913 423.786 417.135 280.668 417.135C137.551 417.135 21.5315 423.913 21.5315 432.273C21.5315 440.634 137.551 447.412 280.668 447.412Z" fill="#F5F5F5"/>
<path d="M510.108 307.274C510.388 309.24 505.056 310.537 500.752 311.286C501.113 314.857 503.425 318.468 506.766 321.824C510.883 319.511 516.777 316.475 517.859 317.184C518.942 317.893 513.008 321.905 509.239 324.191C511.932 326.545 514.786 328.707 517.779 330.664C519.624 328.939 521.789 327.428 523.125 328.244C524.462 329.059 524.101 331.774 523.446 334.154C527.923 336.829 531.291 338.367 531.291 338.367C532.589 334.195 533.589 329.936 534.285 325.622C534.058 325.168 533.831 324.726 533.63 324.285C532.895 322.613 533.63 321.905 534.793 321.61C535.14 318.559 535.167 315.48 534.873 312.423C529.794 311.367 523.62 309.387 525.932 306.352C527.335 304.506 529.941 304.306 532.534 304.76C532.178 304.15 531.762 303.576 531.291 303.049C522.043 292.858 515.601 303.049 515.601 303.049C510.255 298.569 502.69 299.786 501.059 306.78C503.986 305.991 509.76 304.907 510.108 307.274Z" fill="#5A8BB7"/>
<path opacity="0.3" d="M510.108 307.274C510.388 309.24 505.056 310.537 500.752 311.286C501.113 314.857 503.425 318.468 506.766 321.824C510.883 319.511 516.777 316.475 517.859 317.184C518.942 317.893 513.008 321.905 509.239 324.191C511.932 326.545 514.786 328.707 517.779 330.664C519.624 328.939 521.789 327.428 523.125 328.244C524.462 329.059 524.101 331.774 523.446 334.154C527.923 336.829 531.291 338.367 531.291 338.367C532.589 334.195 533.589 329.936 534.285 325.622C534.058 325.168 533.831 324.726 533.63 324.285C532.895 322.613 533.63 321.905 534.793 321.61C535.14 318.559 535.167 315.48 534.873 312.423C529.794 311.367 523.62 309.387 525.932 306.352C527.335 304.506 529.941 304.306 532.534 304.76C532.178 304.15 531.762 303.576 531.291 303.049C522.043 292.858 515.601 303.049 515.601 303.049C510.255 298.569 502.69 299.786 501.059 306.78C503.986 305.991 509.76 304.907 510.108 307.274Z" fill="white"/>
<path d="M521.642 382.151L520.305 382.03C520.305 381.348 525.772 313.132 510.482 306.699C509.754 306.355 508.954 306.186 508.149 306.207C507.343 306.228 506.554 306.438 505.844 306.82C500.311 309.695 497.665 321.637 497.638 321.758L496.302 321.477C496.408 320.955 499.108 308.799 505.189 305.63C506.075 305.162 507.056 304.904 508.058 304.876C509.059 304.849 510.053 305.051 510.963 305.469C527.175 312.263 521.869 379.289 521.642 382.151Z" fill="#5A8BB7"/>
<path d="M523.566 380.666C523.299 377.59 517.044 305.416 528.725 297.753C531.532 295.921 534.071 295.533 536.143 296.603C541.663 299.384 542.384 311.193 542.411 311.688L541.075 311.768C541.075 311.648 540.38 300.227 535.542 297.793C533.884 296.964 531.826 297.311 529.46 298.876C518.447 306.098 524.836 379.81 524.903 380.546L523.566 380.666Z" fill="#5A8BB7"/>
<path d="M525.317 386.484C525.237 384.143 523.313 328.885 533.951 324.058C534.94 323.592 536.019 323.35 537.112 323.35C538.205 323.35 539.284 323.592 540.273 324.058C547.57 327.267 552.074 340.868 552.302 341.443L551.032 341.857C551.032 341.724 546.528 328.23 539.765 325.261C538.948 324.875 538.056 324.675 537.152 324.675C536.249 324.675 535.356 324.875 534.539 325.261C526.387 328.966 526.119 370.663 526.694 386.43L525.317 386.484Z" fill="#5A8BB7"/>
<path d="M522.577 383.969L521.241 383.822C523.112 367.373 526.694 323.563 520.84 318.294C520.555 317.953 520.177 317.702 519.752 317.572C519.328 317.441 518.875 317.437 518.447 317.558C514.518 319.056 512.139 333.312 511.538 338.675L510.201 338.527C510.428 336.468 512.567 318.374 517.953 316.301C518.607 316.084 519.311 316.062 519.978 316.238C520.645 316.413 521.246 316.779 521.709 317.291C529.34 324.098 522.898 381.535 522.577 383.969Z" fill="#5A8BB7"/>
<path d="M500.311 352.797H548.332L544.322 406.623H504.321L500.311 352.797Z" fill="#263238"/>
<path d="M506.846 333.058C506.352 334.395 502.623 333.325 499.696 332.282C498.694 334.609 498.921 337.631 499.79 340.854C503.131 340.854 507.809 340.961 508.223 341.79C508.637 342.62 503.612 343.034 500.511 343.128C501.365 345.501 502.383 347.811 503.559 350.042C505.283 349.614 507.14 349.413 507.648 350.363C508.156 351.312 507.047 352.877 505.817 354.121C507.688 357.277 509.225 359.403 509.225 359.403C511.458 357.277 513.535 354.993 515.44 352.569C515.44 352.222 515.44 351.86 515.44 351.499C515.561 350.162 516.242 350.028 517.057 350.282C518.31 348.519 519.38 346.632 520.252 344.652C517.485 342.259 514.344 338.915 516.817 337.832C518.314 337.177 519.958 337.926 521.441 339.169C521.419 338.67 521.357 338.174 521.254 337.685C519.036 328.23 511.578 332.336 511.578 332.336C509.8 327.735 504.735 325.89 501.327 329.661C503.519 330.169 507.475 331.44 506.846 333.058Z" fill="#5A8BB7"/>
<path opacity="0.3" d="M506.846 333.058C506.352 334.395 502.623 333.325 499.696 332.282C498.694 334.609 498.921 337.631 499.79 340.854C503.131 340.854 507.809 340.961 508.223 341.79C508.637 342.62 503.612 343.034 500.511 343.128C501.365 345.501 502.383 347.811 503.559 350.042C505.283 349.614 507.14 349.413 507.648 350.363C508.156 351.312 507.047 352.877 505.817 354.121C507.688 357.277 509.225 359.403 509.225 359.403C511.458 357.277 513.535 354.993 515.44 352.569C515.44 352.222 515.44 351.86 515.44 351.499C515.561 350.162 516.242 350.028 517.057 350.282C518.31 348.519 519.38 346.632 520.252 344.652C517.485 342.259 514.344 338.915 516.817 337.832C518.314 337.177 519.958 337.926 521.441 339.169C521.419 338.67 521.357 338.174 521.254 337.685C519.036 328.23 511.578 332.336 511.578 332.336C509.8 327.735 504.735 325.89 501.327 329.661C503.519 330.169 507.475 331.44 506.846 333.058Z" fill="white"/>
<path d="M542.505 339.437C541.013 339.574 539.542 339.884 538.121 340.36C537.735 339.345 537.514 338.275 537.466 337.19C537.172 327.495 544.149 331.587 547.757 328.738C548.588 328.006 549.563 327.456 550.62 327.124C551.677 326.792 552.791 326.686 553.892 326.813C553.581 327.347 553.304 327.901 553.063 328.471C552.975 328.683 552.937 328.913 552.951 329.142C552.966 329.372 553.032 329.595 553.145 329.795C553.259 329.995 553.416 330.166 553.606 330.296C553.795 330.426 554.012 330.51 554.239 330.544C555.142 330.725 556.078 330.612 556.912 330.223C557.154 330.078 557.386 329.917 557.607 329.741C558.2 330.753 558.65 331.842 558.944 332.978C559.307 334.332 559.517 335.722 559.572 337.123C559.024 337.242 558.484 337.394 557.955 337.578C557.744 337.668 557.556 337.805 557.406 337.978C557.255 338.151 557.146 338.356 557.087 338.578C557.028 338.8 557.02 339.032 557.064 339.257C557.107 339.483 557.202 339.695 557.34 339.878C557.916 340.466 558.596 340.942 559.345 341.282C559.099 342.836 558.692 344.36 558.129 345.829H557.634C557.273 345.909 556.926 345.99 556.578 346.097C556.38 346.15 556.188 346.222 556.004 346.311C555.765 346.414 555.556 346.576 555.397 346.782C555.239 346.988 555.134 347.23 555.095 347.487C555.07 347.741 555.11 347.996 555.21 348.23C555.311 348.464 555.469 348.668 555.669 348.825C555.897 348.992 556.138 349.14 556.391 349.266C555.469 350.869 554.147 352.205 552.555 353.144C551.18 352.5 549.842 351.782 548.546 350.991C548.826 350.603 549.12 350.216 549.388 349.814C549.699 349.37 549.846 348.831 549.802 348.29C549.729 347.748 549.445 347.258 549.012 346.924C548.579 346.591 548.032 346.443 547.49 346.511C546.96 346.592 546.481 346.875 546.153 347.3C545.833 347.768 545.485 348.223 545.124 348.638C543.275 347.278 541.62 345.672 540.206 343.863H540.353C541.25 343.626 542.167 343.473 543.093 343.409C543.361 343.374 543.62 343.286 543.855 343.151C544.09 343.015 544.295 342.835 544.46 342.62C544.625 342.405 544.747 342.16 544.817 341.899C544.887 341.637 544.905 341.364 544.87 341.095C544.835 340.826 544.748 340.567 544.612 340.332C544.477 340.098 544.297 339.892 544.082 339.727C543.868 339.562 543.623 339.44 543.361 339.37C543.099 339.3 542.827 339.281 542.558 339.317L542.505 339.437Z" fill="#5A8BB7"/>
<path opacity="0.5" d="M542.505 339.437C541.013 339.574 539.542 339.884 538.121 340.36C537.735 339.345 537.514 338.275 537.466 337.19C537.172 327.495 544.149 331.587 547.757 328.738C548.588 328.006 549.563 327.456 550.62 327.124C551.677 326.792 552.791 326.686 553.892 326.813C553.581 327.347 553.304 327.901 553.063 328.471C552.975 328.683 552.937 328.913 552.951 329.142C552.966 329.372 553.032 329.595 553.145 329.795C553.259 329.995 553.416 330.166 553.606 330.296C553.795 330.426 554.012 330.51 554.239 330.544C555.142 330.725 556.078 330.612 556.912 330.223C557.154 330.078 557.386 329.917 557.607 329.741C558.2 330.753 558.65 331.842 558.944 332.978C559.307 334.332 559.517 335.722 559.572 337.123C559.024 337.242 558.484 337.394 557.955 337.578C557.744 337.668 557.556 337.805 557.406 337.978C557.255 338.151 557.146 338.356 557.087 338.578C557.028 338.8 557.02 339.032 557.064 339.257C557.107 339.483 557.202 339.695 557.34 339.878C557.916 340.466 558.596 340.942 559.345 341.282C559.099 342.836 558.692 344.36 558.129 345.829H557.634C557.273 345.909 556.926 345.99 556.578 346.097C556.38 346.15 556.188 346.222 556.004 346.311C555.765 346.414 555.556 346.576 555.397 346.782C555.239 346.988 555.134 347.23 555.095 347.487C555.07 347.741 555.11 347.996 555.21 348.23C555.311 348.464 555.469 348.668 555.669 348.825C555.897 348.992 556.138 349.14 556.391 349.266C555.469 350.869 554.147 352.205 552.555 353.144C551.18 352.5 549.842 351.782 548.546 350.991C548.826 350.603 549.12 350.216 549.388 349.814C549.699 349.37 549.846 348.831 549.802 348.29C549.729 347.748 549.445 347.258 549.012 346.924C548.579 346.591 548.032 346.443 547.49 346.511C546.96 346.592 546.481 346.875 546.153 347.3C545.833 347.768 545.485 348.223 545.124 348.638C543.275 347.278 541.62 345.672 540.206 343.863H540.353C541.25 343.626 542.167 343.473 543.093 343.409C543.361 343.374 543.62 343.286 543.855 343.151C544.09 343.015 544.295 342.835 544.46 342.62C544.625 342.405 544.747 342.16 544.817 341.899C544.887 341.637 544.905 341.364 544.87 341.095C544.835 340.826 544.748 340.567 544.612 340.332C544.477 340.098 544.297 339.892 544.082 339.727C543.868 339.562 543.623 339.44 543.361 339.37C543.099 339.3 542.827 339.281 542.558 339.317L542.505 339.437Z" fill="white"/>
<path d="M545.298 306.031C546.132 305.451 547.029 304.966 547.971 304.586C547.724 303.884 547.367 303.225 546.915 302.634C542.826 297.418 540.981 302.634 537.8 302.714C537.051 302.698 536.307 302.84 535.617 303.13C534.926 303.421 534.304 303.853 533.791 304.399C534.19 304.541 534.578 304.711 534.954 304.907C535.094 304.98 535.215 305.083 535.309 305.209C535.403 305.336 535.467 305.482 535.495 305.637C535.523 305.792 535.516 305.952 535.473 306.104C535.43 306.255 535.353 306.395 535.248 306.512C534.854 307.016 534.303 307.373 533.684 307.529C533.493 307.548 533.3 307.548 533.109 307.529C533.243 308.32 533.486 309.09 533.831 309.815C534.227 310.691 534.724 311.517 535.314 312.276C535.658 312.097 536.01 311.936 536.37 311.795C536.522 311.75 536.681 311.74 536.837 311.766C536.993 311.792 537.14 311.853 537.269 311.944C537.398 312.036 537.504 312.155 537.58 312.294C537.656 312.432 537.699 312.586 537.707 312.744C537.655 313.303 537.51 313.85 537.279 314.362C538.101 315.072 538.997 315.691 539.952 316.208L540.233 316.034C540.46 315.914 540.674 315.807 540.901 315.713C541.03 315.652 541.164 315.603 541.302 315.566C541.472 315.517 541.651 315.511 541.823 315.548C541.996 315.586 542.157 315.665 542.291 315.78C542.423 315.904 542.52 316.061 542.574 316.234C542.628 316.408 542.636 316.592 542.598 316.769C542.555 316.956 542.497 317.14 542.425 317.318C543.611 317.759 544.893 317.879 546.14 317.665C546.594 316.718 546.991 315.744 547.33 314.75L546.367 314.496C546.009 314.404 545.696 314.185 545.485 313.881C545.286 313.567 545.218 313.187 545.298 312.824C545.381 312.458 545.601 312.138 545.913 311.928C546.234 311.735 546.615 311.669 546.982 311.741C547.36 311.855 547.744 311.949 548.132 312.022C548.502 310.495 548.664 308.925 548.613 307.355H548.519C547.945 307.621 547.399 307.943 546.889 308.318C546.574 308.487 546.208 308.531 545.862 308.441C545.517 308.351 545.218 308.134 545.025 307.833C544.833 307.533 544.761 307.17 544.824 306.819C544.887 306.467 545.08 306.152 545.365 305.937L545.298 306.031Z" fill="#5A8BB7"/>
<path opacity="0.3" d="M545.298 306.031C546.132 305.451 547.029 304.966 547.971 304.586C547.724 303.884 547.367 303.225 546.915 302.634C542.826 297.418 540.981 302.634 537.8 302.714C537.051 302.698 536.307 302.84 535.617 303.13C534.926 303.421 534.304 303.853 533.791 304.399C534.19 304.541 534.578 304.711 534.954 304.907C535.094 304.98 535.215 305.083 535.309 305.209C535.403 305.336 535.467 305.482 535.495 305.637C535.523 305.792 535.516 305.952 535.473 306.104C535.43 306.255 535.353 306.395 535.248 306.512C534.854 307.016 534.303 307.373 533.684 307.529C533.493 307.548 533.3 307.548 533.109 307.529C533.243 308.32 533.486 309.09 533.831 309.815C534.227 310.691 534.724 311.517 535.314 312.276C535.658 312.097 536.01 311.936 536.37 311.795C536.522 311.75 536.681 311.74 536.837 311.766C536.993 311.792 537.14 311.853 537.269 311.944C537.398 312.036 537.504 312.155 537.58 312.294C537.656 312.432 537.699 312.586 537.707 312.744C537.655 313.303 537.51 313.85 537.279 314.362C538.101 315.072 538.997 315.691 539.952 316.208L540.233 316.034C540.46 315.914 540.674 315.807 540.901 315.713C541.03 315.652 541.164 315.603 541.302 315.566C541.472 315.517 541.651 315.511 541.823 315.548C541.996 315.586 542.157 315.665 542.291 315.78C542.423 315.904 542.52 316.061 542.574 316.234C542.628 316.408 542.636 316.592 542.598 316.769C542.555 316.956 542.497 317.14 542.425 317.318C543.611 317.759 544.893 317.879 546.14 317.665C546.594 316.718 546.991 315.744 547.33 314.75L546.367 314.496C546.009 314.404 545.696 314.185 545.485 313.881C545.286 313.567 545.218 313.187 545.298 312.824C545.381 312.458 545.601 312.138 545.913 311.928C546.234 311.735 546.615 311.669 546.982 311.741C547.36 311.855 547.744 311.949 548.132 312.022C548.502 310.495 548.664 308.925 548.613 307.355H548.519C547.945 307.621 547.399 307.943 546.889 308.318C546.574 308.487 546.208 308.531 545.862 308.441C545.517 308.351 545.218 308.134 545.025 307.833C544.833 307.533 544.761 307.17 544.824 306.819C544.887 306.467 545.08 306.152 545.365 305.937L545.298 306.031Z" fill="white"/>
<path d="M506.152 315.726C505.871 317.692 511.204 318.989 515.507 319.738C515.146 323.309 512.834 326.92 509.506 330.29C505.376 327.963 499.496 324.94 498.4 325.636C497.304 326.331 503.251 330.357 507.02 332.657C504.323 335.005 501.47 337.168 498.48 339.129C496.636 337.404 494.47 335.88 493.134 336.709C491.797 337.538 492.158 340.226 492.826 342.62C488.336 345.227 484.981 346.819 484.981 346.819C483.675 342.648 482.67 338.389 481.974 334.074C482.201 333.633 482.428 333.178 482.642 332.737C483.364 331.065 482.642 330.356 481.466 330.129C481.126 327.077 481.099 323.999 481.386 320.942C486.465 319.872 492.639 317.906 490.327 314.857C488.991 313.025 486.384 312.811 483.725 313.266C484.086 312.659 484.506 312.09 484.981 311.567C494.216 301.377 500.658 311.567 500.658 311.567C506.005 307.087 513.583 308.291 515.213 315.298C512.273 314.456 506.539 313.306 506.152 315.726Z" fill="#5A8BB7"/>
<path opacity="0.5" d="M506.152 315.726C505.871 317.692 511.204 318.989 515.507 319.738C515.146 323.309 512.834 326.92 509.506 330.29C505.376 327.963 499.496 324.94 498.4 325.636C497.304 326.331 503.251 330.357 507.02 332.657C504.323 335.005 501.47 337.168 498.48 339.129C496.636 337.404 494.47 335.88 493.134 336.709C491.797 337.538 492.158 340.226 492.826 342.62C488.336 345.227 484.981 346.819 484.981 346.819C483.675 342.648 482.67 338.389 481.974 334.074C482.201 333.633 482.428 333.178 482.642 332.737C483.364 331.065 482.642 330.356 481.466 330.129C481.126 327.077 481.099 323.999 481.386 320.942C486.465 319.872 492.639 317.906 490.327 314.857C488.991 313.025 486.384 312.811 483.725 313.266C484.086 312.659 484.506 312.09 484.981 311.567C494.216 301.377 500.658 311.567 500.658 311.567C506.005 307.087 513.583 308.291 515.213 315.298C512.273 314.456 506.539 313.306 506.152 315.726Z" fill="white"/>
<path d="M343.899 372.161L347.494 338.019L378.956 337.15C378.956 337.15 383.687 368.497 382.778 368.363C381.869 368.229 343.899 372.161 343.899 372.161Z" fill="#5A8BB7"/>
<path opacity="0.2" d="M343.899 372.161L347.494 338.019L378.956 337.15C378.956 337.15 383.687 368.497 382.778 368.363C381.869 368.229 343.899 372.161 343.899 372.161Z" fill="black"/>
<path d="M370.215 366.116L382.885 347.915C382.885 347.915 396.945 353.693 396.945 354.281C396.945 354.87 397.56 367.962 397.56 367.962L370.215 366.116Z" fill="#263238"/>
<path opacity="0.2" d="M370.215 366.116L382.885 347.915C382.885 347.915 396.945 353.693 396.945 354.281C396.945 354.87 397.56 367.962 397.56 367.962L370.215 366.116Z" fill="white"/>
<path d="M340.168 360.802C341.368 353.409 336.351 346.444 328.963 345.244C321.575 344.044 314.613 349.064 313.414 356.456C312.215 363.849 317.232 370.814 324.62 372.014C332.008 373.214 338.969 368.194 340.168 360.802Z" fill="#5A8BB7"/>
<path d="M331.269 361.89L322.822 331.654L327.045 329.14L335.506 330.196L338.74 335.88L345.423 338.661L350.167 359.737L346.452 363.963C346.452 363.963 347.24 368.403 346.719 368.403C346.198 368.403 333.354 369.446 333.354 369.446L331.269 361.89Z" fill="#5A8BB7"/>
<path opacity="0.2" d="M346.478 364.017C346.478 364.017 347.267 368.457 346.732 368.457C346.425 368.457 341.76 368.818 338.032 369.125L333.394 369.486L331.269 361.89L322.809 331.654L327.045 329.14L327.66 329.22L335.505 330.209L338.74 335.893L345.422 338.661L350.167 359.737L346.478 364.017Z" fill="white"/>
<path d="M329.157 340.132C329.157 340.971 328.908 341.791 328.442 342.489C327.976 343.186 327.314 343.73 326.539 344.05C325.764 344.371 324.911 344.454 324.089 344.289C323.267 344.124 322.512 343.719 321.92 343.125C321.328 342.531 320.925 341.774 320.763 340.951C320.601 340.128 320.687 339.275 321.01 338.501C321.333 337.726 321.878 337.065 322.576 336.601C323.275 336.137 324.095 335.89 324.934 335.893C325.49 335.891 326.041 336 326.555 336.212C327.069 336.425 327.536 336.737 327.929 337.132C328.322 337.526 328.632 337.994 328.843 338.509C329.054 339.024 329.161 339.576 329.157 340.132Z" fill="#263238"/>
<path d="M324.934 342.245C326.1 342.245 327.045 341.299 327.045 340.132C327.045 338.965 326.1 338.019 324.934 338.019C323.767 338.019 322.822 338.965 322.822 340.132C322.822 341.299 323.767 342.245 324.934 342.245Z" fill="white"/>
<path d="M335.465 361.89C335.465 362.729 335.217 363.548 334.751 364.246C334.286 364.943 333.624 365.486 332.85 365.807C332.076 366.128 331.224 366.212 330.402 366.048C329.58 365.885 328.825 365.481 328.233 364.888C327.64 364.295 327.237 363.54 327.073 362.717C326.91 361.895 326.994 361.043 327.314 360.268C327.635 359.493 328.178 358.831 328.875 358.366C329.572 357.9 330.391 357.651 331.229 357.651C331.786 357.649 332.337 357.758 332.852 357.97C333.367 358.183 333.835 358.495 334.228 358.889C334.622 359.283 334.934 359.751 335.147 360.266C335.359 360.781 335.467 361.333 335.465 361.89Z" fill="#263238"/>
<path d="M333.394 361.89C333.397 362.311 333.274 362.724 333.042 363.075C332.81 363.427 332.479 363.701 332.091 363.864C331.703 364.027 331.276 364.071 330.862 363.991C330.449 363.91 330.069 363.709 329.771 363.412C329.472 363.115 329.269 362.736 329.186 362.324C329.103 361.911 329.144 361.482 329.304 361.093C329.465 360.704 329.737 360.371 330.087 360.137C330.437 359.902 330.848 359.777 331.269 359.777C331.83 359.777 332.369 360 332.767 360.395C333.165 360.791 333.39 361.329 333.394 361.89Z" fill="white"/>
<path opacity="0.2" d="M346.478 364.017C346.478 364.017 347.267 368.457 346.732 368.457C346.425 368.457 341.76 368.818 338.032 369.125C337.854 367.429 337.782 365.722 337.818 364.017L341.613 358.868L337.951 339.143L331.269 337.03L327.66 329.233L335.505 330.223L338.74 335.906L345.422 338.675L350.167 359.737L346.478 364.017Z" fill="white"/>
<path d="M361.073 351.54C361.073 351.54 352.038 352.676 352.893 345.615C353.302 341.572 355.02 337.773 357.785 334.796L353.989 334.328C353.989 334.328 338.579 352.569 359.589 355.725L361.073 351.54Z" fill="#263238"/>
<path d="M361.274 329.969C361.74 330.78 361.942 331.717 361.854 332.649C361.765 333.58 361.39 334.462 360.779 335.171C358.654 337.846 351.423 335.425 351.664 332.643C351.905 329.862 356.075 327.441 356.075 327.441L356.943 328.07C356.943 328.07 352.012 331.279 356.061 332.657C360.111 334.034 360.365 330.544 360.365 330.544L361.274 329.969Z" fill="#5A8BB7"/>
<path d="M375.441 356.728C375.441 356.728 382.123 362.947 385.545 356.728C387.578 353.211 388.413 349.127 387.924 345.094L391.278 346.939C391.278 346.939 393.083 370.757 374.224 361.075L375.441 356.728Z" fill="#263238"/>
<path d="M354.35 364.003L361.22 348.785C361.22 348.785 376.617 351.566 376.122 352.101C375.628 352.636 374.652 371.011 374.652 371.011L354.35 364.003Z" fill="#5A8BB7"/>
<path d="M372.634 330.932L369.68 340.132H370.91L372.634 330.932Z" fill="#263238"/>
<path d="M373.369 331.293C373.372 331.442 373.33 331.588 373.249 331.714C373.167 331.839 373.051 331.937 372.913 331.995C372.776 332.054 372.624 332.07 372.478 332.041C372.332 332.013 372.197 331.941 372.092 331.835C371.986 331.73 371.915 331.595 371.886 331.449C371.858 331.302 371.874 331.151 371.932 331.013C371.99 330.876 372.088 330.759 372.213 330.678C372.338 330.597 372.485 330.554 372.634 330.557C372.829 330.557 373.016 330.635 373.154 330.773C373.292 330.911 373.369 331.098 373.369 331.293Z" fill="#263238"/>
<path d="M360.191 335.893L357.251 348.531C357.251 348.531 379.865 355.003 379.865 354.214C379.865 353.425 382.11 342.245 382.11 342.245L360.191 335.893Z" fill="#5A8BB7"/>
<path opacity="0.4" d="M360.191 335.893L357.251 348.531C357.251 348.531 379.865 355.003 379.865 354.214C379.865 353.425 382.11 342.245 382.11 342.245L360.191 335.893Z" fill="white"/>
<path d="M366.553 341.603C366.555 341.897 366.471 342.186 366.309 342.432C366.148 342.678 365.917 342.87 365.646 342.984C365.375 343.099 365.077 343.13 364.788 343.074C364.499 343.018 364.234 342.878 364.025 342.671C363.816 342.464 363.674 342.2 363.615 341.911C363.557 341.623 363.585 341.324 363.697 341.052C363.809 340.78 363.999 340.547 364.244 340.383C364.488 340.22 364.775 340.132 365.069 340.132C365.46 340.132 365.836 340.287 366.113 340.562C366.391 340.838 366.549 341.212 366.553 341.603Z" fill="white"/>
<path d="M377.592 344.358C377.592 344.649 377.506 344.934 377.345 345.175C377.183 345.417 376.954 345.606 376.685 345.717C376.416 345.829 376.121 345.858 375.835 345.801C375.55 345.744 375.288 345.604 375.083 345.398C374.877 345.193 374.737 344.931 374.68 344.645C374.624 344.36 374.653 344.064 374.764 343.795C374.875 343.526 375.064 343.297 375.305 343.135C375.547 342.973 375.832 342.887 376.122 342.887C376.511 342.891 376.883 343.047 377.158 343.322C377.433 343.597 377.589 343.969 377.592 344.358Z" fill="white"/>
<path d="M366.219 346.939L372.059 349.32V350.644L365.069 348.129L366.219 346.939Z" fill="white"/>
<path opacity="0.4" d="M375.441 358.32C375.04 363.829 374.652 371.011 374.652 371.011L354.35 364.017L359.523 352.569L375.441 358.32Z" fill="white"/>
<path d="M387.924 339.129C387.067 339.511 386.349 340.15 385.87 340.957C385.392 341.764 385.175 342.7 385.251 343.636C385.384 347.073 392.655 349.306 394.112 346.939C395.568 344.572 393.59 340.132 393.59 340.132H392.521C392.521 340.132 394.633 345.615 390.543 344.358C386.453 343.101 388.298 340.132 388.298 340.132L387.924 339.129Z" fill="#5A8BB7"/>
<path d="M308.561 406.624H401.823V361.035H308.561V406.624Z" fill="#263238"/>
<path opacity="0.6" d="M308.561 406.624H401.823V361.035H308.561V406.624Z" fill="white"/>
<path opacity="0.3" d="M308.575 406.624H374.652V361.035H308.575V406.624Z" fill="white"/>
<path d="M374.652 361.021L381.482 371.827H407.905L401.823 361.021H374.652Z" fill="#263238"/>
<path d="M374.652 361.021L368.704 371.827H302.721L308.575 361.021H374.652Z" fill="#263238"/>
<path opacity="0.4" d="M374.652 361.021L381.482 371.827H407.905L401.823 361.021H374.652Z" fill="white"/>
<path opacity="0.6" d="M374.652 361.021L368.704 371.827H302.721L308.575 361.021H374.652Z" fill="white"/>
<path d="M305.474 363.067H202.215V406.61H305.474V363.067Z" fill="#5A8BB7"/>
<path opacity="0.2" d="M202.215 406.624H277.621V363.081H202.215V406.624Z" fill="white"/>
<path d="M240.145 363.067H229.841V369.593H240.145V363.067Z" fill="#263238"/>
<path d="M240.145 401.689H229.841V406.61H240.145V401.689Z" fill="#263238"/>
<path d="M294.461 319.605H217.932V363.147H294.461V319.605Z" fill="#5A8BB7"/>
<path opacity="0.2" d="M294.461 319.605H217.932V363.147H294.461V319.605Z" fill="white"/>
<path opacity="0.2" d="M217.919 363.147H266.595V319.605H217.919V363.147Z" fill="white"/>
<path opacity="0.2" d="M283.208 319.605H277.995V325.168H283.208V319.605Z" fill="black"/>
<path opacity="0.2" d="M283.208 359.376H277.995V363.161H283.208V359.376Z" fill="black"/>
<path d="M32.2101 406.624H114.473L114.473 314.71H32.2101L32.2101 406.624Z" fill="#5A8BB7"/>
<path opacity="0.2" d="M32.2236 406.624H57.457L57.457 314.71H32.2236L32.2236 406.624Z" fill="black"/>
<path opacity="0.2" d="M63.0838 336.575H110.383V318.775H63.0838V336.575Z" fill="white"/>
<path opacity="0.2" d="M63.0838 358.721H110.383V340.921H63.0838V358.721Z" fill="white"/>
<path opacity="0.2" d="M63.0838 401.569H110.383V363.094H63.0838L63.0838 401.569Z" fill="white"/>
<path opacity="0.2" d="M86.0718 322.212C86.0718 322.583 86.1815 322.945 86.3871 323.253C86.5927 323.56 86.8849 323.8 87.2269 323.942C87.5688 324.084 87.945 324.121 88.3079 324.049C88.6709 323.976 89.0043 323.798 89.266 323.536C89.5277 323.274 89.7059 322.941 89.7781 322.578C89.8503 322.214 89.8132 321.838 89.6716 321.496C89.53 321.154 89.2901 320.861 88.9824 320.656C88.6747 320.45 88.313 320.34 87.9429 320.34C87.4466 320.34 86.9707 320.537 86.6198 320.888C86.2689 321.24 86.0718 321.716 86.0718 322.212Z" fill="black"/>
<path opacity="0.2" d="M87.9429 345.455C88.9763 345.455 89.814 344.617 89.814 343.583C89.814 342.549 88.9763 341.71 87.9429 341.71C86.9095 341.71 86.0718 342.549 86.0718 343.583C86.0718 344.617 86.9095 345.455 87.9429 345.455Z" fill="black"/>
<path opacity="0.2" d="M106.24 382.325C106.279 382.792 106.493 383.228 106.838 383.545C107.184 383.863 107.635 384.039 108.104 384.039C108.573 384.039 109.025 383.863 109.37 383.545C109.716 383.228 109.929 382.792 109.969 382.325C109.991 382.066 109.959 381.806 109.875 381.561C109.791 381.316 109.657 381.091 109.482 380.9C109.307 380.709 109.094 380.557 108.857 380.452C108.62 380.348 108.363 380.294 108.104 380.294C107.845 380.294 107.589 380.348 107.352 380.452C107.115 380.557 106.902 380.709 106.726 380.9C106.551 381.091 106.417 381.316 106.334 381.561C106.25 381.806 106.218 382.066 106.24 382.325Z" fill="black"/>
<path d="M25.0864 350.737H20.9031V406.61H25.0864V350.737Z" fill="#263238"/>
<path d="M0.641602 369.941H45.3614L41.7395 338.273H4.26356L0.641602 369.941Z" fill="#5A8BB7"/>
<g opacity="0.6">
<path d="M0.641602 369.941H45.3614L41.7395 338.273H4.26356L0.641602 369.941Z" fill="white"/>
</g>
<path opacity="0.2" d="M20.9031 382.686V406.623H25.0864V380.064L20.9031 382.686Z" fill="white"/>
<path d="M30.3256 404.163H15.6641L13.0579 406.623H32.9452L30.3256 404.163Z" fill="#5A8BB7"/>
<path opacity="0.2" d="M30.3256 404.163H15.6641L13.0579 406.623H32.9452L30.3256 404.163Z" fill="white"/>
<path d="M428.875 175.589C428.875 175.589 427.725 177.288 425.961 179.829C424.076 182.57 421.444 186.288 418.811 189.845C415.162 194.78 411.46 199.393 409.562 200.691C405.004 203.847 382.685 209.584 381.722 209.463C380.76 209.343 379.25 204.462 379.25 204.462C379.25 204.462 399.645 197.628 402.559 195.609C405.472 193.59 416.231 168.288 423.422 165.185L428.875 175.589Z" fill="#E4897B"/>
<path opacity="0.2" d="M425.961 179.829C424.076 182.57 421.444 186.288 418.811 189.845C411.647 180.35 421.804 169.839 421.804 169.839C421.804 169.839 425.36 176.031 425.961 179.829Z" fill="black"/>
<path d="M437.428 276.57C438.885 280.448 440.222 284.38 441.438 288.231C447.613 307.756 450.793 331.025 450.793 331.025C467.299 364.391 478.86 414.514 478.86 414.514L472.752 416.56L432.657 327.334L420.749 296.576L437.428 276.57Z" fill="#E4897B"/>
<path d="M479.101 409.793C478.727 409.071 470.066 413.992 470.066 413.992C470.066 413.992 467.286 422.257 462.555 426.108C457.823 429.96 462.368 431.712 468.342 428.783L483.11 421.615C487.347 419.582 482.937 417.242 479.101 409.793Z" fill="#263238"/>
<path d="M466.444 418.579C466.171 418.729 465.857 418.785 465.549 418.74C465.363 418.685 465.198 418.576 465.076 418.425C464.954 418.275 464.881 418.09 464.867 417.897C464.838 417.751 464.84 417.601 464.872 417.456C464.904 417.311 464.966 417.174 465.054 417.055C465.565 416.49 466.221 416.078 466.952 415.864C466.03 415.864 465.174 415.664 464.907 415.209C464.64 414.754 464.827 414.567 465.134 414.166C465.27 413.992 465.442 413.849 465.638 413.748C465.834 413.646 466.05 413.588 466.27 413.578C467.727 413.497 469.478 415.196 469.571 415.289C469.578 415.32 469.578 415.352 469.571 415.383C469.577 415.409 469.577 415.437 469.571 415.463C469.578 415.49 469.578 415.517 469.571 415.543V415.637C468.704 416.789 467.646 417.784 466.444 418.579ZM466.444 416.64C466.074 416.801 465.745 417.043 465.482 417.349C465.39 417.476 465.351 417.635 465.375 417.79C465.455 418.178 465.615 418.218 465.669 418.231C466.257 418.378 467.66 417.081 468.703 415.891C467.926 416.057 467.169 416.304 466.444 416.627V416.64ZM465.909 414.206C465.769 414.276 465.646 414.377 465.549 414.5C465.455 414.621 465.308 414.835 465.375 414.955C465.589 415.343 467.206 415.423 468.77 415.276C468.094 414.634 467.233 414.223 466.31 414.099C466.185 414.107 466.063 414.139 465.95 414.193L465.909 414.206Z" fill="#5A8BB7"/>
<path d="M410.725 276.342C412.484 287.907 415.695 299.203 420.281 309.963C425.252 321.53 430.746 330.022 434.742 338.808C441.799 354.335 460.136 391.244 460.136 391.244L472.351 382.017C472.351 382.017 452.851 334.997 451.528 325.77C450.673 319.792 449.858 287.67 449.377 265.764C449.123 253.822 448.962 244.929 448.962 244.929L414.052 217.033C408.826 236.355 407.692 256.556 410.725 276.342Z" fill="#263238"/>
<path opacity="0.2" d="M420.281 309.963C425.253 321.53 430.746 330.022 434.742 338.808C441.799 354.335 460.136 391.244 460.136 391.244L472.351 382.017C472.351 382.017 452.852 334.997 451.529 325.77C450.673 319.792 449.858 287.67 449.377 265.764L439.045 244.046L425.68 249.396L430.051 266.232L420.281 309.963Z" fill="black"/>
<path d="M433.031 345.548C423.823 380.613 406.528 422.217 406.528 422.217L400.567 419.916L418.129 345.589L433.031 345.548Z" fill="#E4897B"/>
<path d="M409.722 418.793C409.896 418.004 400.099 416.252 400.099 416.252C400.099 416.252 392.682 420.839 386.587 420.786C380.493 420.732 382.858 424.985 389.26 426.563L405.205 430.468C409.829 431.591 407.931 426.991 409.722 418.793Z" fill="#263238"/>
<path d="M394.419 417.482C394.108 417.434 393.824 417.278 393.617 417.041C393.505 416.883 393.445 416.694 393.445 416.5C393.445 416.306 393.505 416.116 393.617 415.958C393.685 415.827 393.779 415.711 393.894 415.619C394.009 415.526 394.143 415.46 394.286 415.423C395.042 415.321 395.813 415.423 396.518 415.717C395.836 415.115 395.261 414.38 395.368 413.912C395.475 413.444 395.702 413.364 396.197 413.257C396.414 413.208 396.639 413.208 396.856 413.256C397.074 413.305 397.277 413.401 397.453 413.537C398.616 414.393 398.883 416.827 398.897 416.948C398.904 416.983 398.904 417.019 398.897 417.055C398.902 417.065 398.905 417.076 398.905 417.088C398.905 417.1 398.902 417.111 398.897 417.121V417.188H398.803C397.371 417.548 395.886 417.647 394.419 417.482ZM395.649 415.998C395.264 415.879 394.855 415.856 394.459 415.931C394.384 415.949 394.314 415.982 394.252 416.028C394.19 416.074 394.138 416.132 394.098 416.199C393.911 416.56 394.005 416.68 394.098 416.734C394.459 417.215 396.357 417.121 397.921 416.854C397.181 416.491 396.406 416.204 395.609 415.998H395.649ZM396.798 413.778C396.645 413.738 396.484 413.738 396.33 413.778C396.183 413.778 395.929 413.872 395.903 414.019C395.823 414.46 397.012 415.543 398.308 416.439C398.203 415.511 397.806 414.639 397.172 413.952C397.06 413.87 396.933 413.811 396.798 413.778Z" fill="#5A8BB7"/>
<path d="M450.914 213.288C450.914 213.288 464.439 241.853 459.654 268.8C454.87 295.747 440.422 330.316 436.533 338.728C432.643 347.14 418.089 396.808 418.089 396.808L405.499 392.715C405.499 392.715 416.752 343.395 420.281 326.211C421.951 318.093 436.239 260.308 436.239 260.308C436.239 260.308 411.754 242.094 413.518 213.609L450.914 213.288Z" fill="#263238"/>
<path d="M437.228 219.721L417.755 217.822L418.182 211.951L437.629 214.345L437.228 219.721Z" fill="black"/>
<path d="M416.472 211.737L416.044 217.661L414.079 217.461L414.213 211.456L416.472 211.737Z" fill="black"/>
<path d="M439.34 214.559L449.644 215.842L449.524 220.911L438.952 219.881L439.34 214.559Z" fill="black"/>
<path d="M422.016 218.643L429.586 219.491L430.229 213.75L422.658 212.902L422.016 218.643Z" fill="white"/>
<path d="M384.77 204.034C383.726 202.874 382.561 201.829 381.295 200.918C380.159 200.33 369.56 202.884 369.56 204.154C369.56 205.425 372.661 212.566 375.107 212.272C377.552 211.978 383.634 210.132 384.462 208.995C385.291 207.859 384.77 204.034 384.77 204.034Z" fill="#E4897B"/>
<path d="M453.881 211.496C453.299 213.27 452.923 215.106 452.758 216.966L414.961 211.055C415.397 201.351 416.675 191.704 418.784 182.222C419.866 177.167 420.989 172.861 421.804 169.866C422.62 166.87 423.141 165.145 423.141 165.145C444.712 162.082 467.433 172.968 467.433 172.968L466.23 184.054L465.696 189.136C458.518 199.086 455.297 206.762 453.881 211.496Z" fill="#5A8BB7"/>
<path opacity="0.2" d="M453.881 211.496C453.299 213.27 452.923 215.106 452.758 216.966L414.961 211.055C415.397 201.351 416.675 191.704 418.784 182.222C419.866 177.167 420.989 172.861 421.804 169.866C422.62 166.87 423.141 165.145 423.141 165.145C444.712 162.082 467.433 172.968 467.433 172.968L466.23 184.054L465.696 189.136C458.518 199.086 455.297 206.762 453.881 211.496Z" fill="black"/>
<path opacity="0.4" d="M441.505 191.477C439.246 196.558 433.94 199.139 429.65 197.227C425.359 195.315 423.729 189.658 425.988 184.576C428.246 179.494 433.539 176.913 437.829 178.812C442.119 180.711 443.723 186.381 441.505 191.477Z" fill="white"/>
<path opacity="0.2" d="M465.736 189.136C458.518 199.086 455.297 206.762 453.881 211.496C450.686 206.989 451.208 200.798 451.208 200.798L457.249 186.943L466.31 184.001L465.736 189.136Z" fill="black"/>
<path d="M467.473 172.968C458.879 170.454 452.638 194.071 449.738 198.939C446.837 203.807 414.507 209.089 414.507 209.089L415.737 215.428C415.737 215.428 447.252 211.336 451.609 208.741C455.966 206.147 467.072 188.307 469.077 183.332C472.044 176.111 467.473 172.968 467.473 172.968Z" fill="#E4897B"/>
<path d="M418.329 210.774C417.573 209.414 416.677 208.137 415.656 206.963C414.694 206.147 403.788 206.294 403.507 207.524C403.227 208.755 404.67 216.417 407.116 216.672C409.562 216.926 415.91 216.471 417.006 215.562C418.102 214.652 418.329 210.774 418.329 210.774Z" fill="#E4897B"/>
<path d="M440.115 172.032C448.936 173.195 452.464 170.213 452.464 170.213C449.791 166.014 451.769 161.32 453.466 158.525C453.99 157.64 454.585 156.8 455.244 156.011L444.472 155.222C444.335 156.714 444.084 158.194 443.723 159.648C443.477 160.725 443.1 161.767 442.601 162.751C441.09 165.64 439.326 165.225 439.326 165.225C436.626 168.114 440.115 172.032 440.115 172.032Z" fill="#E4897B"/>
<path opacity="0.2" d="M443.723 159.648C443.477 160.725 443.1 161.767 442.601 162.751C446.811 163.299 450.767 160.852 453.466 158.525C453.99 157.64 454.585 156.8 455.244 156.011L444.472 155.222C444.335 156.714 444.084 158.194 443.723 159.648Z" fill="black"/>
<path d="M470.266 136.312C470.266 136.312 477.818 132.167 483.632 140.752C489.445 149.338 480.063 159.274 477.564 165.172C476.837 166.751 476.708 168.54 477.199 170.207C477.691 171.875 478.77 173.307 480.237 174.239C480.237 174.239 470.881 179.708 467.58 168.314C464.279 156.92 469.451 143.226 469.451 143.226L470.266 136.312Z" fill="#263238"/>
<path d="M438.511 139.829C438.511 139.829 446.53 157.041 458.425 157.482C470.32 157.923 485.543 132.916 460.724 125.627C460.724 125.627 434.595 120.224 438.511 139.829Z" fill="#263238"/>
<path d="M458.425 130.869C450.125 126.777 445.274 129.907 440.462 138.158C434.368 148.442 433.031 157.241 444.525 160.063C460.122 163.888 472.138 137.65 458.425 130.869Z" fill="#E4897B"/>
<path d="M460.55 149.311C460.55 149.311 460.029 140.592 463.223 135.617C463.223 135.617 450.085 120.8 441.063 137.088C441.063 137.088 446.757 121.482 461.178 128.168C475.599 134.855 465.268 155.703 454.843 158.298C454.83 158.298 460.857 154.754 460.55 149.311Z" fill="#263238"/>
<path d="M458.345 150.394C458.619 149.94 458.98 149.544 459.408 149.23C459.837 148.916 460.323 148.691 460.839 148.566C461.355 148.442 461.89 148.421 462.414 148.505C462.938 148.59 463.44 148.777 463.891 149.057C466.324 150.595 464.947 156.479 457.93 154.607C456.928 154.286 456.848 153.136 458.345 150.394Z" fill="#E4897B"/>
<path d="M469.197 131.391C469.197 131.391 466.431 125.574 462.394 123.635C458.358 121.696 455.805 123.327 455.805 123.327C455.368 122.49 454.735 121.77 453.96 121.23C453.185 120.69 452.291 120.345 451.355 120.224C448 119.663 441.839 122.605 437.869 129.077C433.9 135.55 438.511 139.776 438.511 139.776C438.511 139.776 441.852 126.898 452.558 129.465C452.558 129.465 456.955 129.599 457.369 133.477C457.783 137.355 452.504 144.443 461.379 146.717C470.253 148.99 471.79 137.329 469.197 131.391Z" fill="#263238"/>
<path d="M172.918 226.715L171.248 265.403C172.709 266.101 174.307 266.464 175.926 266.464C177.544 266.464 179.143 266.101 180.603 265.403L188.796 225.458L172.918 226.715Z" fill="#5A8BB7"/>
<path opacity="0.4" d="M172.918 226.715L171.248 265.403C172.709 266.101 174.307 266.464 175.926 266.464C177.544 266.464 179.143 266.101 180.603 265.403L188.796 225.458L172.918 226.715Z" fill="white"/>
<path d="M352.84 199.407L365.069 236.143C363.858 237.213 362.423 237.999 360.869 238.443C359.315 238.887 357.681 238.979 356.088 238.71L337.243 202.603L352.84 199.407Z" fill="#5A8BB7"/>
<path opacity="0.4" d="M352.84 199.407L365.069 236.143C363.858 237.213 362.423 237.999 360.869 238.443C359.315 238.887 357.681 238.979 356.088 238.71L337.243 202.603L352.84 199.407Z" fill="white"/>
<path d="M217.598 231.703L215.927 270.391C217.388 271.09 218.986 271.452 220.605 271.452C222.224 271.452 223.822 271.09 225.283 270.391L233.476 230.459L217.598 231.703Z" fill="#5A8BB7"/>
<path opacity="0.6" d="M217.598 231.703L215.927 270.391C217.388 271.09 218.986 271.452 220.605 271.452C222.224 271.452 223.822 271.09 225.283 270.391L233.476 230.459L217.598 231.703Z" fill="white"/>
<path d="M397.56 204.408L409.789 241.144C408.578 242.214 407.142 243 405.589 243.444C404.035 243.889 402.401 243.98 400.808 243.712L381.963 207.605L397.56 204.408Z" fill="#5A8BB7"/>
<path opacity="0.6" d="M397.56 204.408L409.789 241.144C408.578 242.214 407.142 243 405.589 243.444C404.035 243.889 402.401 243.98 400.808 243.712L381.963 207.605L397.56 204.408Z" fill="white"/>
<path d="M357.545 128.703L361.688 129.532L402.706 120.505L351.838 112.481C351.501 112.435 351.159 112.435 350.822 112.481L144.558 146.85C143.511 147.027 142.577 147.612 141.961 148.477C141.344 149.342 141.096 150.416 141.27 151.464L155.17 235.033C155.289 235.75 155.601 236.421 156.071 236.974C156.542 237.528 157.154 237.943 157.843 238.176L157.575 238.309L208.898 246.333L206.986 230.513L366.032 204.007C367.078 203.83 368.012 203.245 368.629 202.38C369.245 201.516 369.494 200.441 369.319 199.393L357.545 128.703Z" fill="#5A8BB7"/>
<path opacity="0.2" d="M369.306 199.38C369.48 200.428 369.232 201.502 368.615 202.367C367.999 203.232 367.065 203.817 366.018 203.994L215.927 229.015L206.999 230.499L208.911 246.32L157.589 238.296L157.856 238.162C157.168 237.93 156.555 237.515 156.085 236.961C155.614 236.408 155.302 235.736 155.183 235.019L141.283 151.451C141.193 150.949 141.203 150.434 141.313 149.935C141.423 149.437 141.631 148.966 141.925 148.549C142.226 148.093 142.62 147.705 143.08 147.41C143.54 147.115 144.057 146.92 144.598 146.837L350.862 112.468C351.199 112.421 351.541 112.421 351.878 112.468L402.746 120.492L361.728 129.519L357.585 128.69L369.306 199.38Z" fill="black"/>
<path opacity="0.2" d="M206.999 230.499L208.911 246.32L157.589 238.296L157.856 238.162C157.168 237.93 156.555 237.515 156.085 236.961C155.614 236.408 155.302 235.736 155.183 235.019L141.283 151.451C141.193 150.949 141.203 150.434 141.313 149.935C141.423 149.437 141.631 148.966 141.925 148.549L198.058 158.445L215.941 228.975L206.999 230.499Z" fill="black"/>
<path d="M401.554 120.569L195.294 154.921C193.109 155.285 191.633 157.351 191.997 159.537L205.898 243.106C206.262 245.292 208.327 246.769 210.512 246.405L416.772 212.053C418.956 211.69 420.432 209.623 420.069 207.437L406.167 123.868C405.804 121.682 403.738 120.205 401.554 120.569Z" fill="#5A8BB7"/>
<path opacity="0.4" d="M414.584 206.946L401.122 126.015L197.498 159.927L210.961 240.858L414.584 206.946Z" fill="black"/>
<path d="M258.402 151.999L257.961 153.336C257.819 153.759 257.565 154.136 257.226 154.426C256.887 154.715 256.476 154.907 256.036 154.981L243.353 157.094C242.91 157.173 242.455 157.128 242.037 156.962C241.619 156.797 241.256 156.519 240.987 156.158L240.145 155.035L200.477 161.654L204.367 184.991L302.052 168.715L298.177 145.379L258.402 151.999Z" fill="#5A8BB7"/>
<path d="M262.906 179.106L262.478 180.444C262.336 180.866 262.081 181.242 261.742 181.531C261.404 181.821 260.993 182.013 260.554 182.089L247.857 184.215C247.416 184.287 246.963 184.237 246.548 184.069C246.133 183.902 245.773 183.624 245.505 183.265L244.649 182.142L204.955 188.829L213.201 238.403L310.86 222.141L302.614 172.513L262.906 179.106Z" fill="#5A8BB7"/>
<path d="M363.733 162.31L363.292 163.647C363.15 164.07 362.896 164.447 362.557 164.736C362.218 165.026 361.807 165.218 361.367 165.292L348.684 167.405C348.241 167.481 347.787 167.434 347.37 167.269C346.952 167.104 346.589 166.827 346.318 166.469L345.476 165.345L305.768 172.032L314.081 221.539L411.647 205.264L403.401 155.69L363.733 162.31Z" fill="#5A8BB7"/>
<path d="M359.215 135.202L358.788 136.54C358.647 136.967 358.392 137.347 358.05 137.64C357.708 137.932 357.293 138.125 356.85 138.198L344.166 140.311C343.726 140.386 343.274 140.338 342.859 140.173C342.444 140.008 342.082 139.732 341.814 139.375L340.958 138.251L301.264 144.871L305.14 168.207L402.812 151.932L398.923 128.596L359.215 135.202Z" fill="#5A8BB7"/>
<g opacity="0.4">
<path d="M258.402 151.999L257.961 153.336C257.819 153.759 257.565 154.136 257.226 154.426C256.887 154.715 256.476 154.907 256.036 154.981L243.353 157.094C242.91 157.173 242.455 157.128 242.037 156.962C241.619 156.797 241.256 156.519 240.987 156.158L240.145 155.035L200.477 161.654L204.367 184.991L302.052 168.715L298.177 145.379L258.402 151.999Z" fill="white"/>
<path d="M262.906 179.106L262.478 180.444C262.335 180.866 262.081 181.242 261.742 181.531C261.403 181.821 260.993 182.013 260.554 182.089L247.857 184.215C247.415 184.287 246.963 184.237 246.548 184.069C246.133 183.902 245.772 183.624 245.504 183.265L244.649 182.142L204.955 188.829L213.201 238.403L310.86 222.141L302.614 172.513L262.906 179.106Z" fill="white"/>
<path d="M363.733 162.31L363.292 163.647C363.15 164.07 362.896 164.447 362.557 164.736C362.218 165.026 361.807 165.218 361.367 165.292L348.684 167.405C348.241 167.481 347.787 167.434 347.37 167.269C346.952 167.104 346.589 166.827 346.318 166.469L345.476 165.345L305.768 172.032L314.081 221.539L411.647 205.264L403.401 155.69L363.733 162.31Z" fill="white"/>
<path d="M359.215 135.202L358.788 136.54C358.647 136.967 358.392 137.347 358.05 137.64C357.708 137.932 357.293 138.125 356.85 138.198L344.166 140.311C343.726 140.386 343.274 140.338 342.859 140.173C342.444 140.008 342.082 139.732 341.814 139.375L340.958 138.251L301.264 144.871L305.14 168.207L402.812 151.932L398.923 128.596L359.215 135.202Z" fill="white"/>
</g>
<path d="M208.791 408.429L201.801 415.303L187.313 399.99L194.289 393.117L208.791 408.429Z" fill="#EBB376"/>
<path opacity="0.2" d="M194.289 393.117L187.313 399.99L194.797 407.881L201.774 401.007L194.289 393.117Z" fill="black"/>
<path d="M198.259 413.23L206.625 405.393C206.762 405.265 206.939 405.188 207.126 405.173C207.313 405.159 207.499 405.208 207.654 405.313L214.765 410.181C214.92 410.281 215.053 410.413 215.155 410.567C215.257 410.721 215.325 410.895 215.357 411.077C215.388 411.259 215.381 411.446 215.337 411.626C215.293 411.805 215.212 411.973 215.099 412.12C215.043 412.205 214.976 412.281 214.898 412.347C212.145 414.848 210.02 416.52 206.625 419.702C204.527 421.668 198.419 427.807 195.532 430.508C192.645 433.209 189.585 430.722 190.52 429.344C194.744 423.22 197.203 417.87 197.51 414.754C197.56 414.17 197.827 413.626 198.259 413.23Z" fill="#263238"/>
<path d="M198.967 395.724L188.275 407.6C188.275 407.6 132.85 357.45 118.308 336.455C116.588 333.877 115.289 331.042 114.459 328.056C106.975 303.169 118.789 257.954 118.789 257.954L118.977 252.07L119.484 235.474L155.878 240.823C155.878 240.823 155.21 245.21 154.22 251.91C152.47 263.839 149.743 283.109 148.126 297.94C146.977 308.358 146.375 316.582 147.03 318.535C149.102 324.793 198.967 395.724 198.967 395.724Z" fill="#263238"/>
<path opacity="0.2" d="M154.167 251.896C152.416 263.825 149.69 283.096 148.072 297.927L114.406 328.056C106.921 303.169 118.736 257.954 118.736 257.954L118.923 252.07C125.739 249.65 132.008 247.804 132.008 247.804L151.761 243.859L154.167 251.896Z" fill="black"/>
<path d="M100.64 163.152C91.5114 170.534 108.004 195.809 108.004 195.809L122.171 188.133C122.171 188.133 111.719 154.125 100.64 163.152Z" fill="#5A8BB7"/>
<path opacity="0.5" d="M100.64 163.152C91.5114 170.534 108.004 195.809 108.004 195.809L122.171 188.133C122.171 188.133 111.719 154.125 100.64 163.152Z" fill="white"/>
<path d="M197.109 416.52C196.685 417.002 196.102 417.315 195.465 417.402C195.241 417.416 195.017 417.373 194.814 417.277C194.611 417.181 194.435 417.036 194.303 416.854C194.212 416.76 194.149 416.643 194.123 416.514C194.097 416.386 194.109 416.254 194.156 416.132C194.557 415.022 198.058 414.313 198.446 414.233C198.489 414.221 198.534 414.224 198.576 414.241C198.617 414.258 198.651 414.288 198.673 414.326C198.697 414.365 198.709 414.409 198.709 414.454C198.709 414.498 198.697 414.542 198.673 414.581C198.224 415.282 197.699 415.932 197.109 416.52ZM194.757 416.052C194.677 416.113 194.616 416.197 194.583 416.292C194.583 416.292 194.583 416.439 194.664 416.587C194.751 416.706 194.865 416.803 194.998 416.868C195.131 416.933 195.278 416.965 195.425 416.961C196.524 416.591 197.442 415.816 197.991 414.795C196.841 414.997 195.742 415.424 194.757 416.052Z" fill="#5A8BB7"/>
<path d="M198.646 414.567L198.566 414.647C197.497 414.928 194.704 414.647 194.169 413.832C194.078 413.69 194.04 413.521 194.062 413.355C194.084 413.188 194.165 413.035 194.289 412.922C194.396 412.79 194.53 412.682 194.682 412.606C194.835 412.53 195.001 412.487 195.171 412.481C196.575 412.374 198.606 414.206 198.7 414.3C198.719 414.332 198.728 414.369 198.728 414.407C198.728 414.444 198.719 414.481 198.7 414.514C198.686 414.536 198.668 414.554 198.646 414.567ZM194.637 413.069L194.557 413.15C194.343 413.337 194.436 413.484 194.476 413.537C194.81 414.059 196.748 414.393 197.965 414.26C197.178 413.537 196.189 413.07 195.131 412.922C194.952 412.929 194.781 413.001 194.65 413.123L194.637 413.069Z" fill="#5A8BB7"/>
<path d="M190.788 411.679L203.979 395.042L199.542 391.244L185.562 408.255L190.788 411.679Z" fill="#5A8BB7"/>
<path opacity="0.6" d="M190.788 411.679L203.979 395.042L199.542 391.244L185.562 408.255L190.788 411.679Z" fill="white"/>
<path d="M110.69 420.639L101.508 422.818L95.6812 401.729L104.876 399.536L110.69 420.639Z" fill="#EBB376"/>
<path opacity="0.2" d="M104.876 399.549L95.6946 401.742L98.7017 412.615L107.884 410.421L104.876 399.549Z" fill="black"/>
<path d="M100.025 420.104H111.492C111.68 420.106 111.862 420.171 112.008 420.291C112.154 420.41 112.255 420.575 112.294 420.759L114.152 429.157C114.199 429.337 114.208 429.524 114.179 429.707C114.15 429.891 114.083 430.066 113.982 430.222C113.882 430.378 113.75 430.511 113.595 430.613C113.44 430.716 113.266 430.784 113.083 430.816H112.775C109.06 430.816 106.36 430.521 101.709 430.521C98.8354 430.521 90.1881 430.829 86.2321 430.829C82.276 430.829 81.7547 426.911 83.3719 426.549C90.6426 424.971 96.1089 422.765 98.4478 420.679C98.8816 420.294 99.4453 420.088 100.025 420.104Z" fill="#263238"/>
<path d="M96.9108 421.762C96.2678 421.813 95.6266 421.643 95.0931 421.28C94.9199 421.136 94.7862 420.949 94.7044 420.739C94.6226 420.528 94.5954 420.301 94.6253 420.077C94.6254 419.948 94.6618 419.822 94.7303 419.713C94.7989 419.604 94.8969 419.517 95.0129 419.462C96.0554 418.913 99.1027 420.799 99.4368 421.013C99.4752 421.032 99.5064 421.064 99.5256 421.102C99.5449 421.141 99.5512 421.185 99.5437 421.227C99.5378 421.27 99.5195 421.311 99.4911 421.344C99.4626 421.377 99.4252 421.402 99.3833 421.414C98.5748 421.622 97.7454 421.739 96.9108 421.762ZM95.5074 419.809C95.4112 419.783 95.3096 419.783 95.2134 419.809C95.2134 419.809 95.0797 419.903 95.0664 420.077C95.051 420.225 95.0708 420.375 95.1242 420.515C95.1776 420.654 95.2631 420.779 95.3738 420.879C96.4291 421.362 97.6289 421.425 98.7284 421.053C97.7474 420.43 96.6527 420.007 95.5074 419.809Z" fill="#5A8BB7"/>
<path d="M99.3166 421.428H99.2097C98.234 420.906 96.3495 418.82 96.5366 417.83C96.5706 417.664 96.661 417.514 96.7925 417.407C96.9241 417.3 97.0887 417.241 97.2584 417.242C97.4274 417.218 97.5997 417.23 97.7634 417.279C97.9271 417.327 98.0785 417.41 98.2073 417.523C99.2899 418.419 99.5438 421.133 99.5438 421.254C99.5449 421.295 99.5357 421.337 99.5171 421.374C99.4984 421.411 99.4709 421.444 99.4369 421.468L99.3166 421.428ZM97.4187 417.603H97.3118C97.0311 417.603 97.0044 417.763 96.9911 417.83C96.8708 418.432 98.0736 420.01 99.0493 420.746C98.9863 419.669 98.5944 418.637 97.9266 417.79C97.7859 417.668 97.6052 417.601 97.4187 417.603Z" fill="#5A8BB7"/>
<path d="M168.134 220.51C168.134 220.51 174.816 231.208 172.918 251.188C170.646 274.256 103.607 311.567 102.003 314.951C100.399 318.334 109.394 406.209 109.394 406.209L92.8745 407.546C92.8745 407.546 62.2282 328.832 71.3967 304.092C80.5652 279.351 132.008 247.751 132.008 247.751L119.431 235.421L168.134 220.51Z" fill="#263238"/>
<path d="M100.64 163.152C100.64 163.152 116.344 149.084 152.844 152.855C152.844 152.855 159.005 195.716 166.543 215.401L117.466 228.948C117.466 228.948 100.239 186.208 100.64 163.152Z" fill="#5A8BB7"/>
<path opacity="0.6" d="M166.543 215.307L117.466 228.948C117.466 228.948 100.239 186.208 100.64 163.152C100.64 163.152 116.344 149.084 152.844 152.855C152.844 152.855 153.993 160.879 155.905 171.47C157.241 179.093 159.019 188.066 161.023 196.478C162.468 202.864 164.312 209.153 166.543 215.307Z" fill="white"/>
<path d="M165.955 215.12L117.065 229.376L119.431 235.474L168.134 220.51L165.955 215.12Z" fill="black"/>
<path d="M128.038 228.226L129.134 231.061C129.345 231.614 129.757 232.067 130.287 232.329C130.817 232.592 131.427 232.645 131.994 232.479L136.592 231.141H136.779C137.328 230.925 137.779 230.516 138.049 229.991C138.194 229.695 138.276 229.373 138.289 229.043C138.303 228.714 138.249 228.386 138.129 228.079L137.033 225.244C136.822 224.688 136.408 224.233 135.875 223.97C135.342 223.707 134.729 223.655 134.16 223.826L129.575 225.163C129.261 225.256 128.969 225.413 128.719 225.624C128.468 225.835 128.264 226.096 128.12 226.39C127.975 226.684 127.893 227.005 127.879 227.333C127.865 227.66 127.919 227.987 128.038 228.293V228.226ZM130.27 230.62L129.909 229.684H129.976L131.246 229.296C131.451 229.231 131.624 229.088 131.726 228.899C131.828 228.709 131.853 228.487 131.794 228.279C131.729 228.074 131.586 227.903 131.396 227.803C131.206 227.703 130.984 227.682 130.778 227.744L129.508 228.132C129.447 228.151 129.389 228.178 129.335 228.213L129.174 227.785C129.108 227.64 129.074 227.482 129.074 227.323C129.074 227.164 129.108 227.007 129.174 226.862C129.297 226.605 129.511 226.404 129.776 226.3H129.883L134.467 224.963C134.735 224.892 135.019 224.922 135.266 225.048C135.512 225.174 135.704 225.386 135.803 225.645L136.899 228.48C136.965 228.625 137 228.782 137 228.941C137 229.101 136.965 229.258 136.899 229.403C136.83 229.547 136.732 229.676 136.61 229.779C136.487 229.883 136.345 229.96 136.191 230.004L131.593 231.342C131.323 231.404 131.039 231.365 130.795 231.232C130.551 231.099 130.364 230.881 130.27 230.62Z" fill="white"/>
<path opacity="0.2" d="M133.197 152.454C130.397 153.032 127.501 152.948 124.739 152.207C121.978 151.467 119.428 150.09 117.293 148.188C116.889 147.41 116.443 146.656 115.956 145.928L124.884 131.057C125.726 137.516 128.105 148.549 133.197 152.454Z" fill="black"/>
<path d="M133.157 112.709C133.157 112.709 138.57 124.745 133.264 131.431C127.958 138.118 121.449 114.795 121.449 114.795L133.157 112.709Z" fill="#263238"/>
<path d="M116.758 146.743C118.727 148.415 121.19 149.394 123.769 149.53C126.347 149.665 128.899 148.949 131.032 147.492C133.83 145.664 135.828 142.838 136.619 139.589C136.726 139.147 136.806 138.679 136.886 138.251C138.009 129.679 135.309 115.999 125.806 113.244C122.559 112.281 119.063 112.647 116.086 114.262C113.109 115.877 110.894 118.608 109.928 121.856C109.344 123.78 109.229 125.816 109.594 127.794C111.105 136.994 111.559 142.491 116.758 146.743Z" fill="#EBB376"/>
<path d="M115.208 115.45L116.33 119.462C115.701 119.893 115.256 120.542 115.08 121.284C114.905 122.026 115.012 122.807 115.381 123.474C117.212 126.71 116.09 132.314 113.778 134.841C113.778 134.841 113.47 133.37 112.281 133.905C111.091 134.44 112.601 142.13 115.609 145.446C115.609 145.446 111.399 142.678 108.084 134.868C105.01 127.66 103.807 121.495 104.916 118.299L115.208 115.45Z" fill="#263238"/>
<path d="M106.32 135.804C106.939 136.796 107.747 137.655 108.699 138.332C109.651 139.009 110.728 139.491 111.867 139.749C114.9 140.431 116.264 137.676 115.288 134.881C114.393 132.407 111.746 128.984 108.752 129.532C108.099 129.669 107.489 129.967 106.98 130.399C106.47 130.832 106.077 131.385 105.835 132.008C105.594 132.631 105.511 133.304 105.596 133.968C105.681 134.631 105.93 135.262 106.32 135.804Z" fill="#EBB376"/>
<path d="M116.277 119.449C116.277 119.449 120.955 121.441 122.265 120.024C123.574 118.606 121.743 117.189 121.743 117.189C121.743 117.189 128.172 119.623 130.765 118.807C133.358 117.991 130.404 114.795 130.404 114.795C130.404 114.795 135.322 119.81 136.886 117.817C137.648 116.854 136.792 109.874 127.45 107.614C118.108 105.354 109.755 109.579 107.937 113.083C106.397 113.638 105.088 114.696 104.223 116.086C103.357 117.477 102.985 119.118 103.166 120.746C104.021 128.382 116.277 119.449 116.277 119.449Z" fill="#263238"/>
<path d="M92.0459 412.334L111.84 407.626L110.436 401.702L89.8005 406.209L92.0459 412.334Z" fill="#5A8BB7"/>
<path opacity="0.6" d="M92.0459 412.334L111.84 407.626L110.436 401.702L89.8005 406.209L92.0459 412.334Z" fill="white"/>
<path opacity="0.2" d="M161.023 196.425C153.486 187.558 148.808 170.869 148.901 168.194C148.901 168.194 151.828 169.397 155.905 171.417C157.268 179.04 159.045 188.013 161.023 196.425Z" fill="black"/>
<path d="M158.083 158.124L159.005 159.461C162.694 165.024 176.46 185.739 179.534 190.219C183.076 195.448 195.96 233.375 195.96 233.375L190.507 237.012C190.507 237.012 176.019 201.653 173.667 197.642C171.315 193.63 158.631 178.344 158.631 178.344" fill="#EBB376"/>
<path d="M154.541 152.828C160.582 155.235 172.063 174.346 172.063 174.346L163.416 186.823L155.33 182.383C151.302 177.436 148.902 171.363 148.46 164.998C147.525 153.992 154.541 152.828 154.541 152.828Z" fill="#5A8BB7"/>
<path opacity="0.6" d="M154.541 152.828C160.582 155.235 172.063 174.346 172.063 174.346L163.416 186.823L155.33 182.383C151.302 177.436 148.902 171.363 148.46 164.998C147.525 153.992 154.541 152.828 154.541 152.828Z" fill="white"/>
<path d="M194.062 232.572C195.454 232.276 196.893 232.276 198.285 232.572C200.584 233.107 206.893 245.103 206.893 245.103C206.893 245.103 198.753 250.452 195.96 248.62C193.167 246.788 187.754 239.085 189.852 235.474C191.95 231.863 194.062 232.572 194.062 232.572Z" fill="#EBB376"/>
<path d="M109.394 178.678L132.516 176.672L140.08 206.281L118.095 209.958L109.394 178.678Z" fill="#5A8BB7"/>
<path opacity="0.2" d="M115.782 184.335L135.79 182.931L142.392 208.848L122.692 211.978L115.782 184.335Z" fill="black"/>
</g>
<defs>
<clipPath id="clip0_109_1673">
<rect width="560" height="448" fill="white"/>
</clipPath>
</defs>
</svg>
