<svg width="467" height="487" viewBox="0 0 467 487" fill="none" xmlns="http://www.w3.org/2000/svg">
<g clip-path="url(#clip0_356_20)">
<path d="M419.073 336.356L434.096 336.041L441.501 335.906C443.965 335.906 446.418 335.906 448.871 335.85L448.365 336.356L448.309 323.771L448.871 324.333L433.972 324.254C428.999 324.254 424.036 324.131 419.073 324.074L419.377 323.771C419.377 325.829 419.276 327.898 419.231 329.99L419.073 336.356ZM419.073 336.356L418.905 330.125C418.905 328.022 418.781 325.896 418.758 323.771V323.467H419.073C424.036 323.467 428.999 323.287 433.972 323.287L448.871 323.22H449.434V323.793L449.366 336.379V336.874H448.871C446.362 336.874 443.841 336.874 441.332 336.817L433.837 336.682L419.073 336.356Z" fill="#EBEBEB"/>
<path d="M435.694 352.226L450.717 351.911L458.121 351.776C460.586 351.776 463.039 351.776 465.492 351.776L464.986 352.282V339.697L465.548 340.248L450.649 340.18C445.687 340.18 440.713 340.056 435.75 340L436.054 339.697C436.054 341.755 435.964 343.824 435.908 345.916L435.694 352.226ZM435.694 352.226L435.537 345.995C435.48 343.892 435.402 341.766 435.39 339.64V339.337H435.705C440.668 339.28 445.642 339.157 450.604 339.157L465.503 339.089H466.066V339.663L465.999 352.248V352.743H465.503C462.994 352.743 460.473 352.743 457.964 352.687L450.469 352.552L435.694 352.226Z" fill="#EBEBEB"/>
<path d="M276.678 226.213L291.712 225.898L299.116 225.775C301.581 225.718 304.023 225.775 306.476 225.707L305.981 226.213L305.913 213.628L306.476 214.19L291.577 214.123C286.614 214.123 281.652 213.988 276.678 213.931L276.993 213.628C276.993 215.686 276.892 217.755 276.835 219.859L276.678 226.213ZM276.678 226.213L276.52 219.982C276.52 217.89 276.397 215.765 276.374 213.628V213.324H276.678C281.652 213.257 286.614 213.144 291.577 213.133L306.476 213.065H307.05V213.628L306.993 226.213V226.719H306.487C303.978 226.719 301.457 226.719 298.959 226.719L291.464 226.596L276.678 226.213Z" fill="#EBEBEB"/>
<path d="M293.298 242.083L308.332 241.813L315.737 241.689C318.201 241.689 320.643 241.689 323.096 241.622L322.601 242.128L322.545 229.542L323.096 230.105L308.197 230.037C303.235 230.037 298.272 229.902 293.298 229.846L293.614 229.542C293.614 231.601 293.512 233.67 293.467 235.762L293.298 242.083ZM293.298 242.083L293.141 235.852C293.141 233.76 293.017 231.634 292.995 229.497V229.194H293.298C298.272 229.126 303.235 229.014 308.197 229.003L323.096 228.935H323.67V229.497L323.614 242.083V242.589H323.108C320.598 242.589 318.089 242.589 315.579 242.533L308.085 242.409L293.298 242.083Z" fill="#EBEBEB"/>
<path d="M309.863 226.213L324.886 225.898L332.29 225.775C334.755 225.718 337.208 225.775 339.661 225.707L339.155 226.213L339.098 213.628L339.661 214.19L324.762 214.123C319.788 214.123 314.825 213.988 309.863 213.931L310.167 213.628C310.167 215.686 310.077 217.755 310.02 219.859L309.863 226.213ZM309.863 226.213L309.705 219.982C309.649 217.89 309.57 215.765 309.559 213.628V213.324H309.874C314.837 213.257 319.799 213.144 324.773 213.133L339.672 213.065H340.235V213.628L340.167 226.213V226.719H339.672C337.163 226.719 334.642 226.719 332.133 226.719L324.638 226.596L309.863 226.213Z" fill="#EBEBEB"/>
<path d="M7.1344 352.226L22.1684 351.911L29.5729 351.776C32.0261 351.776 34.4792 351.776 36.9324 351.776L36.4372 352.282L36.3697 339.663L36.9324 340.214L22.0334 340.146C17.0708 340.146 12.097 340.023 7.1344 339.967L7.43823 339.663C7.43823 341.721 7.3482 343.791 7.29194 345.882L7.1344 352.226ZM7.1344 352.226L6.97686 345.995C6.92059 343.892 6.85307 341.766 6.83057 339.64V339.337H7.1344C12.097 339.28 17.0708 339.157 22.0334 339.157L36.9324 339.089H37.495V339.663V352.248V352.743H36.9886C34.4792 352.743 31.9585 352.743 29.4604 352.687L21.9659 352.552L7.1344 352.226Z" fill="#EBEBEB"/>
<path d="M23.7552 44.4149L38.7892 44.1L46.1937 43.9762C48.6581 43.9762 51.1 43.9762 53.5532 43.9088L53.058 44.4149L52.9905 31.8294L53.5532 32.3917L38.6542 32.313C33.6916 32.313 28.729 32.1893 23.7552 32.133L24.0703 31.8294C24.0703 33.8876 23.969 35.9571 23.9127 38.049L23.7552 44.4149ZM23.7552 44.4149L23.6314 38.2402C23.6314 36.137 23.5076 34.0225 23.4851 31.8856V31.4919H23.7889C28.7628 31.4357 33.7253 31.312 38.6879 31.312L53.5869 31.2445H54.1608V31.8181V44.4036V44.9098H53.6544C51.145 44.9098 48.6243 44.9097 46.1262 44.8535L38.6317 44.7186L23.7552 44.4149Z" fill="#EBEBEB"/>
<path d="M7.1344 60.2846L22.1684 59.9697L29.5729 59.8459C32.0261 59.8459 34.4792 59.8459 36.9324 59.7785L36.4372 60.2846L36.3697 47.6991L36.9324 48.2614L22.0334 48.1827C17.0708 48.1827 12.097 48.059 7.1344 48.0027L7.43823 47.6991C7.43823 49.7573 7.3482 51.8268 7.29194 53.9187L7.1344 60.2846ZM7.1344 60.2846L6.97686 54.0537C6.92059 51.9505 6.85307 49.8248 6.83057 47.6991V47.3954H7.1344C12.097 47.3954 17.0708 47.2154 22.0334 47.2154L36.9324 47.1479H37.495V47.7216V60.3071V60.8132H36.9886C34.4792 60.8132 31.9585 60.8132 29.4604 60.757L21.9659 60.622L7.1344 60.2846Z" fill="#EBEBEB"/>
<path d="M368.592 295.034H359.579V417.403H329.364V295.034H320.373L344.477 268.581L368.592 295.034Z" fill="#EBEBEB"/>
<path d="M423.957 252.127H414.944V417.403H384.729V252.127H375.738L399.842 225.673L423.957 252.127Z" fill="#EBEBEB"/>
<path d="M317.538 342.227H308.524V417.403H278.31V342.227H269.318L293.434 315.774L317.538 342.227Z" fill="#EBEBEB"/>
<path d="M236.313 487.382C363.712 487.382 466.989 479.869 466.989 470.602C466.989 461.334 363.712 453.821 236.313 453.821C108.915 453.821 5.6377 461.334 5.6377 470.602C5.6377 479.869 108.915 487.382 236.313 487.382Z" fill="#EBEBEB"/>
<path d="M0.326416 417.482L59.326 417.2L118.314 417.099L236.313 416.919L354.312 417.099L413.301 417.2L472.3 417.482L413.301 417.751L354.312 417.853L236.313 418.033L118.314 417.853L59.326 417.751L0.326416 417.482Z" fill="#263238"/>
<path d="M220.559 38.9037H53.2155C48.6928 38.9572 44.3759 40.8011 41.2116 44.0312C38.0473 47.2614 36.2939 51.6139 36.3359 56.1343V400.397C36.2969 404.917 38.0513 409.268 41.2149 412.497C44.3786 415.727 48.6937 417.571 53.2155 417.628H220.559C225.08 417.568 229.393 415.723 232.556 412.494C235.719 409.265 237.475 404.916 237.439 400.397V56.1343C237.478 51.6148 235.723 47.2639 232.56 44.0345C229.396 40.805 225.081 38.9601 220.559 38.9037ZM226.917 389.735C226.917 398.8 220.165 406.122 211.759 406.122H62.0941C53.7106 406.122 46.9138 398.8 46.9138 389.735V69.1922C46.9138 50.7357 53.6656 49.8359 62.0941 49.8359H92.0721C93.8163 49.8359 95.2455 51.8154 95.2455 54.2673V55.3245C95.2455 61.0718 98.3963 61.0943 102.256 61.0943H171.597C175.502 61.0943 178.619 61.0943 178.619 55.3245V54.2673C178.619 51.8154 180.026 49.8359 181.792 49.8359H211.782C220.154 49.8359 226.939 52.2878 226.939 69.1922L226.917 389.735Z" fill="#263238"/>
<path d="M146.289 53.8962H127.418C127.119 53.8962 126.833 53.7777 126.622 53.5667C126.411 53.3558 126.292 53.0697 126.292 52.7714C126.292 52.4731 126.411 52.1871 126.622 51.9761C126.833 51.7652 127.119 51.6467 127.418 51.6467H146.289C146.588 51.6467 146.874 51.7652 147.085 51.9761C147.296 52.1871 147.414 52.4731 147.414 52.7714C147.414 53.0697 147.296 53.3558 147.085 53.5667C146.874 53.7777 146.588 53.8962 146.289 53.8962Z" fill="white"/>
<path d="M227.277 64.3447V384.887C227.277 393.953 220.525 401.274 212.108 401.274H62.443C54.0483 401.274 47.2627 393.953 47.2627 384.887V64.3447C47.2627 45.8882 54.0145 44.9885 62.443 44.9885H92.421C94.154 44.9885 95.5831 46.968 95.5831 49.4198V50.4771C95.5831 56.2243 98.734 56.2468 102.605 56.2468H171.935C175.84 56.2468 178.957 56.2468 178.957 50.4771V49.4198C178.957 46.968 180.363 44.9885 182.13 44.9885H212.119C220.48 44.9885 227.277 47.4403 227.277 64.3447Z" fill="white"/>
<path d="M86.8507 57.0228L86.5581 57.304L86.4006 57.4727C86.0331 57.1 85.5951 56.804 85.1122 56.602C84.6292 56.4 84.1109 56.296 83.5873 56.296C83.0638 56.296 82.5454 56.4 82.0625 56.602C81.5795 56.804 81.1416 57.1 80.7741 57.4727L80.6165 57.3152L80.3352 57.0228L80.7066 56.6967C80.965 56.4832 81.2484 56.3019 81.5505 56.1568C81.9068 55.9794 82.2853 55.8508 82.6758 55.7744C82.8559 55.7744 83.0472 55.7744 83.2385 55.7069H83.7224C83.8574 55.7069 83.9812 55.7069 84.105 55.7069C84.458 55.7456 84.8054 55.8248 85.1402 55.9431C85.38 56.0358 85.6131 56.1447 85.8379 56.2693C86.0731 56.4063 86.2953 56.5644 86.5019 56.7416L86.8057 57.0116L86.8507 57.0228Z" fill="#C7C7C7"/>
<path d="M81.7307 58.3837L81.2693 57.9338C81.7682 57.4202 82.4268 57.0911 83.1373 57.0003C83.644 56.9242 84.1614 56.968 84.6481 57.1282C85.1347 57.2884 85.577 57.5605 85.9393 57.9226L85.4779 58.3837C85.2322 58.1372 84.9402 57.9415 84.6187 57.808C84.2972 57.6746 83.9524 57.6059 83.6043 57.6059C83.2561 57.6059 82.9114 57.6746 82.5899 57.808C82.2683 57.9415 81.9764 58.1372 81.7307 58.3837Z" fill="#C7C7C7"/>
<path d="M85.0164 58.8449C84.8701 58.9911 84.7126 59.1373 84.5663 59.2948C84.3096 59.0427 83.964 58.9014 83.6041 58.9014C83.2442 58.9014 82.8987 59.0427 82.642 59.2948L82.1919 58.8449C82.3754 58.6561 82.595 58.5061 82.8375 58.4036C83.0801 58.3011 83.3408 58.2484 83.6041 58.2484C83.8675 58.2484 84.1282 58.3011 84.3707 58.4036C84.6133 58.5061 84.8329 58.6561 85.0164 58.8449Z" fill="#C7C7C7"/>
<path d="M84.0148 59.7109C83.9987 59.8081 83.9485 59.8964 83.8733 59.9602C83.7981 60.0239 83.7027 60.0588 83.6041 60.0588C83.5055 60.0588 83.4101 60.0239 83.3349 59.9602C83.2597 59.8964 83.2095 59.8081 83.1934 59.7109C83.1835 59.6513 83.1867 59.5902 83.2027 59.532C83.2188 59.4738 83.2474 59.4197 83.2865 59.3736C83.3256 59.3275 83.3742 59.2905 83.4291 59.2651C83.4839 59.2397 83.5437 59.2266 83.6041 59.2266C83.6646 59.2266 83.7243 59.2397 83.7791 59.2651C83.834 59.2905 83.8826 59.3275 83.9217 59.3736C83.9608 59.4197 83.9894 59.4738 84.0055 59.532C84.0215 59.5902 84.0247 59.6513 84.0148 59.7109Z" fill="#C7C7C7"/>
<path d="M58.6057 57.9001C58.6057 57.584 58.7314 57.2807 58.9551 57.0571C59.1788 56.8336 59.4822 56.7079 59.7985 56.7079C60.1149 56.7079 60.4183 56.8336 60.642 57.0571C60.8657 57.2807 60.9913 57.584 60.9913 57.9001C60.9913 58.2163 60.8657 58.5196 60.642 58.7431C60.4183 58.9667 60.1149 59.0923 59.7985 59.0923C59.4822 59.0923 59.1788 58.9667 58.9551 58.7431C58.7314 58.5196 58.6057 58.2163 58.6057 57.9001Z" fill="#C7C7C7"/>
<path d="M62.3643 57.9001C62.3643 57.584 62.4899 57.2807 62.7136 57.0571C62.9373 56.8336 63.2407 56.7079 63.5571 56.7079C63.8734 56.7079 64.1768 56.8336 64.4005 57.0571C64.6242 57.2807 64.7499 57.584 64.7499 57.9001C64.7499 58.2163 64.6242 58.5196 64.4005 58.7431C64.1768 58.9667 63.8734 59.0923 63.5571 59.0923C63.2407 59.0923 62.9373 58.9667 62.7136 58.7431C62.4899 58.5196 62.3643 58.2163 62.3643 57.9001Z" fill="#C7C7C7"/>
<path d="M67.3041 59.0923C67.9629 59.0923 68.497 58.5586 68.497 57.9001C68.497 57.2417 67.9629 56.7079 67.3041 56.7079C66.6454 56.7079 66.1113 57.2417 66.1113 57.9001C66.1113 58.5586 66.6454 59.0923 67.3041 59.0923Z" fill="#C7C7C7"/>
<path d="M69.8699 57.9001C69.8699 57.6644 69.9398 57.4339 70.0709 57.2378C70.202 57.0417 70.3883 56.8889 70.6062 56.7987C70.8242 56.7085 71.064 56.6849 71.2954 56.7309C71.5268 56.7769 71.7393 56.8904 71.9062 57.0571C72.073 57.2239 72.1866 57.4363 72.2326 57.6676C72.2786 57.8988 72.255 58.1385 72.1647 58.3564C72.0744 58.5742 71.9216 58.7604 71.7254 58.8914C71.5292 59.0224 71.2986 59.0923 71.0627 59.0923C70.9061 59.0923 70.7509 59.0615 70.6062 59.0016C70.4615 58.9417 70.33 58.8539 70.2192 58.7431C70.1085 58.6324 70.0206 58.501 69.9607 58.3564C69.9007 58.2117 69.8699 58.0567 69.8699 57.9001Z" fill="#C7C7C7"/>
<path d="M73.6284 57.9001C73.6284 57.6644 73.6984 57.4339 73.8294 57.2378C73.9605 57.0417 74.1468 56.8889 74.3648 56.7987C74.5827 56.7085 74.8226 56.6849 75.0539 56.7309C75.2853 56.7769 75.4979 56.8904 75.6647 57.0571C75.8315 57.2239 75.9451 57.4363 75.9911 57.6676C76.0372 57.8988 76.0135 58.1385 75.9233 58.3564C75.833 58.5742 75.6801 58.7604 75.4839 58.8914C75.2878 59.0224 75.0572 59.0923 74.8212 59.0923C74.6646 59.0923 74.5095 59.0615 74.3648 59.0016C74.22 58.9417 74.0885 58.8539 73.9778 58.7431C73.867 58.6324 73.7792 58.501 73.7192 58.3564C73.6593 58.2117 73.6284 58.0567 73.6284 57.9001Z" fill="#C7C7C7"/>
<path d="M213.391 60.5095H203.679V56.0106H213.402L213.391 60.5095ZM204.175 60.0033H212.884V56.5055H204.175V60.0033Z" fill="#C7C7C7"/>
<path d="M210.735 56.7642H204.479V59.7334H210.735V56.7642Z" fill="#C7C7C7"/>
<path d="M214.257 57.0453H213.391V59.4522H214.257V57.0453Z" fill="#C7C7C7"/>
<path d="M287.109 384.37C287.109 384.37 283.677 432.035 283.666 432.069C283.666 441.404 283.745 449.592 284.206 453.821C284.201 453.843 284.201 453.866 284.206 453.889C284.205 454.891 284.436 455.88 284.881 456.779C284.881 456.779 284.881 456.779 284.938 456.835C287.706 458.736 362.336 461.334 364.969 460.502C367.602 459.67 365.565 452.145 362.718 449.738C359.871 447.331 331.761 433.587 331.761 433.587L334.732 385.945L287.109 384.37Z" fill="#F7A9A0"/>
<path d="M283.666 422.048C283.666 422.048 283.666 432.035 283.666 432.069C283.666 441.404 283.745 449.592 284.206 453.821C284.201 453.843 284.201 453.866 284.206 453.889C284.317 454.875 284.543 455.845 284.881 456.779C284.881 456.779 284.881 456.779 284.938 456.835C287.706 458.736 362.336 461.334 364.969 460.502C367.602 459.67 365.565 452.145 362.718 449.738C359.871 447.331 331.761 433.588 331.761 433.588L331.896 423.409L283.666 422.048Z" fill="white"/>
<path d="M364.98 460.502C362.336 461.289 287.717 458.736 284.938 456.835C283.88 456.127 283.61 445.24 283.677 432.092V431.687L331.84 432.811V433.632C331.84 433.632 359.973 447.376 362.797 449.795C365.622 452.213 367.614 459.726 364.98 460.502Z" fill="#5A8BB7"/>
<path d="M364.238 457.578C351.668 456.835 300.906 455.047 288.426 455.328C288.325 455.328 288.314 455.396 288.426 455.407C300.872 456.408 351.646 457.791 364.238 457.836C364.497 457.758 364.497 457.6 364.238 457.578Z" fill="#263238"/>
<path d="M335.835 433.869C330.917 432.744 324.841 433.329 320.936 436.726C320.778 436.861 320.936 437.074 321.139 437.029C325.91 435.665 330.815 434.816 335.767 434.499C335.851 434.508 335.935 434.483 336 434.43C336.066 434.378 336.107 434.301 336.116 434.217C336.125 434.134 336.101 434.05 336.048 433.985C335.995 433.919 335.919 433.878 335.835 433.869Z" fill="#263238"/>
<path d="M339.335 436.141C334.417 435.016 328.341 435.601 324.436 438.997C324.278 439.132 324.436 439.346 324.638 439.301C329.41 437.937 334.314 437.088 339.267 436.77C339.351 436.779 339.434 436.755 339.5 436.702C339.565 436.649 339.607 436.573 339.616 436.489C339.625 436.406 339.6 436.322 339.548 436.257C339.495 436.191 339.418 436.149 339.335 436.141Z" fill="#263238"/>
<path d="M342.834 438.424C337.917 437.299 331.84 437.884 327.936 441.269C327.778 441.404 327.936 441.618 328.138 441.573C332.91 440.209 337.814 439.36 342.767 439.042C342.842 439.039 342.913 439.009 342.968 438.957C343.023 438.906 343.057 438.837 343.066 438.762C343.074 438.687 343.055 438.612 343.012 438.55C342.97 438.488 342.907 438.443 342.834 438.424Z" fill="#263238"/>
<path d="M280.796 434.139L333.033 433.104C333.033 433.104 339.402 339.146 338.221 307.822C336.927 273.8 322.309 172.576 322.309 172.576H278.186C278.186 172.576 289.439 274.205 289.709 308.238C289.923 339.775 280.796 434.139 280.796 434.139Z" fill="#37474F"/>
<path d="M313.644 172.565L287.143 264.195C284.004 220.837 278.141 172.565 278.141 172.565H313.644Z" fill="#263238"/>
<path d="M286.569 177.547L289.371 207.768L291.96 238C293.625 258.166 295.2 278.344 296.404 298.543C296.697 303.593 296.877 308.666 296.798 313.75C296.72 318.833 296.483 323.872 296.236 328.933C295.703 339.048 295.05 349.144 294.278 359.222C293.505 369.299 292.691 379.384 291.836 389.476L289.011 419.697L291.262 389.431C292.012 379.339 292.721 369.25 293.389 359.165C294.03 349.043 294.717 338.977 295.178 328.877C295.414 323.827 295.605 318.755 295.696 313.738C295.786 308.722 295.549 303.616 295.245 298.611C294.12 278.422 292.545 258.245 291.071 238.079L286.569 177.547Z" fill="#263238"/>
<path d="M330.839 424.376C322.68 424.309 325.021 424.219 316.874 424.23C312.879 424.23 286.648 424.331 282.935 424.995C282.917 425.001 282.903 425.013 282.892 425.028C282.882 425.043 282.876 425.061 282.876 425.079C282.876 425.097 282.882 425.115 282.892 425.131C282.903 425.146 282.917 425.157 282.935 425.163C286.671 425.737 312.89 425.163 316.885 425.096C325.032 424.927 322.692 424.882 330.839 424.612C330.857 424.618 330.877 424.62 330.896 424.616C330.915 424.613 330.933 424.605 330.949 424.594C330.965 424.582 330.977 424.567 330.986 424.55C330.995 424.533 330.999 424.514 330.999 424.494C330.999 424.475 330.995 424.456 330.986 424.438C330.977 424.421 330.965 424.406 330.949 424.395C330.933 424.383 330.915 424.375 330.896 424.372C330.877 424.369 330.857 424.37 330.839 424.376Z" fill="#263238"/>
<path d="M202.194 358.783C202.194 358.783 176.999 399.722 176.976 399.745C172.892 408.147 169.448 415.57 167.974 419.585C167.968 419.603 167.968 419.623 167.974 419.641C167.54 420.546 167.32 421.539 167.333 422.543C167.333 422.543 167.333 422.599 167.333 422.61C169.009 425.523 235.143 460.176 237.855 460.603C240.567 461.03 242.019 453.337 240.522 449.952C239.025 446.567 219.637 421.969 219.637 421.969L244.393 380.85L202.194 358.783Z" fill="#F7A9A0"/>
<path d="M167.366 422.565C167.362 422.591 167.362 422.618 167.366 422.644C169.054 425.546 235.188 460.198 237.9 460.626C240.612 461.053 242.053 453.36 240.567 449.975C239.082 446.589 219.682 421.992 219.682 421.992L224.104 414.647C213.29 408.889 193.642 398.778 181.444 392.513C178.788 396.821 176.943 399.767 176.943 399.779C172.847 408.169 169.403 415.592 167.94 419.596C167.934 419.622 167.934 419.649 167.94 419.675C167.522 420.579 167.326 421.57 167.366 422.565Z" fill="white"/>
<path d="M237.911 460.626C235.199 460.198 169.065 425.557 167.389 422.633C166.725 421.508 171.215 411.611 176.988 399.779L177.168 399.408L220.087 421.283L219.693 421.992C219.693 421.992 239.07 446.567 240.578 449.975C242.086 453.382 240.623 461.064 237.911 460.626Z" fill="#5A8BB7"/>
<path d="M238.564 457.668C227.558 451.561 182.603 427.942 171.26 422.734C171.158 422.734 171.136 422.734 171.26 422.802C182.04 429.1 227.187 452.359 238.519 457.859C238.654 457.971 238.744 457.758 238.564 457.668Z" fill="#263238"/>
<path d="M223.204 424.016C219.254 420.901 213.526 418.753 208.575 420.125C208.383 420.181 208.462 420.451 208.575 420.485C213.478 421.326 218.277 422.691 222.889 424.556C222.959 424.586 223.038 424.59 223.111 424.566C223.184 424.541 223.246 424.492 223.285 424.425C223.323 424.359 223.336 424.281 223.322 424.205C223.307 424.13 223.265 424.063 223.204 424.016Z" fill="#263238"/>
<path d="M225.376 427.57C221.415 424.455 215.698 422.318 210.747 423.679C210.555 423.735 210.634 424.005 210.747 424.039C215.65 424.881 220.448 426.246 225.06 428.11C225.131 428.14 225.21 428.144 225.283 428.12C225.356 428.096 225.418 428.046 225.457 427.979C225.495 427.913 225.508 427.835 225.493 427.76C225.479 427.684 225.437 427.617 225.376 427.57Z" fill="#263238"/>
<path d="M227.536 431.136C223.586 428.02 217.858 425.883 212.907 427.244C212.716 427.3 212.795 427.57 212.907 427.604C217.81 428.445 222.609 429.81 227.221 431.676C227.292 431.706 227.371 431.709 227.444 431.685C227.517 431.661 227.578 431.611 227.617 431.545C227.656 431.478 227.669 431.4 227.654 431.325C227.639 431.25 227.597 431.182 227.536 431.136Z" fill="#263238"/>
<path d="M317.796 172.52C317.605 173.431 314.511 187.726 311.315 200.019C308.997 209.016 306.6 216.889 305.227 217.699C303.674 218.621 296.101 221.973 293.557 223.03C293.557 223.03 276.52 308.036 267.529 334.377C259.225 358.704 224.88 423.713 224.88 423.713L175.052 398.553C175.052 398.553 213.965 332.566 218.05 320.723C224.396 302.367 248.163 212.75 248.163 212.75C248.163 212.75 247.983 184.689 257.435 172.441L317.796 172.52Z" fill="#37474F"/>
<path d="M224.138 414.074C217.015 410.092 219.108 411.138 211.951 407.247C208.44 405.335 185.394 392.828 181.815 391.625C181.798 391.623 181.78 391.626 181.764 391.635C181.748 391.643 181.735 391.656 181.727 391.671C181.719 391.687 181.715 391.705 181.717 391.723C181.718 391.74 181.725 391.757 181.736 391.771C184.741 394.02 208.001 406.167 211.546 408.012C218.781 411.768 216.745 410.61 224.025 414.288C224.052 414.295 224.081 414.293 224.107 414.282C224.133 414.27 224.154 414.251 224.167 414.226C224.18 414.201 224.185 414.172 224.179 414.145C224.174 414.117 224.159 414.092 224.138 414.074Z" fill="#263238"/>
<path d="M260.935 205.024C262.297 204.675 263.759 204.563 265.155 204.338C266.28 204.158 267.405 203.966 268.531 203.719C270.665 203.338 272.688 202.485 274.45 201.222C276.374 199.726 277.364 197.454 278.287 195.261C278.85 193.968 279.412 192.674 279.997 191.392C280.279 190.762 280.56 190.144 280.853 189.525C281.243 188.795 281.592 188.044 281.899 187.276C281.899 187.163 282.113 187.22 282.068 187.276C281.88 187.806 281.722 188.347 281.595 188.895C281.404 189.514 281.224 190.144 281.033 190.774C280.684 191.898 280.346 193.023 279.986 194.148C279.431 196.189 278.634 198.156 277.612 200.007C275.553 203.28 271.873 204.596 268.193 205.069C267.147 205.204 266.078 205.271 265.02 205.339C263.683 205.457 262.339 205.457 261.002 205.339C260.97 205.33 260.941 205.313 260.917 205.289C260.894 205.265 260.878 205.235 260.871 205.202C260.864 205.169 260.866 205.135 260.878 205.104C260.889 205.072 260.909 205.045 260.935 205.024Z" fill="#263238"/>
<path d="M309.244 215.742C303.837 217.708 298.611 220.139 293.625 223.008C293.434 223.12 293.569 223.424 293.771 223.334C299.038 221.085 304.405 218.914 309.526 216.372C309.596 216.327 309.648 216.258 309.672 216.178C309.696 216.098 309.691 216.012 309.657 215.936C309.623 215.86 309.562 215.798 309.486 215.762C309.411 215.727 309.325 215.72 309.244 215.742Z" fill="#263238"/>
<path d="M310.831 179.729C310.831 179.538 310.493 179.504 310.505 179.729C310.505 185.971 310.144 191.471 309.616 197.297C309.368 200.007 307.196 214.977 302.492 213.886C301.705 213.706 301.311 212.93 301.187 211.738C301.199 210.189 301.407 208.647 301.806 207.149C302.324 204.023 302.751 200.874 303.01 197.713C303.563 191.803 303.499 185.851 302.819 179.954C302.819 179.915 302.803 179.878 302.776 179.85C302.748 179.823 302.711 179.808 302.672 179.808C302.634 179.808 302.596 179.823 302.569 179.85C302.542 179.878 302.526 179.915 302.526 179.954C302.66 188.125 302.179 196.295 301.086 204.394C300.501 208.285 298.543 214.156 302.616 214.752C306.69 215.349 309.447 205.541 309.953 202.853C311.249 195.216 311.544 187.442 310.831 179.729Z" fill="#263238"/>
<path d="M302.616 214.258C302.195 215.268 301.841 216.305 301.558 217.362C301.257 218.175 301.109 219.037 301.119 219.904C301.128 219.937 301.146 219.967 301.171 219.991C301.195 220.015 301.226 220.032 301.259 220.04C301.293 220.048 301.328 220.047 301.36 220.037C301.393 220.027 301.423 220.008 301.446 219.982C301.944 219.215 302.323 218.377 302.571 217.497C302.931 216.541 303.314 215.585 303.64 214.618C303.664 214.55 303.674 214.479 303.67 214.408C303.666 214.337 303.648 214.267 303.617 214.203C303.587 214.139 303.543 214.081 303.49 214.034C303.437 213.986 303.375 213.949 303.308 213.926C303.241 213.902 303.17 213.892 303.099 213.896C303.027 213.9 302.958 213.918 302.893 213.948C302.829 213.979 302.772 214.022 302.724 214.075C302.676 214.128 302.64 214.19 302.616 214.258Z" fill="#263238"/>
<path d="M188.488 390.354C195.578 377.015 202.892 363.788 210.229 350.573C213.852 344.061 217.622 337.627 221.077 331.025C224.323 324.484 226.96 317.658 228.954 310.634C233.343 296.388 237.499 282.066 241.422 267.67C245.346 253.274 249.029 238.821 252.473 224.313C253.339 220.68 254.285 217.058 254.982 213.392C255.607 209.691 255.607 205.912 254.982 202.212C254.446 198.767 254.416 195.262 254.892 191.808C255.449 188.377 256.265 184.994 257.334 181.686C257.885 179.943 258.459 178.199 259.078 176.467C259.097 176.435 259.126 176.409 259.161 176.395C259.196 176.381 259.235 176.379 259.271 176.389C259.307 176.399 259.339 176.422 259.361 176.452C259.383 176.483 259.395 176.52 259.393 176.557C257.244 183.587 255.038 190.684 255.5 198.129C255.725 201.706 256.625 205.215 256.625 208.814C256.393 212.388 255.786 215.928 254.813 219.375C251.43 233.974 247.792 248.509 243.898 262.98C240.004 277.451 235.878 291.859 231.52 306.203C229.404 313.176 227.424 320.262 224.43 326.92C221.437 333.578 217.611 339.888 214.033 346.254C206.628 359.413 199.167 372.538 191.526 385.619C190.559 387.276 189.583 388.921 188.601 390.556C188.589 390.567 188.432 390.466 188.488 390.354Z" fill="#263238"/>
<path d="M364.485 60.5771L356.406 91.5516C356.313 91.7244 356.268 91.9183 356.274 92.1141C356.28 92.3098 356.337 92.5006 356.439 92.6677C356.541 92.8347 356.686 92.9721 356.857 93.0663C357.029 93.1606 357.222 93.2083 357.418 93.2049L373.443 93.3287C373.934 93.3003 374.408 93.1316 374.807 92.8426C375.206 92.5535 375.513 92.1562 375.693 91.6978L383.728 60.7345C384.065 59.8235 383.615 59.0812 382.715 59.0699L366.691 58.9462C366.207 58.9829 365.743 59.1554 365.353 59.4439C364.963 59.7324 364.662 60.1252 364.485 60.5771Z" fill="#A6A6A6"/>
<path d="M366.387 60.577L358.307 91.5403C357.97 92.4514 358.42 93.1937 359.32 93.2049L375.344 93.3286C375.836 93.3003 376.31 93.1316 376.709 92.8425C377.108 92.5535 377.415 92.1562 377.595 91.6978L385.652 60.7345C385.744 60.5617 385.79 60.3678 385.784 60.172C385.778 59.9763 385.721 59.7855 385.619 59.6185C385.516 59.4514 385.372 59.314 385.201 59.2198C385.029 59.1255 384.835 59.0778 384.639 59.0812L368.615 58.9575C368.129 58.989 367.661 59.158 367.266 59.4447C366.872 59.7314 366.567 60.124 366.387 60.577Z" fill="#DBDBDB"/>
<path d="M370.764 62.0279C370.755 62.2968 370.667 62.5571 370.51 62.7757C370.353 62.9943 370.135 63.1615 369.882 63.2561C369.63 63.3508 369.356 63.3686 369.094 63.3074C368.832 63.2462 368.593 63.1086 368.409 62.9122C368.226 62.7157 368.104 62.4691 368.06 62.2036C368.016 61.9381 368.052 61.6656 368.163 61.4205C368.275 61.1754 368.456 60.9687 368.684 60.8266C368.913 60.6844 369.179 60.6133 369.448 60.622C369.627 60.6278 369.803 60.6688 369.966 60.7426C370.129 60.8164 370.275 60.9216 370.398 61.0522C370.52 61.1828 370.615 61.3361 370.678 61.5036C370.741 61.671 370.77 61.8491 370.764 62.0279Z" fill="#455A64"/>
<path d="M314.747 106.735C323.479 126.181 346.177 153.523 354.594 153.771C358.6 153.894 365.746 154.974 371.079 150.464C382.715 140.611 392.64 121.57 394.778 110.604C395.543 106.713 376.65 97.9174 373.78 101.055C367.028 108.4 359.151 122.897 358.026 122.796C353.716 122.391 335.194 107.905 323.322 98.9522C308.411 87.7275 311.258 98.9747 314.747 106.735Z" fill="#F7A9A0"/>
<path d="M395.589 90.4044C393.709 82.4302 391.999 80.6756 393.991 73.1063C395.296 68.1351 392.674 65.1659 389.073 69.1136C383.176 75.5582 383.447 86.3554 384.572 90.0782L395.589 90.4044Z" fill="#F7A9A0"/>
<path d="M393.788 114.001C393.788 114.001 397.524 102.99 396.365 94.2959C395.555 88.2899 392.348 75.4008 375.659 68.3488C371.71 66.673 364.879 67.0891 370.348 72.1728C374.23 75.7832 377.786 76.8966 379.665 79.4047C379.665 79.4047 371.046 80.9681 369.538 85.0283C368.211 88.5515 367.131 92.1631 366.308 95.8368C366.946 96.1425 367.604 96.4055 368.277 96.6241C368.277 96.6241 367.208 100.527 369.965 106.015L393.788 114.001Z" fill="#F7A9A0"/>
<path d="M394.677 88.6836C392.28 86.5803 387.138 82.2277 381.691 80.1245C375.648 77.7851 363.36 74.9171 361.672 79.3934C360.445 82.6776 365.048 84.1847 365.048 84.1847C365.048 84.1847 359.725 84.0722 359.264 87.2889C358.836 90.2132 362.46 91.1692 362.46 91.1692C362.46 91.1692 359.219 91.6528 359.354 94.5433C359.523 98.0299 366.297 96.4441 369.482 99.8294C370.224 100.594 394.677 88.6836 394.677 88.6836Z" fill="#F7A9A0"/>
<path d="M380.284 86.9178C375.638 84.4656 370.355 83.4849 365.138 84.106C365.014 84.106 364.958 84.2297 365.082 84.241C370.238 84.5341 375.34 85.4557 380.273 86.9853C380.273 86.9853 380.352 86.9403 380.284 86.9178Z" fill="#263238"/>
<path d="M377.753 92.9575C372.915 90.9743 367.632 90.3332 362.46 91.1017C362.336 91.1017 362.291 91.2479 362.46 91.2479C367.617 91.2745 372.755 91.8858 377.775 93.0699C377.775 93.0699 377.786 92.9687 377.753 92.9575Z" fill="#263238"/>
<path d="M343.217 111.909L328.858 136.09C328.858 136.09 312.643 109.761 310.054 100.673C307.151 90.4381 313.025 91.1917 321.893 96.0392C330.76 100.887 343.217 111.909 343.217 111.909Z" fill="#5A8BB7"/>
<path opacity="0.1" d="M343.217 111.909L328.858 136.09C328.858 136.09 312.643 109.761 310.054 100.673C307.151 90.4381 313.025 91.1917 321.893 96.0392C330.76 100.887 343.217 111.909 343.217 111.909Z" fill="black"/>
<path d="M338.356 110.154C336.105 112.989 330.569 122.425 329.635 123.977C329.139 124.787 327.328 128.138 326.821 128.948C326.765 129.049 326.934 129.128 327.001 129.027C327.947 127.475 329.061 126.024 330.017 124.528C330.974 123.032 336.972 113.585 338.479 110.278C338.513 110.222 338.412 110.098 338.356 110.154Z" fill="#263238"/>
<path d="M250.56 182.788C250.56 182.788 326.292 193.293 326.292 193.304C326.079 194.778 330.299 133.425 315.602 94.9482C314.601 92.3164 303.066 88.0425 297.147 92.1589C271.198 110.154 250.425 183.744 250.56 182.788Z" fill="#5A8BB7"/>
<path opacity="0.1" d="M295.718 93.2161L316.063 96.2191C316.118 96.3314 316.163 96.448 316.199 96.5678L295.358 93.4973C295.473 93.3974 295.593 93.3036 295.718 93.2161ZM289.36 99.3121L318.46 103.586C318.437 103.471 318.403 103.358 318.359 103.249L289.619 98.9747L289.36 99.3121ZM284.611 105.296L320.328 110.548C320.328 110.435 320.328 110.323 320.25 110.211L284.825 104.992L284.611 105.296ZM280.538 111.346L321.836 117.431L321.769 117.083L280.718 111.043L280.538 111.346ZM276.903 117.499L323.04 124.247C323.04 124.134 323.04 124.022 323.04 123.909L277.106 117.161L276.903 117.499ZM273.583 123.718L324.064 131.141C324.064 131.029 324.064 130.916 324.064 130.804L273.786 123.403C273.685 123.527 273.628 123.64 273.583 123.718ZM270.511 129.949L324.863 137.946V137.608L270.691 129.634L270.511 129.949ZM267.631 136.214L325.505 144.728V144.39L267.822 135.921C267.765 136.031 267.701 136.136 267.631 136.236V136.214ZM264.941 142.501L325.989 151.499C325.989 151.386 325.989 151.274 325.989 151.161L265.087 142.164C265.02 142.321 264.975 142.422 264.941 142.523V142.501ZM262.364 148.799L326.337 158.236C326.337 158.123 326.337 158.022 326.337 157.91L262.499 148.518C262.454 148.619 262.409 148.721 262.364 148.822V148.799ZM259.945 155.21L326.574 165.018C326.579 164.909 326.579 164.8 326.574 164.692L260.057 154.907L259.945 155.21ZM257.615 161.554L326.686 171.676C326.698 171.568 326.698 171.458 326.686 171.35L257.728 161.227C257.694 161.295 257.694 161.396 257.604 161.497L257.615 161.554ZM255.365 167.919L326.664 178.402V178.087L255.444 167.582L255.365 167.919ZM253.238 174.297L326.551 185.083C326.551 184.97 326.551 184.858 326.551 184.745L253.328 173.97L253.238 174.297ZM251.224 180.685L326.337 191.673C326.337 191.572 326.337 191.46 326.337 191.347L251.314 180.314C251.302 180.415 251.269 180.527 251.246 180.629L251.224 180.685Z" fill="black"/>
<path d="M312.958 103.811C309.267 104.418 301.997 99.6045 299.769 94.2396C299.623 93.8685 300.545 90.2694 301.479 85.8268C302.031 83.1387 302.605 80.1245 302.875 77.3465C302.942 76.7729 319.889 83.4874 319.889 83.4874C318.514 86.8601 317.554 90.3876 317.031 93.9922C316.999 94.3664 316.999 94.7427 317.031 95.1169C317.031 95.1169 317.031 95.2294 317.031 95.3081C317.155 97.5463 316.907 103.17 312.958 103.811Z" fill="#F7A9A0"/>
<path d="M317.042 95.1506C317.042 95.1506 317.042 95.2743 317.042 95.3418C316.444 95.3505 315.847 95.3167 315.253 95.2406C304.991 93.891 303.674 80.7318 303.505 77.4139C306.566 78.2012 319.901 83.4874 319.901 83.4874C318.525 86.86 317.565 90.3876 317.042 93.9922C317.009 94.3776 317.009 94.7652 317.042 95.1506Z" fill="#263238"/>
<path d="M301.997 55.3134C299.623 61.3756 301.525 79.5734 305.632 83.9035C311.596 90.2019 322.039 91.5516 327.564 84.2409C332.921 77.144 330.017 53.4801 325.314 49.4649C318.46 43.5601 305.497 46.3607 301.997 55.3134Z" fill="#F7A9A0"/>
<path d="M328.341 55.3359C327.575 53.8175 326.709 52.2879 325.752 52.0405C324.796 51.793 324.312 54.1099 322.174 54.3799C319.304 54.7398 317.752 52.1304 313.7 52.1304C307.871 52.1304 305.61 57.0679 305.947 65.2896C306.262 72.6452 301.862 73.6012 301.862 73.6012C301.862 73.6012 298.216 57.5628 302.47 51.928C306.724 46.2932 317.099 43.3127 324.391 48.014C327.069 49.7348 328.341 55.3359 328.341 55.3359Z" fill="#263238"/>
<path d="M305.396 70.4858C305.396 70.4858 301.66 64.4461 298.936 65.7507C296.213 67.0554 298.801 75.6369 301.828 76.9978C302.206 77.1946 302.619 77.3132 303.043 77.3465C303.468 77.3799 303.894 77.3272 304.298 77.1917C304.701 77.0562 305.073 76.8407 305.392 76.5581C305.71 76.2755 305.968 75.9316 306.15 75.547L305.396 70.4858Z" fill="#F7A9A0"/>
<path d="M299.747 68.1913V68.2701C301.862 69.2711 302.897 71.3518 303.573 73.4775C303.459 73.2537 303.299 73.0571 303.102 72.9014C302.905 72.7457 302.677 72.6346 302.433 72.5758C302.189 72.517 301.935 72.5118 301.689 72.5607C301.443 72.6096 301.21 72.7113 301.007 72.8589C300.939 72.8589 301.007 72.9939 301.007 72.9826C301.396 72.8807 301.806 72.9028 302.182 73.0461C302.557 73.1893 302.878 73.4463 303.1 73.7812C303.474 74.3369 303.783 74.933 304.023 75.5582C304.113 75.7607 304.473 75.6707 304.417 75.4457C304.63 72.634 302.706 68.6075 299.747 68.1913Z" fill="#263238"/>
<path d="M401.812 117.465H321.004V214.696H401.812V117.465Z" fill="#5A8BB7"/>
<path opacity="0.1" d="M401.812 117.465H321.004V214.696H401.812V117.465Z" fill="black"/>
<path d="M443.538 117.465H401.812V214.696H443.538V117.465Z" fill="#5A8BB7"/>
<path d="M368.266 138.475H366.556H365.273L364.53 136.855L363.506 138.475L362.111 135.145L360.794 138.475H357.002H355.28L354.661 136.259L354.065 138.475H352.951V117.465H368.266V138.475Z" fill="white"/>
<g opacity="0.1">
<path d="M440.657 208.004C437.574 201.083 434.513 194.144 431.474 187.186L422.472 166.277L413.526 145.279C410.57 138.261 407.637 131.224 404.726 124.168C407.824 131.074 410.889 138.01 413.92 144.975L422.922 165.884L431.857 186.893C434.828 193.904 437.761 200.941 440.657 208.004Z" fill="black"/>
<path d="M440.657 124.168C437.754 131.216 434.82 138.253 431.857 145.279L422.922 166.277L413.92 187.197C410.881 194.148 407.817 201.083 404.726 208.004C407.629 200.941 410.563 193.904 413.526 186.893L422.472 165.884L431.474 144.975C434.505 138.017 437.566 131.081 440.657 124.168Z" fill="black"/>
</g>
<path d="M307.59 138.486H388.386L401.8 117.465H321.003L307.59 138.486Z" fill="#5A8BB7"/>
<g opacity="0.2">
<path d="M307.59 138.486H388.386L401.8 117.465H321.003L307.59 138.486Z" fill="black"/>
</g>
<path d="M415.214 138.497H456.816L443.403 117.465H401.8L415.214 138.497Z" fill="#5A8BB7"/>
<path opacity="0.1" d="M415.214 138.497H456.816L443.403 117.465H401.8L415.214 138.497Z" fill="black"/>
<path d="M285.748 110.773C280.639 128.442 268.958 164.838 275.012 177.052C282.968 193.079 314.758 207.487 323.04 211.615C326.653 213.414 340.032 190.144 338.446 186.14C336.859 182.136 302.762 162.206 300.726 159.709C298.689 157.212 301.693 128.611 300.726 113.022C299.409 93.3511 290.069 95.803 285.748 110.773Z" fill="#F7A9A0"/>
<path d="M347.583 196.296C346.458 194.586 347.324 193.979 350.802 195.093C354.279 196.206 367.107 203.607 369.301 198.917C371.496 194.226 353.266 184.07 347.336 182.642C341.405 181.214 331.289 181 331.289 181C334.44 183.688 341.473 190.942 347.583 196.296Z" fill="#F7A9A0"/>
<path d="M314.15 206.238C323.299 213.482 334.26 223.109 347.324 224.875C348.768 225.115 350.251 224.862 351.533 224.155C357.373 225.066 359.556 222.592 359.556 222.592C365.25 221.771 367.141 218.936 367.141 218.936C367.141 218.936 374.005 219.926 375.299 215.888C376.762 211.39 366.837 210.838 361.548 207.217C349.44 198.917 334.541 183.744 331.289 181L314.15 206.238Z" fill="#F7A9A0"/>
<path d="M342.744 207.431C346.262 209.9 349.943 212.128 353.761 214.1C358.069 215.988 362.511 217.556 367.051 218.79C367.081 218.79 367.109 218.802 367.13 218.823C367.152 218.844 367.163 218.873 367.163 218.903C367.163 218.932 367.152 218.961 367.13 218.982C367.109 219.003 367.081 219.015 367.051 219.015C358.035 217.51 349.604 213.561 342.677 207.599C342.474 207.464 342.564 207.318 342.744 207.431Z" fill="#263238"/>
<path d="M336.668 214.01C340.314 216.125 346.739 219.791 359.579 222.445C359.579 222.445 359.579 222.535 359.579 222.524C351.282 221.938 343.313 219.052 336.567 214.19C336.353 214.033 336.465 213.875 336.668 214.01Z" fill="#263238"/>
<path d="M333.472 217.609C339.807 220.983 344.219 222.277 351.477 224.11C351.477 224.11 351.477 224.2 351.477 224.189C342.97 222.974 340.033 221.568 333.303 217.812C333.089 217.677 333.224 217.474 333.472 217.609Z" fill="#263238"/>
<path d="M302.425 134.403L274.787 139.689C274.787 139.689 283.734 110.098 288.831 102.135C294.548 93.1374 297.89 98.0524 300.14 107.905C302.391 117.757 302.425 134.403 302.425 134.403Z" fill="#5A8BB7"/>
<path opacity="0.1" d="M302.425 134.403L274.787 139.689C274.787 139.689 283.734 110.098 288.831 102.135C294.548 93.1374 297.89 98.0524 300.14 107.905C302.391 117.757 302.425 134.403 302.425 134.403Z" fill="black"/>
<path d="M300.455 129.601C296.843 129.792 286.108 131.906 284.33 132.244C283.385 132.412 279.682 133.278 278.703 133.447C278.591 133.447 278.647 133.65 278.703 133.627C280.493 133.312 282.316 133.177 284.116 132.873C285.917 132.57 296.911 130.804 300.388 129.736C300.59 129.713 300.568 129.589 300.455 129.601Z" fill="#263238"/>
<path d="M302.436 122.335C302.537 120.85 302.627 119.377 302.672 117.836C302.56 118.961 302.47 120.007 302.391 121.098C302.2 118.927 301.975 116.756 301.648 114.608C301.648 117.904 301.851 121.199 301.941 124.494C302.031 127.79 302.166 130.961 302.312 134.189C301.705 134.414 301.097 134.617 300.478 134.808C300.458 134.815 300.441 134.828 300.429 134.845C300.417 134.862 300.41 134.883 300.41 134.904C300.41 134.925 300.417 134.945 300.429 134.962C300.441 134.979 300.458 134.992 300.478 134.999C301.176 134.898 301.885 134.797 302.582 134.729C302.666 134.727 302.746 134.693 302.806 134.635C302.867 134.577 302.903 134.498 302.909 134.414C302.875 130.467 302.706 126.384 302.436 122.335Z" fill="#263238"/>
<path d="M411.016 295.945C411.901 302.1 411.584 308.368 410.082 314.402C409.369 317.195 408.42 319.923 407.247 322.556C405.784 325.93 404.253 329.225 404.613 332.915C404.973 333.162 403.747 333.117 403.713 332.757C393.833 327.133 381.207 326.11 373.566 316.921C369.965 312.568 368.154 307.057 367.298 301.535C366.353 295.529 366.094 288.882 367.647 282.966C368.953 277.961 371.878 273.125 376.65 270.673C381.421 268.221 387.903 268.356 392.989 269.953C403.983 273.372 409.452 285.272 411.016 295.945Z" fill="#5A8BB7"/>
<path d="M416.08 369.018C414.73 364.519 413.391 360.02 412.007 355.521C409.295 346.748 406.481 338.009 403.364 329.372C401.496 324.198 399.523 319.073 397.445 313.997C397.677 310.8 398.072 307.617 398.627 304.459C399.459 300.635 400.652 296.935 401.766 293.212C401.834 292.987 401.462 292.864 401.372 293.077C399.122 298.24 396.264 304.842 396.185 310.949C393.777 305.213 391.192 299.556 388.431 293.977C388.113 289.258 388.256 284.519 388.859 279.828C388.859 279.614 388.566 279.547 388.533 279.761C387.686 283.865 387.361 288.059 387.565 292.245C385.434 288.061 383.184 283.937 380.813 279.873C380.599 279.502 380.093 279.873 380.273 280.244C383.986 287.386 387.43 294.674 390.66 302.064C386.117 298.108 380.862 295.054 375.175 293.066C374.928 292.976 374.748 293.336 374.995 293.437C381.197 296.1 386.869 299.856 391.74 304.527C394.073 309.94 396.286 315.392 398.379 320.88C392.201 314.829 383.75 310.848 375.569 308.711C375.288 308.632 375.209 309.059 375.479 309.149C384.943 311.995 392.302 317.36 399.504 323.771C400.337 326.02 401.155 328.247 401.958 330.451C405.018 338.909 407.899 347.423 410.679 355.971C412.007 360.073 413.312 364.196 414.595 368.343C415.979 372.763 417.059 377.442 418.86 381.716C419.028 382.121 419.76 382.031 419.67 381.547C418.691 377.311 417.493 373.129 416.08 369.018Z" fill="#263238"/>
<path d="M399.707 287.308C397.946 289.998 396.734 293.01 396.14 296.17C396.14 296.249 396.252 296.294 396.286 296.17C397.392 293.195 398.681 290.292 400.146 287.476C400.292 287.229 399.865 287.049 399.707 287.308Z" fill="#263238"/>
<path d="M382.085 307.867C379.333 306.348 376.329 305.338 373.217 304.887C373.139 304.887 373.094 304.999 373.217 305.033C374.647 305.618 376.143 306.034 377.584 306.585C379.024 307.136 380.442 307.822 381.905 308.328C381.96 308.333 382.015 308.319 382.062 308.289C382.109 308.26 382.146 308.216 382.166 308.164C382.186 308.113 382.189 308.056 382.174 308.002C382.16 307.949 382.128 307.902 382.085 307.867Z" fill="#263238"/>
<path d="M377.122 283.135C376.229 282.456 375.271 281.864 374.264 281.369C374.231 281.36 374.196 281.362 374.164 281.374C374.132 281.387 374.105 281.41 374.088 281.439C374.07 281.468 374.062 281.502 374.065 281.536C374.069 281.571 374.083 281.603 374.107 281.628C375.005 282.315 375.966 282.918 376.976 283.427C377.1 283.551 377.302 283.247 377.122 283.135Z" fill="#263238"/>
<path d="M444.303 329.473C437.191 331.587 430.045 333.533 422.922 335.614C422.303 335.805 410.285 312.771 414.628 300.916C418.646 289.928 427.84 281.718 438.8 277.984C443.875 276.263 450.12 274.812 455.488 275.993C460.259 277.05 463.624 280.953 465.177 285.44C467.293 291.525 466.584 298.802 465.436 305.022C464.526 310.865 462.114 316.372 458.436 321.004C454.622 325.491 449.85 327.831 444.303 329.473Z" fill="#5A8BB7"/>
<path d="M454.622 307.586C450.123 309.781 445.457 311.616 440.668 313.075C437.476 313.936 434.363 315.064 431.362 316.449C434.366 309.7 437.663 303.211 441.163 296.71C445.754 295.383 450.593 293.336 454.059 290.063C454.09 290.026 454.106 289.98 454.106 289.932C454.106 289.885 454.088 289.839 454.057 289.802C454.027 289.766 453.984 289.742 453.937 289.734C453.89 289.726 453.841 289.735 453.8 289.759C450.008 292.436 445.822 294.044 441.636 295.855C442.581 294.112 443.538 292.357 444.505 290.625C444.775 290.142 444.111 289.658 443.785 290.13C440.041 295.556 436.658 301.222 433.657 307.091C432.89 301.948 432.645 296.74 432.926 291.548C432.919 291.525 432.904 291.506 432.885 291.492C432.866 291.478 432.843 291.47 432.819 291.47C432.795 291.47 432.772 291.478 432.753 291.492C432.734 291.506 432.72 291.525 432.712 291.548C431.826 297.209 431.887 302.979 432.892 308.621C430.394 313.603 428.121 318.743 426.14 323.861C425.33 320.756 424.272 317.708 423.575 314.582C422.493 310.105 422.147 305.482 422.551 300.894C422.551 300.867 422.54 300.841 422.521 300.822C422.502 300.803 422.476 300.793 422.449 300.793C422.423 300.793 422.397 300.803 422.378 300.822C422.359 300.841 422.348 300.867 422.348 300.894C421.087 309.382 422.116 318.052 425.33 326.009C424.137 329.113 423.001 332.24 421.954 335.366C416.59 351.293 413.406 367.871 412.49 384.651C412.49 384.732 412.522 384.809 412.579 384.866C412.636 384.923 412.714 384.955 412.794 384.955C412.875 384.955 412.952 384.923 413.009 384.866C413.066 384.809 413.098 384.732 413.098 384.651C414.952 368.084 418.5 351.75 423.687 335.906C425.758 329.709 428.132 323.692 430.732 317.787C434.94 316.55 439.115 314.863 443.245 313.435C447.374 312.209 451.271 310.308 454.779 307.811C454.914 307.721 454.768 307.507 454.622 307.586Z" fill="#263238"/>
<path d="M461.25 300.894C456.906 302.446 452.776 304.606 448.433 306.18C448.23 306.248 448.343 306.574 448.556 306.529C453.148 305.584 457.716 304.156 461.419 301.141C461.554 301.029 461.374 300.838 461.25 300.894Z" fill="#263238"/>
<path d="M425.735 291.514C425.735 291.289 425.443 291.154 425.375 291.39C424.182 295.394 423.361 299.646 424.52 303.762C424.52 303.919 424.824 303.919 424.824 303.762C425.038 299.601 424.801 295.585 425.735 291.514Z" fill="#263238"/>
<path d="M443.706 282.302C442.315 284.291 441.647 286.697 441.816 289.118C441.816 289.276 442.063 289.354 442.109 289.174C442.637 286.925 443.526 284.799 444.235 282.572C444.253 282.505 444.247 282.434 444.219 282.371C444.191 282.308 444.142 282.256 444.08 282.224C444.018 282.193 443.947 282.183 443.879 282.198C443.811 282.212 443.75 282.249 443.706 282.302Z" fill="#263238"/>
<path d="M359.703 339.663C361.784 346.276 366.747 355.409 374.59 355.499C379.677 355.499 384.797 354.936 389.894 354.869C395.363 354.779 400.832 354.79 406.279 355.116C406.729 355.116 405.626 338.774 392.505 330.811C388.825 328.562 384.324 327.865 380.127 326.965C375.336 325.834 370.419 325.323 365.498 325.446C362.482 325.57 359.973 326.211 358.904 329.293C357.835 332.375 358.701 336.48 359.703 339.663Z" fill="#5A8BB7"/>
<path d="M365.352 331.351C368.536 332.172 371.755 333.117 374.95 334.129C374.12 333.22 373.237 332.36 372.306 331.554C370.906 330.462 369.453 329.441 367.951 328.494C367.827 328.416 367.951 328.18 368.064 328.236C371.164 329.526 373.842 331.657 375.794 334.388C379.789 335.681 383.739 337.098 387.543 338.662C390.171 339.735 392.688 341.06 395.06 342.621C394.3 340.962 393.389 339.377 392.336 337.886C390.592 335.636 388.24 334.377 385.956 332.768C385.933 332.754 385.913 332.736 385.897 332.714C385.882 332.692 385.87 332.668 385.864 332.642C385.858 332.616 385.857 332.589 385.861 332.562C385.865 332.535 385.874 332.51 385.888 332.487C385.902 332.464 385.921 332.444 385.943 332.429C385.964 332.413 385.989 332.401 386.015 332.395C386.041 332.389 386.068 332.388 386.095 332.392C386.121 332.396 386.147 332.406 386.17 332.42C388.553 333.454 390.695 334.975 392.456 336.885C394.218 338.794 395.56 341.051 396.399 343.509C399.13 345.469 401.629 347.733 403.848 350.258C412.524 360.11 419.366 373.224 419.389 386.608C419.389 386.934 418.882 387.024 418.815 386.687C416.583 373.572 410.866 361.296 402.262 351.146C401.631 350.415 401.001 349.729 400.348 349.054C397.972 348.737 395.578 348.561 393.18 348.526C390.378 348.526 387.61 348.942 384.831 349.167C380.251 349.538 375.176 349.583 371.046 347.288C370.866 347.187 370.989 346.872 371.192 346.94C380.408 350.314 390.063 346.04 399.324 348.064C395.381 344.304 390.761 341.323 385.708 339.28L384.864 338.943C378.945 339.652 372.7 341.192 366.95 339.269C366.781 339.213 366.848 338.954 367.017 338.999C372.587 340.394 377.921 338.639 383.413 338.369C377.437 336.041 371.338 334.185 365.34 331.88C364.812 331.677 364.8 331.216 365.352 331.351Z" fill="#263238"/>
<path d="M362.741 337.166C365.596 337.546 368.47 337.764 371.349 337.818C371.417 337.818 371.428 337.931 371.349 337.942C368.456 338.474 365.476 338.285 362.673 337.391C362.659 337.386 362.645 337.379 362.633 337.369C362.621 337.36 362.611 337.348 362.604 337.334C362.596 337.321 362.592 337.306 362.59 337.29C362.589 337.275 362.59 337.259 362.595 337.245C362.599 337.23 362.606 337.216 362.616 337.204C362.626 337.192 362.638 337.182 362.651 337.175C362.665 337.168 362.68 337.163 362.695 337.162C362.711 337.16 362.726 337.162 362.741 337.166Z" fill="#263238"/>
<path d="M382.175 331.497C383.77 332.207 385.217 333.21 386.44 334.455C386.586 334.59 386.383 334.86 386.215 334.737C385.495 334.208 384.752 333.713 383.964 333.229C383.245 332.836 382.55 332.4 381.882 331.925C381.826 331.886 381.787 331.826 381.774 331.759C381.761 331.691 381.776 331.622 381.815 331.565C381.854 331.508 381.913 331.469 381.981 331.457C382.048 331.444 382.118 331.459 382.175 331.497Z" fill="#263238"/>
<path d="M428.515 352.788C428.414 353.013 428.729 353.216 428.852 352.991C428.901 353.057 428.974 353.101 429.055 353.114C434.337 354.377 439.693 355.312 445.091 355.915C449.434 356.297 454.431 356.545 458.234 354.025C463.377 350.651 466.764 341.496 463.984 335.693C460.687 328.821 450.762 332.555 445.788 334.995C438.133 338.735 432.024 345.028 428.515 352.788Z" fill="#5A8BB7"/>
<path d="M424.666 355.971C427.557 353.173 430.772 350.73 434.243 348.694C436.734 344.743 440.041 341.368 443.943 338.797C444.134 338.673 444.291 338.965 444.123 339.1C441.018 341.585 438.266 344.479 435.942 347.704C439.807 345.595 443.819 343.768 447.949 342.238C449.429 339.505 451.673 337.262 454.408 335.783C454.408 335.783 454.52 335.783 454.475 335.873C452.219 337.584 450.251 339.646 448.646 341.98C451.088 341.069 453.553 340.225 456.017 339.404C456.231 339.337 456.321 339.674 456.107 339.753C451.718 341.462 447.24 343.273 442.896 345.376C448.197 346.22 453.597 346.22 458.898 345.376C458.913 345.373 458.928 345.372 458.943 345.374C458.958 345.376 458.973 345.382 458.986 345.389C458.999 345.397 459.01 345.408 459.019 345.42C459.028 345.432 459.035 345.446 459.039 345.461C459.042 345.475 459.043 345.491 459.041 345.506C459.038 345.521 459.033 345.535 459.025 345.548C459.018 345.562 459.007 345.573 458.995 345.582C458.983 345.591 458.969 345.598 458.954 345.601C453.428 347.237 447.558 347.327 441.985 345.86C439.215 347.204 436.525 348.706 433.927 350.359C436.114 350.182 438.315 350.364 440.443 350.899C444.191 351.772 448.028 352.207 451.876 352.192C452.022 352.192 452.056 352.428 451.876 352.451C445.237 353.575 438.969 350.572 432.386 351.326C429.946 352.999 427.657 354.88 425.544 356.95C421.448 361.051 418.07 365.811 415.551 371.031C412.783 376.655 411.286 382.638 409.047 388.453C409.025 388.498 408.988 388.533 408.943 388.554C408.897 388.574 408.846 388.578 408.798 388.565C408.75 388.552 408.708 388.522 408.679 388.481C408.651 388.44 408.638 388.39 408.642 388.34C410.589 376.778 416.361 364.148 424.666 355.971Z" fill="#263238"/>
<path d="M444.674 340.236C445.119 339.459 445.694 338.763 446.373 338.178C446.933 337.578 447.596 337.082 448.331 336.716C448.346 336.712 448.361 336.712 448.375 336.717C448.39 336.723 448.402 336.733 448.409 336.746C448.417 336.759 448.42 336.774 448.418 336.789C448.417 336.804 448.41 336.818 448.399 336.829C447.859 337.447 447.094 337.897 446.508 338.482C445.923 339.067 445.383 339.775 444.832 340.36C444.753 340.439 444.629 340.338 444.674 340.236Z" fill="#263238"/>
<path d="M455.623 343.802C456.602 343.554 457.649 343.577 458.65 343.374C459.64 343.129 460.617 342.833 461.576 342.486C461.604 342.481 461.633 342.486 461.658 342.499C461.683 342.513 461.702 342.535 461.713 342.562C461.723 342.588 461.724 342.617 461.716 342.644C461.707 342.672 461.69 342.695 461.666 342.711C459.858 343.822 457.736 344.312 455.623 344.105C455.466 344.083 455.477 343.835 455.623 343.802Z" fill="#263238"/>
<path d="M397.321 374.135L398.199 384.021L401.159 417.403H427.311L431.002 384.021L432.093 374.135H397.321Z" fill="#455A64"/>
<path d="M397.321 374.135L398.199 384.021H431.002L432.093 374.135H397.321Z" fill="#263238"/>
<path d="M394.744 379.455H434.681V371.436H394.744V379.455Z" fill="#455A64"/>
<path d="M201.721 384.37H126.506V467.621H201.721V384.37Z" fill="#5A8BB7"/>
<path opacity="0.1" d="M201.721 384.37H126.506V467.621H201.721V384.37Z" fill="black"/>
<path d="M240.556 384.381H201.722V467.632H240.556V384.381Z" fill="#5A8BB7"/>
<path d="M170.494 402.365H168.908H167.715L167.028 400.982L166.072 402.365L164.778 399.52L163.54 402.365H160.018H158.42L157.835 400.465L157.283 402.365H156.237V384.381H170.494V402.365Z" fill="white"/>
<g opacity="0.1">
<path d="M237.889 461.897C235.016 455.981 232.165 450.042 229.337 444.081L220.908 426.176L212.592 408.18C209.839 402.182 207.108 396.157 204.4 390.106C207.281 396.022 210.131 401.961 212.952 407.922L221.381 425.827L229.697 443.822C232.457 449.828 235.188 455.853 237.889 461.897Z" fill="black"/>
<path d="M237.889 390.117C235.188 396.161 232.457 402.185 229.697 408.191L221.381 426.187L212.952 444.092C210.124 450.053 207.273 455.992 204.4 461.908C207.116 455.864 209.846 449.839 212.592 443.833L220.908 425.838L229.337 407.933C232.165 401.972 235.016 396.033 237.889 390.117Z" fill="black"/>
</g>
<path d="M114.027 402.388H189.231L201.722 384.37H126.506L114.027 402.388Z" fill="#5A8BB7"/>
<g opacity="0.2">
<path d="M114.027 402.388H189.231L201.722 384.37H126.506L114.027 402.388Z" fill="black"/>
</g>
<path d="M214.201 402.388H252.923L240.443 384.381H201.722L214.201 402.388Z" fill="#5A8BB7"/>
<path opacity="0.1" d="M214.201 402.388H252.923L240.443 384.381H201.722L214.201 402.388Z" fill="black"/>
<path d="M75.1702 403.816H17.5098V467.633H75.1702V403.816Z" fill="#5A8BB7"/>
<path opacity="0.1" d="M75.1702 403.816H17.5098V467.633H75.1702V403.816Z" fill="black"/>
<path d="M104.934 403.816H75.1589V467.633H104.934V403.816Z" fill="#5A8BB7"/>
<path d="M51.2238 417.605H50.0085H49.0857L48.5681 416.548L47.8254 417.605L46.8351 415.423L45.8899 417.605H43.1891H41.9626L41.5124 416.154L41.0961 417.605H40.2971V403.816H51.2238V417.605Z" fill="white"/>
<g opacity="0.1">
<path d="M102.875 463.235C100.669 458.736 98.4862 454.185 96.3257 449.581L89.8664 435.859L83.486 422.07C81.3704 417.474 79.2773 412.855 77.2068 408.214C79.4124 412.758 81.5992 417.309 83.7673 421.868L90.2265 435.601L96.5957 449.378C98.7113 453.99 100.804 458.609 102.875 463.235Z" fill="black"/>
<path d="M102.875 408.27C100.804 412.904 98.7113 417.523 96.5957 422.127L90.2265 435.916L83.7673 449.637C81.6067 454.203 79.4199 458.755 77.2068 463.291C79.2773 458.657 81.3704 454.039 83.486 449.435L89.8664 435.657L96.3257 421.924C98.4862 417.32 100.669 412.769 102.875 408.27Z" fill="black"/>
</g>
<path d="M7.93335 417.617H65.5825L75.1476 403.816H17.5097L7.93335 417.617Z" fill="#5A8BB7"/>
<g opacity="0.2">
<path d="M7.93335 417.617H65.5825L75.1476 403.816H17.5097L7.93335 417.617Z" fill="black"/>
</g>
<path d="M84.724 417.628H114.409L104.833 403.816H75.1477L84.724 417.628Z" fill="#5A8BB7"/>
<path opacity="0.1" d="M84.724 417.628H114.409L104.833 403.816H75.1477L84.724 417.628Z" fill="black"/>
<path d="M380.476 31.7057C380.056 35.7579 378.517 39.6136 376.03 42.8418C373.544 46.07 370.208 48.5435 366.396 49.9859C362.584 51.4282 358.446 51.7825 354.444 51.0093C350.442 50.236 346.734 48.3656 343.734 45.6071L332.729 47.238L338.232 37.7229C336.975 34.6295 336.439 31.2904 336.667 27.9593C336.894 24.6282 337.877 21.3926 339.542 18.4981C341.208 15.6037 343.511 13.1266 346.277 11.2548C349.044 9.38301 352.2 8.1658 355.507 7.69559C358.815 7.22538 362.186 7.51453 365.365 8.54107C368.543 9.56762 371.446 11.3046 373.853 13.6201C376.26 15.9356 378.107 18.7687 379.255 21.9044C380.402 25.0401 380.82 28.3959 380.476 31.7169V31.7057Z" fill="white"/>
<path d="M380.476 31.7057C380.051 35.7578 378.517 39.6144 376.042 42.8516C375.423 43.6399 374.758 44.391 374.05 45.101C373.316 45.8017 372.538 46.4554 371.721 47.058C368.448 49.5286 364.551 51.0396 360.468 51.4219C359.449 51.495 358.426 51.495 357.407 51.4219C356.387 51.4011 355.371 51.2958 354.369 51.107C350.312 50.3689 346.542 48.5105 343.487 45.7421L343.746 45.8208L332.752 47.5079L331.953 47.6316L332.358 46.923L337.838 37.3967V37.7791C336.552 34.6564 335.995 31.2815 336.211 27.9114C336.427 24.5413 337.409 21.2648 339.082 18.3311C340.756 15.3975 343.077 12.8841 345.869 10.9822C348.661 9.08036 351.85 7.8401 355.194 7.35585C358.538 6.87161 361.948 7.15614 365.165 8.18778C368.383 9.21943 371.322 10.971 373.76 13.3092C376.198 15.6475 378.07 18.5107 379.233 21.681C380.397 24.8514 380.822 28.2453 380.476 31.6045V31.7057ZM380.476 31.7057C380.833 28.3975 380.427 25.0513 379.287 21.9249C378.147 18.7985 376.304 15.9754 373.9 13.673C371.497 11.3706 368.596 9.65036 365.423 8.64481C362.249 7.63926 358.887 7.37524 355.595 7.87307C352.333 8.35875 349.227 9.5862 346.514 11.4609C343.784 13.3467 341.506 15.8124 339.841 18.6815C338.218 21.531 337.264 24.7113 337.05 27.9829C336.847 31.2492 337.378 34.5194 338.603 37.5542L338.682 37.7566L338.569 37.9254L333.089 47.4179L332.695 46.8331L343.712 45.2922H343.858L343.971 45.3934C346.905 48.1292 350.538 50.0013 354.47 50.8033C355.454 50.9965 356.45 51.1168 357.452 51.1632C358.452 51.2363 359.456 51.2363 360.457 51.1632C362.466 51.01 364.443 50.5746 366.331 49.8698C368.235 49.1909 370.026 48.2278 371.642 47.013C372.458 46.4214 373.232 45.7751 373.96 45.0785C374.674 44.3712 375.343 43.6199 375.963 42.8291C378.468 39.6101 380.03 35.7594 380.476 31.7057Z" fill="#263238"/>
<path d="M356.034 41.9518L346.638 32.448L349.789 29.3325L355.28 34.8886L366.68 17.0282L370.427 19.4126L356.034 41.9518Z" fill="#5A8BB7"/>
<rect x="63.0168" y="192.326" width="99.0265" height="8.99769" fill="#D9D9D9"/>
<rect x="63.0168" y="246.312" width="99.0265" height="8.99769" fill="#D9D9D9"/>
<rect x="63.0168" y="156.335" width="115.906" height="8.99769" fill="#D9D9D9"/>
<rect x="63.0168" y="210.321" width="73.1446" height="8.99769" fill="#D9D9D9"/>
<rect x="63.0168" y="264.307" width="73.1446" height="8.99769" fill="#D9D9D9"/>
<rect x="63.0168" y="228.316" width="99.0265" height="8.99769" fill="#D9D9D9"/>
<rect x="63.0168" y="174.33" width="82.147" height="8.99769" fill="#D9D9D9"/>
<g clip-path="url(#clip1_356_20)">
<path d="M152.719 97.536L151.306 103.187H150.306L151.714 97.536H152.719ZM154.747 100.078L154.59 100.691H151.736L151.892 100.078H154.747ZM155.831 97.536L155.674 98.1492H152.367L152.524 97.536H155.831ZM157.059 97.536L159.199 97.5399C159.679 97.5502 160.075 97.6266 160.384 97.7689C160.696 97.9086 160.92 98.1014 161.054 98.3471C161.192 98.5904 161.24 98.875 161.199 99.201C161.165 99.4675 161.069 99.7068 160.909 99.919C160.752 100.131 160.54 100.312 160.272 100.462C160.007 100.612 159.697 100.731 159.339 100.819L159.048 100.897H157.015L157.154 100.288L158.518 100.295C158.83 100.293 159.106 100.245 159.345 100.152C159.583 100.056 159.774 99.9254 159.92 99.7599C160.069 99.5943 160.16 99.4067 160.194 99.1971C160.227 99.0134 160.219 98.8439 160.171 98.6887C160.123 98.5334 160.019 98.408 159.858 98.3122C159.702 98.2139 159.474 98.1609 159.177 98.1531L157.915 98.1492L156.652 103.187H155.652L157.059 97.536ZM159.462 103.187L158.535 100.625L159.523 100.621L160.54 103.136L160.535 103.187H159.462ZM165.936 102.577L165.78 103.187H162.35L162.506 102.577H165.936ZM163.947 97.536L162.534 103.187H161.534L162.942 97.536H163.947ZM166.126 99.9655L165.975 100.575H163.003L163.159 99.9655H166.126ZM167.143 97.536L166.987 98.1492H163.607L163.763 97.536H167.143ZM171.12 97.536L169.707 103.187H168.712L170.126 97.536H171.12ZM173.193 97.536L173.036 98.1492H167.897L168.053 97.536H173.193ZM177.343 102.577L177.187 103.187H173.757L173.913 102.577H177.343ZM175.355 97.536L173.941 103.187H172.941L174.349 97.536H175.355ZM177.533 99.9655L177.383 100.575H174.41L174.567 99.9655H177.533ZM178.55 97.536L178.393 98.1492H175.014L175.171 97.536H178.55ZM182.271 101.728C182.296 101.577 182.286 101.448 182.237 101.339C182.192 101.228 182.116 101.132 182.008 101.052C181.9 100.972 181.77 100.901 181.617 100.839C181.464 100.777 181.296 100.718 181.114 100.664C180.853 100.587 180.609 100.497 180.382 100.396C180.159 100.295 179.963 100.18 179.795 100.051C179.632 99.919 179.507 99.7689 179.421 99.6007C179.34 99.4326 179.311 99.2411 179.338 99.0263C179.364 98.7935 179.448 98.58 179.589 98.386C179.731 98.1919 179.915 98.025 180.142 97.8853C180.373 97.7456 180.636 97.6382 180.93 97.5632C181.228 97.4881 181.542 97.4532 181.874 97.4584C182.339 97.4662 182.728 97.549 183.041 97.7068C183.358 97.862 183.593 98.069 183.745 98.3277C183.898 98.5839 183.959 98.8633 183.93 99.1661H182.924C182.946 98.9798 182.928 98.8038 182.869 98.6382C182.812 98.4726 182.701 98.3381 182.533 98.2346C182.366 98.1311 182.127 98.0768 181.818 98.0716C181.542 98.0664 181.298 98.1052 181.086 98.188C180.878 98.2682 180.708 98.3808 180.578 98.5257C180.451 98.6706 180.373 98.8349 180.343 99.0186C180.317 99.1531 180.332 99.2721 180.388 99.3756C180.444 99.4766 180.526 99.5671 180.633 99.6473C180.746 99.7249 180.874 99.7935 181.019 99.853C181.168 99.9125 181.321 99.9655 181.477 100.012C181.764 100.095 182.023 100.188 182.254 100.292C182.485 100.395 182.68 100.514 182.84 100.649C183.004 100.783 183.124 100.938 183.198 101.114C183.276 101.29 183.3 101.493 183.271 101.724C183.241 101.964 183.153 102.182 183.008 102.376C182.863 102.567 182.673 102.73 182.438 102.865C182.203 102.999 181.936 103.101 181.633 103.171C181.332 103.239 181.01 103.27 180.667 103.264C180.317 103.259 180.003 103.213 179.723 103.125C179.444 103.034 179.207 102.911 179.013 102.756C178.82 102.598 178.676 102.417 178.583 102.213C178.491 102.006 178.453 101.783 178.472 101.545L179.477 101.549C179.459 101.699 179.468 101.841 179.506 101.976C179.546 102.108 179.617 102.224 179.718 102.325C179.818 102.426 179.951 102.506 180.114 102.566C180.282 102.623 180.485 102.653 180.723 102.655C181.003 102.66 181.252 102.625 181.472 102.55C181.691 102.475 181.87 102.368 182.008 102.228C182.149 102.086 182.237 101.919 182.271 101.728ZM188.689 100.051L189.795 99.4494C190 99.3381 190.169 99.2178 190.304 99.0884C190.442 98.9591 190.524 98.8012 190.549 98.6149C190.568 98.4752 190.527 98.3446 190.426 98.223C190.326 98.0988 190.16 98.0367 189.929 98.0367C189.736 98.0367 189.576 98.0794 189.448 98.1648C189.322 98.2501 189.224 98.3549 189.153 98.4791C189.082 98.6007 189.039 98.7184 189.024 98.8323C189.002 98.9694 189.017 99.1039 189.069 99.2359C189.121 99.3679 189.192 99.496 189.282 99.6201C189.374 99.7443 189.466 99.8646 189.555 99.9811L191.935 103.187H190.851L188.935 100.563C188.801 100.385 188.663 100.205 188.521 100.024C188.38 99.8427 188.264 99.6563 188.175 99.4649C188.089 99.2709 188.058 99.069 188.08 98.8594C188.106 98.6085 188.196 98.3756 188.349 98.1609C188.505 97.9435 188.721 97.7702 188.996 97.6408C189.272 97.5114 189.605 97.4493 189.997 97.4545C190.306 97.4597 190.571 97.5166 190.795 97.6253C191.022 97.7314 191.194 97.8724 191.309 98.0483C191.428 98.2217 191.479 98.4118 191.46 98.6188C191.445 98.8025 191.385 98.9694 191.281 99.1195C191.181 99.2695 191.049 99.408 190.884 99.5347C190.724 99.6589 190.544 99.7741 190.343 99.8802L188.79 100.718C188.652 100.801 188.52 100.894 188.393 100.998C188.27 101.099 188.166 101.209 188.08 101.328C187.995 101.444 187.941 101.567 187.918 101.696C187.889 101.857 187.899 102.011 187.952 102.158C188.004 102.306 188.104 102.427 188.254 102.523C188.406 102.619 188.614 102.671 188.879 102.678C189.248 102.689 189.572 102.625 189.851 102.488C190.13 102.349 190.367 102.169 190.561 101.949C190.758 101.726 190.914 101.493 191.03 101.25C191.145 101.007 191.224 100.783 191.264 100.579H192.114C192.073 100.83 192.002 101.063 191.901 101.277C191.801 101.492 191.669 101.698 191.504 101.894C191.344 102.088 191.151 102.284 190.924 102.48C190.894 102.506 190.866 102.533 190.84 102.562C190.817 102.59 190.793 102.618 190.767 102.643C190.544 102.84 190.253 102.994 189.896 103.105C189.542 103.217 189.187 103.27 188.829 103.264C188.404 103.257 188.043 103.182 187.745 103.039C187.451 102.897 187.233 102.709 187.091 102.477C186.95 102.241 186.896 101.981 186.929 101.696C186.959 101.438 187.061 101.213 187.237 101.021C187.416 100.827 187.634 100.652 187.89 100.497C188.147 100.342 188.414 100.193 188.689 100.051Z" fill="black"/>
<path d="M152.533 109.061H153.465L154.376 113.66L157.582 109.061H158.593L154.532 114.712H153.767L152.533 109.061ZM152.202 109.061H153.052L152.331 112.531L151.79 114.712H150.79L152.202 109.061ZM158.029 109.061H158.884L157.47 114.712H156.47L157.035 112.469L158.029 109.061ZM164.303 109.061H165.308L164.331 113.035C164.263 113.387 164.109 113.697 163.867 113.967C163.625 114.233 163.306 114.44 162.912 114.588C162.521 114.735 162.063 114.805 161.538 114.797C161.031 114.789 160.615 114.71 160.292 114.56C159.968 114.408 159.737 114.201 159.599 113.939C159.461 113.678 159.418 113.378 159.471 113.039L160.443 109.061H161.443L160.476 113.043C160.439 113.252 160.446 113.443 160.498 113.613C160.551 113.782 160.662 113.916 160.833 114.017C161.008 114.118 161.264 114.172 161.599 114.18C161.953 114.19 162.249 114.149 162.487 114.056C162.726 113.96 162.913 113.825 163.051 113.652C163.189 113.476 163.282 113.273 163.331 113.043L164.303 109.061ZM167.269 114.712H165.856L166.024 114.102L167.297 114.106C167.818 114.109 168.252 114.035 168.599 113.885C168.945 113.732 169.217 113.525 169.414 113.264C169.611 113 169.748 112.701 169.822 112.368L170.029 111.397C170.069 111.193 170.084 110.991 170.073 110.792C170.062 110.59 170.01 110.406 169.917 110.241C169.823 110.075 169.673 109.942 169.464 109.841C169.256 109.74 168.973 109.686 168.615 109.678L167.084 109.674L167.241 109.061L168.643 109.065C169.124 109.073 169.53 109.142 169.861 109.274C170.192 109.404 170.453 109.578 170.643 109.798C170.833 110.016 170.958 110.263 171.017 110.54C171.077 110.816 171.079 111.106 171.023 111.409L170.816 112.368C170.742 112.706 170.613 113.02 170.431 113.307C170.248 113.594 170.01 113.844 169.716 114.056C169.421 114.265 169.069 114.428 168.66 114.545C168.254 114.659 167.79 114.714 167.269 114.712ZM167.828 109.061L166.414 114.712H165.414L166.822 109.061H167.828ZM175.464 109.6L172.051 114.712H170.989L174.944 109.061H175.609L175.464 109.6ZM175.944 114.712L175.067 109.519L175.174 109.061H175.805L176.933 114.712H175.944ZM176.459 112.62L176.302 113.233H172.492L172.649 112.62H176.459ZM184.603 109.061L183.195 114.712H182.212L180.129 110.322L179.034 114.712H178.028L179.436 109.061H180.414L182.508 113.462L183.609 109.061H184.603ZM189.29 112.919L190.267 112.911C190.193 113.276 190.035 113.602 189.793 113.889C189.555 114.176 189.234 114.401 188.832 114.564C188.434 114.725 187.953 114.8 187.391 114.789C186.933 114.782 186.557 114.704 186.262 114.556C185.972 114.409 185.748 114.218 185.592 113.982C185.439 113.747 185.345 113.492 185.307 113.218C185.27 112.941 185.275 112.67 185.324 112.406L185.558 111.362C185.625 111.067 185.737 110.778 185.894 110.493C186.05 110.206 186.259 109.947 186.519 109.717C186.78 109.487 187.095 109.305 187.463 109.174C187.832 109.039 188.26 108.976 188.748 108.983C189.281 108.991 189.702 109.083 190.011 109.259C190.323 109.435 190.543 109.665 190.67 109.95C190.797 110.234 190.85 110.543 190.832 110.877L189.826 110.873C189.837 110.669 189.821 110.471 189.776 110.28C189.735 110.086 189.633 109.925 189.469 109.798C189.305 109.669 189.044 109.6 188.687 109.593C188.337 109.585 188.037 109.634 187.787 109.74C187.538 109.844 187.331 109.983 187.167 110.159C187.003 110.335 186.873 110.528 186.776 110.737C186.68 110.947 186.609 111.153 186.564 111.355L186.33 112.41C186.296 112.573 186.275 112.754 186.268 112.954C186.264 113.153 186.294 113.344 186.357 113.528C186.421 113.712 186.538 113.864 186.709 113.986C186.88 114.107 187.126 114.174 187.447 114.184C187.849 114.194 188.171 114.144 188.413 114.033C188.655 113.921 188.843 113.769 188.978 113.575C189.111 113.378 189.215 113.159 189.29 112.919ZM186.916 114.75H187.597L187.491 114.964C187.7 115.008 187.843 115.089 187.921 115.208C188 115.328 188.035 115.458 188.027 115.6C188.017 115.756 187.964 115.886 187.871 115.993C187.782 116.099 187.662 116.184 187.514 116.249C187.365 116.313 187.197 116.361 187.011 116.392C186.828 116.423 186.64 116.441 186.447 116.446L186.475 116.027C186.601 116.022 186.722 116.005 186.838 115.977C186.953 115.948 187.05 115.905 187.128 115.845C187.21 115.788 187.263 115.711 187.285 115.612C187.303 115.519 187.283 115.45 187.223 115.406C187.167 115.362 187.089 115.331 186.988 115.313C186.888 115.298 186.784 115.285 186.676 115.274L186.916 114.75ZM195.038 109.6L191.625 114.712H190.564L194.519 109.061H195.184L195.038 109.6ZM195.519 114.712L194.642 109.519L194.748 109.061H195.379L196.508 114.712H195.519ZM196.033 112.62L195.876 113.233H192.067L192.223 112.62H196.033ZM201.412 113.252C201.438 113.102 201.427 112.973 201.379 112.864C201.334 112.753 201.258 112.657 201.15 112.577C201.042 112.497 200.911 112.426 200.758 112.364C200.606 112.302 200.438 112.243 200.256 112.189C199.995 112.111 199.751 112.022 199.524 111.921C199.3 111.82 199.105 111.705 198.938 111.576C198.774 111.444 198.649 111.294 198.563 111.126C198.481 110.958 198.453 110.766 198.48 110.551C198.505 110.318 198.589 110.105 198.731 109.911C198.872 109.717 199.057 109.55 199.284 109.41C199.515 109.271 199.777 109.163 200.072 109.088C200.37 109.013 200.684 108.978 201.015 108.983C201.481 108.991 201.871 109.074 202.183 109.232C202.5 109.387 202.734 109.594 202.887 109.853C203.04 110.109 203.101 110.388 203.071 110.691H202.066C202.088 110.505 202.07 110.329 202.01 110.163C201.954 109.998 201.842 109.863 201.675 109.76C201.507 109.656 201.269 109.602 200.96 109.597C200.684 109.591 200.44 109.63 200.228 109.713C200.02 109.793 199.85 109.906 199.72 110.051C199.593 110.196 199.515 110.36 199.485 110.543C199.459 110.678 199.474 110.797 199.53 110.901C199.585 111.001 199.668 111.092 199.776 111.172C199.887 111.25 200.015 111.318 200.161 111.378C200.31 111.437 200.463 111.49 200.619 111.537C200.906 111.62 201.165 111.713 201.396 111.816C201.626 111.92 201.822 112.039 201.982 112.174C202.146 112.308 202.265 112.463 202.34 112.639C202.418 112.815 202.442 113.018 202.412 113.249C202.383 113.489 202.295 113.706 202.15 113.901C202.005 114.092 201.815 114.255 201.58 114.39C201.345 114.524 201.077 114.626 200.776 114.696C200.474 114.763 200.152 114.795 199.809 114.789C199.459 114.784 199.144 114.738 198.865 114.65C198.585 114.559 198.349 114.436 198.155 114.281C197.962 114.123 197.818 113.942 197.726 113.737C197.632 113.531 197.595 113.308 197.613 113.07L198.619 113.074C198.6 113.224 198.61 113.366 198.647 113.501C198.688 113.633 198.759 113.749 198.859 113.85C198.96 113.951 199.092 114.031 199.256 114.091C199.423 114.148 199.626 114.177 199.865 114.18C200.144 114.185 200.394 114.15 200.613 114.075C200.833 114 201.012 113.893 201.15 113.753C201.291 113.611 201.379 113.444 201.412 113.252Z" fill="black"/>
<path d="M144.366 95.2383V118.686" stroke="black"/>
<path d="M77.2228 96.6151C78.2235 96.6151 79.0936 96.7441 79.8332 97.0023C80.5873 97.2461 81.2037 97.6046 81.6822 98.0779C82.1608 98.5368 82.4944 99.0961 82.6829 99.7558C82.8859 100.401 82.9367 101.133 82.8352 101.95C82.7482 102.595 82.5669 103.241 82.2913 103.886C82.0158 104.531 81.6242 105.119 81.1167 105.65C80.6091 106.181 79.971 106.611 79.2024 106.941C78.4483 107.256 77.5346 107.414 76.4615 107.414H74.1991L73.5683 112.448H70.4141L72.3719 96.6151H77.2228ZM76.8095 104.402C77.4476 104.402 77.9624 104.273 78.354 104.015C78.7456 103.743 79.0356 103.427 79.2241 103.069C79.4127 102.696 79.5214 102.359 79.5504 102.058C79.5794 101.885 79.5794 101.67 79.5504 101.412C79.5359 101.14 79.4634 100.867 79.3329 100.595C79.2169 100.322 79.0066 100.093 78.702 99.9063C78.3975 99.7199 77.9697 99.6267 77.4186 99.6267H75.1563L74.5689 104.402H76.8095ZM79.5287 106.338L82.7264 112.448H79.0501L75.7436 106.424L79.5287 106.338ZM97.5952 111.523C97.4212 111.637 97.1094 111.795 96.6598 111.996C96.2247 112.182 95.6955 112.347 95.0718 112.491C94.4627 112.648 93.7958 112.727 93.0705 112.727C92.2439 112.727 91.3811 112.605 90.4819 112.362C89.5973 112.118 88.7707 111.716 88.0021 111.157C87.2335 110.598 86.6099 109.845 86.1313 108.898C85.6527 107.952 85.4134 106.776 85.4134 105.37C85.4134 104.467 85.5149 103.585 85.718 102.724C85.921 101.864 86.2328 101.061 86.6534 100.315C87.0884 99.555 87.6323 98.8953 88.2849 98.336C88.9375 97.7623 89.7133 97.3178 90.6125 97.0023C91.5117 96.6724 92.5341 96.5075 93.6796 96.5075C94.8834 96.5075 95.9276 96.6939 96.8121 97.0668C97.6968 97.4253 98.4001 97.7982 98.9221 98.1854L97.3124 101.046C96.9935 100.76 96.551 100.451 95.9854 100.121C95.4199 99.7916 94.7529 99.598 93.9841 99.5406C93.201 99.4976 92.4832 99.6052 91.8306 99.8633C91.1925 100.107 90.6415 100.48 90.1774 100.982C89.7133 101.484 89.3508 102.086 89.0897 102.789C88.8432 103.492 88.7199 104.273 88.7199 105.134C88.7199 105.808 88.8214 106.424 89.0245 106.984C89.2275 107.543 89.5175 108.023 89.8946 108.425C90.2862 108.827 90.7575 109.142 91.3085 109.371C91.8741 109.587 92.5049 109.694 93.201 109.694C93.8247 109.694 94.3613 109.63 94.8108 109.501C95.2604 109.357 95.6374 109.207 95.9419 109.049C96.2465 108.877 96.4786 108.74 96.638 108.64L97.5952 111.523ZM101.45 96.6151H112.239L111.848 99.6912H108.019L106.431 112.448H103.168L104.756 99.6912H101.058L101.45 96.6151ZM115.284 96.6151H118.438L116.85 109.436H124.376L124.007 112.448H113.326L115.284 96.6151Z" fill="#EB8C5B"/>
<path d="M128.556 112.792C128.217 112.792 127.877 112.736 127.538 112.624C127.199 112.512 126.89 112.349 126.611 112.134C126.333 111.91 126.111 111.634 125.946 111.307C125.78 110.981 125.698 110.602 125.698 110.172C125.698 109.836 125.754 109.492 125.867 109.139C125.989 108.778 126.172 108.446 126.416 108.145C126.659 107.844 126.977 107.599 127.368 107.41C127.769 107.22 128.252 107.126 128.817 107.126C129.313 107.126 129.774 107.229 130.201 107.435C130.636 107.642 130.988 107.943 131.258 108.339C131.536 108.726 131.676 109.195 131.676 109.746C131.676 109.969 131.641 110.223 131.571 110.507C131.51 110.783 131.406 111.054 131.258 111.32C131.119 111.587 130.927 111.832 130.684 112.056C130.449 112.28 130.153 112.461 129.796 112.598C129.448 112.727 129.035 112.792 128.556 112.792ZM128.595 111.798C129.039 111.798 129.396 111.695 129.666 111.488C129.935 111.273 130.131 111.011 130.253 110.701C130.375 110.391 130.436 110.09 130.436 109.797C130.436 109.496 130.383 109.242 130.279 109.036C130.183 108.821 130.048 108.644 129.874 108.507C129.709 108.369 129.526 108.27 129.326 108.21C129.135 108.141 128.952 108.107 128.778 108.107C128.343 108.107 127.986 108.21 127.708 108.416C127.438 108.623 127.238 108.885 127.107 109.204C126.986 109.513 126.925 109.815 126.925 110.107C126.925 110.494 127.007 110.813 127.173 111.062C127.347 111.312 127.564 111.497 127.825 111.617C128.086 111.738 128.343 111.798 128.595 111.798ZM135.538 115.309C135.103 115.309 134.724 115.261 134.402 115.167C134.08 115.081 133.789 114.952 133.528 114.779C133.275 114.607 133.032 114.409 132.797 114.186L133.619 113.373C133.81 113.571 134.006 113.734 134.206 113.863C134.406 114.001 134.624 114.1 134.859 114.16C135.103 114.22 135.364 114.25 135.642 114.25C135.999 114.25 136.308 114.186 136.569 114.057C136.83 113.936 137.034 113.76 137.182 113.527C137.339 113.304 137.434 113.041 137.469 112.74L137.652 111.295L137.743 111.514C137.561 111.884 137.269 112.189 136.869 112.43C136.477 112.663 136.012 112.779 135.472 112.779C134.968 112.779 134.515 112.671 134.115 112.456C133.723 112.233 133.41 111.918 133.175 111.514C132.949 111.101 132.836 110.615 132.836 110.056C132.836 109.772 132.892 109.462 133.006 109.126C133.127 108.782 133.31 108.459 133.554 108.158C133.806 107.848 134.124 107.599 134.507 107.41C134.898 107.212 135.364 107.113 135.903 107.113C136.443 107.113 136.904 107.216 137.287 107.422C137.669 107.62 137.935 107.879 138.083 108.197L137.939 108.442L138.252 107.319H139.362L138.657 112.934C138.605 113.416 138.439 113.833 138.161 114.186C137.891 114.539 137.53 114.814 137.078 115.012C136.634 115.21 136.121 115.309 135.538 115.309ZM136.125 108.094C135.742 108.094 135.42 108.163 135.159 108.3C134.898 108.429 134.685 108.597 134.52 108.804C134.363 109.01 134.25 109.225 134.18 109.449C134.111 109.664 134.076 109.866 134.076 110.056C134.076 110.4 134.15 110.705 134.298 110.972C134.446 111.23 134.654 111.432 134.924 111.579C135.194 111.725 135.512 111.798 135.877 111.798C136.147 111.798 136.408 111.742 136.66 111.63C136.912 111.518 137.13 111.368 137.313 111.178C137.504 110.981 137.652 110.757 137.756 110.507L137.887 109.436C137.843 109.178 137.739 108.95 137.574 108.752C137.408 108.545 137.204 108.386 136.96 108.274C136.717 108.154 136.438 108.094 136.125 108.094Z" fill="black"/>
</g>
</g>
<defs>
<clipPath id="clip0_356_20">
<rect width="467" height="487" fill="white"/>
</clipPath>
<clipPath id="clip1_356_20">
<rect width="134" height="37" fill="white" transform="translate(69 89)"/>
</clipPath>
</defs>
</svg>
