<svg width="276" height="226" viewBox="0 0 276 226" fill="none" xmlns="http://www.w3.org/2000/svg">
<g clip-path="url(#clip0_40_78)">
<path d="M145.293 225.235H133.287V132.466H143.051C143.524 132.466 143.978 132.654 144.313 132.989C144.648 133.323 144.838 133.778 144.84 134.253L145.293 225.235Z" fill="#CCCCCC"/>
<path d="M134.409 225.727H5.47949V159.659H134.409V225.727Z" fill="white"/>
<path d="M83.5914 225.481H5.72412V159.904H134.164V174.707C134.149 188.169 128.816 201.074 119.335 210.593C109.854 220.111 96.9995 225.466 83.5914 225.481Z" fill="#F2F2F2"/>
<path d="M143.338 135.101C143.273 135.224 143.223 135.354 143.188 135.489L138.742 152.693L133.92 161.863H5.96924V159.579L13.2539 152.693L21.7518 136.374C22.1269 135.654 22.6196 135.002 23.2093 134.445C24.5548 133.173 26.3327 132.466 28.1802 132.466H141.756C142.064 132.466 142.368 132.546 142.636 132.698C142.904 132.85 143.129 133.07 143.288 133.335C143.448 133.6 143.536 133.902 143.544 134.211C143.553 134.521 143.482 134.827 143.338 135.101Z" fill="#F2F2F2"/>
<path d="M134.409 225.727H5.47949V159.659H134.409V225.727ZM6.45822 224.744H133.43V160.641H6.45822V224.744Z" fill="#E6E6E6"/>
<path d="M141.117 143.902L138.742 152.693H13.2539L17.3088 145.376L141.117 143.902Z" fill="#CCCCCC"/>
<path d="M30.7865 194.279H10.2339V195.421H30.7865V194.279Z" fill="white"/>
<path d="M30.7865 198.276H10.2339V199.418H30.7865V198.276Z" fill="white"/>
<path d="M30.7865 202.272H10.2339V203.414H30.7865V202.272Z" fill="white"/>
<path d="M18.1954 181.56C22.2783 181.56 25.5881 178.237 25.5881 174.138C25.5881 170.038 22.2783 166.715 18.1954 166.715C14.1126 166.715 10.8027 170.038 10.8027 174.138C10.8027 178.237 14.1126 181.56 18.1954 181.56Z" fill="white"/>
<path d="M99.2209 147.708H92.9424V99.1932H98.0486C98.2959 99.1932 98.5331 99.2916 98.7085 99.4667C98.8838 99.6418 98.9829 99.8795 98.9841 100.128L99.2209 147.708Z" fill="#CCCCCC"/>
<path d="M93.5292 147.964H26.105V113.414H93.5292V147.964Z" fill="white"/>
<path d="M66.9539 147.836H26.2329V113.542H93.4012V121.284C93.3933 128.323 90.6043 135.072 85.6462 140.05C80.6881 145.028 73.9657 147.828 66.9539 147.836Z" fill="#F2F2F2"/>
<path d="M98.1983 100.571C98.1644 100.636 98.1381 100.704 98.1199 100.774L95.7949 109.771L93.2731 114.566H26.3608V113.372L30.1704 109.771L34.6144 101.237C34.8106 100.861 35.0682 100.519 35.3766 100.228C36.0802 99.5634 37.01 99.1932 37.9762 99.1932H97.371C97.5323 99.1932 97.6908 99.2351 97.8312 99.3147C97.9716 99.3943 98.0891 99.509 98.1723 99.6477C98.2556 99.7863 98.3017 99.9442 98.3062 100.106C98.3108 100.268 98.2736 100.428 98.1983 100.571Z" fill="#F2F2F2"/>
<path d="M93.5292 147.964H26.105V113.414H93.5292V147.964ZM26.6168 147.45H93.0173V113.928H26.6168V147.45Z" fill="#E6E6E6"/>
<path d="M97.0373 105.174L95.7953 109.771H30.1709L32.2913 105.944L97.0373 105.174Z" fill="#CCCCCC"/>
<path d="M39.3394 131.519H28.5913V132.116H39.3394V131.519Z" fill="white"/>
<path d="M39.3394 133.609H28.5913V134.206H39.3394V133.609Z" fill="white"/>
<path d="M39.3394 135.699H28.5913V136.296H39.3394V135.699Z" fill="white"/>
<path d="M32.7547 124.867C34.8899 124.867 36.6208 123.129 36.6208 120.986C36.6208 118.842 34.8899 117.104 32.7547 117.104C30.6196 117.104 28.8887 118.842 28.8887 120.986C28.8887 123.129 30.6196 124.867 32.7547 124.867Z" fill="white"/>
<path d="M303.732 225.607C303.732 225.683 303.717 225.759 303.688 225.831C303.659 225.902 303.616 225.966 303.562 226.02C303.508 226.075 303.444 226.118 303.373 226.147C303.302 226.176 303.226 226.191 303.15 226.191H-8.22625C-8.3807 226.191 -8.52882 226.13 -8.63803 226.02C-8.74724 225.91 -8.80859 225.762 -8.80859 225.607C-8.80859 225.451 -8.74724 225.303 -8.63803 225.193C-8.52882 225.083 -8.3807 225.022 -8.22625 225.022H303.15C303.226 225.022 303.302 225.037 303.373 225.066C303.444 225.095 303.508 225.138 303.562 225.193C303.616 225.247 303.659 225.311 303.688 225.383C303.717 225.454 303.732 225.53 303.732 225.607Z" fill="#CCCCCC"/>
<path d="M233.105 76.0167L224.192 74.735C221.178 79.7954 220.107 93.2645 220.107 93.2645L211.384 114.078C210.807 114.472 210.342 115.012 210.039 115.643C209.735 116.274 209.602 116.975 209.653 117.674C209.705 118.373 209.939 119.046 210.332 119.626C210.725 120.205 211.263 120.671 211.892 120.975C212.521 121.279 213.219 121.412 213.916 121.359C214.612 121.307 215.282 121.071 215.859 120.676C216.436 120.28 216.898 119.739 217.201 119.108C217.503 118.476 217.634 117.775 217.581 117.076L231.902 92.8493L233.105 76.0167Z" fill="#FFB8B8"/>
<path d="M231.686 51.175C233.066 51.3894 234.381 51.9065 235.539 52.6895C236.697 53.4724 237.668 54.5018 238.385 55.7046C239.101 56.9075 239.545 58.254 239.684 59.6485C239.824 61.043 239.655 62.4512 239.19 63.7728L237.299 69.155C237.299 69.155 236.27 85.3606 232.343 89.935L220.295 88.84C220.295 88.84 222.498 80.6641 220.807 76.7083C219.771 74.2856 219.828 65.9182 220.849 59.1115C221.04 57.8754 221.472 56.6893 222.121 55.6211C222.769 54.5529 223.621 53.6237 224.628 52.8865C225.634 52.1493 226.776 51.6187 227.987 51.325C229.198 51.0313 230.455 50.9803 231.686 51.175Z" fill="#E6E6E6"/>
<path d="M261.141 219.327L255.772 219.327L253.218 198.536L261.142 198.537L261.141 219.327Z" fill="#FFB6B6"/>
<path d="M261.33 224.95L244.82 224.949V224.74C244.82 223.029 245.497 221.388 246.703 220.178C247.908 218.968 249.542 218.288 251.246 218.288H251.247L254.262 215.991L259.889 218.289L261.33 218.289L261.33 224.95Z" fill="#2F2E41"/>
<path d="M237.8 193.561L232.841 195.625L222.548 177.403L229.868 174.356L237.8 193.561Z" fill="#FFB6B6"/>
<path d="M240.12 198.682L224.87 205.031L224.79 204.837C224.137 203.256 224.136 201.48 224.788 199.899C225.439 198.318 226.69 197.062 228.264 196.406L228.264 196.406L230.174 193.125L236.248 193.083L237.579 192.528L240.12 198.682Z" fill="#2F2E41"/>
<path d="M267.279 101.059L229.178 105.055L224.082 122.289L206.432 150.766L225.92 186.714L232.783 180.529L226.195 151.501L245.858 130.189L249.587 128.636L252.546 207.72L263.493 207.9L268.284 120.636C270.586 112.927 269.893 106.562 267.279 101.059Z" fill="#2F2E41"/>
<path d="M253.31 46.5008L247.057 39.4311L237.175 40.5334L230.848 49.4225C227.481 50.1998 224.538 52.2433 222.625 55.1325C220.713 58.0218 219.976 61.5371 220.566 64.9552C223.021 79.1484 231.365 92.914 228.61 99.9169C224.428 110.547 224.173 114.883 234.183 113.392C244.194 111.902 277.731 108.466 271.229 101.938C264.727 95.4103 263.299 84.5019 263.299 84.5019L263.038 59.5452C263.314 58.04 263.278 56.4936 262.93 55.0034C262.582 53.5132 261.931 52.1113 261.017 50.8861C260.103 49.6609 258.947 48.6387 257.621 47.884C256.294 47.1293 254.827 46.6584 253.31 46.5008L253.31 46.5008Z" fill="#E6E6E6"/>
<path d="M241.089 37.622C247.148 37.622 252.059 32.6914 252.059 26.6092C252.059 20.527 247.148 15.5964 241.089 15.5964C235.031 15.5964 230.12 20.527 230.12 26.6092C230.12 32.6914 235.031 37.622 241.089 37.622Z" fill="#FFB8B8"/>
<path d="M254.605 25.9553C254.115 28.1866 253.232 30.3119 251.996 32.2308C251.668 32.885 251.178 33.4436 250.573 33.8529C250.267 34.0503 249.901 34.1335 249.54 34.0882C249.179 34.0429 248.845 33.8719 248.597 33.6049L248.33 33.3866C248.853 33.0629 249.32 32.6557 249.713 32.1811C249.908 31.943 250.043 31.6616 250.108 31.3605C250.172 31.0594 250.164 30.7472 250.084 30.4498C249.989 30.1565 249.785 29.9116 249.514 29.7663C249.243 29.6211 248.927 29.5869 248.631 29.671C247.989 29.924 247.599 30.8566 246.927 30.7128C246.383 30.5937 246.269 29.8744 246.269 29.3088C246.289 26.3521 244.866 22.1503 243.764 22.2793C242.651 22.3404 241.536 22.1906 240.478 21.8378C239.419 21.4844 238.301 21.3411 237.187 21.4161C237.108 21.426 237.029 21.441 236.945 21.4558C236.767 20.8941 236.521 20.356 236.214 19.8535C236.249 20.4601 236.219 21.0688 236.125 21.6691C235.239 22.0359 234.323 22.3263 233.388 22.5373C232.37 22.6811 230.131 25.737 230.028 25.4245C229.849 24.8627 229.603 24.3247 229.296 23.8221C229.331 24.4288 229.301 25.0374 229.207 25.6378C229.202 25.6626 229.202 25.6824 229.197 25.7072C228.703 25.0474 228.402 24.2438 228.57 24.8589C226.915 21.0986 227.557 18.4049 230.161 15.2349C230.669 14.5533 231.34 14.0122 232.113 13.6623C232.5 13.4917 232.924 13.4239 233.345 13.4656C233.765 13.5074 234.168 13.6571 234.514 13.9005C235.576 12.9228 236.88 12.2482 238.289 11.9464C239.698 11.6446 241.162 11.7266 242.529 12.184C245.242 13.1315 247.332 13.6872 247.747 16.5446C249.99 16.1824 252.298 17.4623 253.533 19.3722C254.763 21.2872 255.015 23.718 254.605 25.9553Z" fill="#2F2E41"/>
<path d="M245.71 117.427H242.069V89.295H245.03C245.174 89.295 245.311 89.352 245.413 89.4535C245.515 89.5551 245.572 89.6929 245.573 89.8369L245.71 117.427Z" fill="#3F3D56"/>
<path d="M242.41 117.576H203.313V97.541H242.41V117.576Z" fill="white"/>
<path d="M227 117.501H203.387V97.6155H242.336V102.104C242.331 106.186 240.714 110.1 237.839 112.986C234.964 115.873 231.066 117.496 227 117.501Z" fill="#5A8BB7"/>
<path d="M245.117 90.0941C245.098 90.1314 245.082 90.1709 245.072 90.2117L243.724 95.4289L242.261 98.2093H203.461V97.5168L205.67 95.4289L208.247 90.4802C208.361 90.2618 208.511 90.064 208.689 89.8951C209.097 89.5096 209.636 89.295 210.197 89.295H244.638C244.731 89.295 244.823 89.3193 244.905 89.3654C244.986 89.4116 245.054 89.4781 245.102 89.5585C245.151 89.6389 245.177 89.7305 245.18 89.8243C245.183 89.9181 245.161 90.0111 245.117 90.0941Z" fill="#3F3D56"/>
<path d="M242.41 117.576H203.313V97.541H242.41V117.576ZM203.61 117.278H242.113V97.839H203.61V117.278Z" fill="#3F3D56"/>
<path d="M244.444 92.7626L243.724 95.4289H205.67L206.9 93.2097L244.444 92.7626Z" fill="#5A8BB7"/>
<path d="M210.987 108.039H204.754V108.386H210.987V108.039Z" fill="white"/>
<path d="M210.987 109.251H204.754V109.598H210.987V109.251Z" fill="white"/>
<path d="M210.987 110.463H204.754V110.81H210.987V110.463Z" fill="white"/>
<path d="M207.169 104.182C208.407 104.182 209.41 103.175 209.41 101.932C209.41 100.689 208.407 99.6809 207.169 99.6809C205.93 99.6809 204.927 100.689 204.927 101.932C204.927 103.175 205.93 104.182 207.169 104.182Z" fill="white"/>
<path d="M260.92 73.4446L252.008 72.1629C248.993 77.2233 247.922 90.6924 247.922 90.6924L239.2 111.506C238.622 111.9 238.158 112.44 237.854 113.071C237.55 113.702 237.417 114.403 237.469 115.102C237.52 115.801 237.754 116.474 238.147 117.054C238.54 117.633 239.079 118.099 239.708 118.403C240.337 118.707 241.035 118.84 241.731 118.787C242.427 118.735 243.098 118.499 243.674 118.104C244.251 117.708 244.714 117.167 245.016 116.535C245.319 115.903 245.45 115.203 245.397 114.504L259.718 90.2772L260.92 73.4446Z" fill="#FFB8B8"/>
<path d="M256.09 48.6029C257.469 48.8174 258.784 49.3345 259.942 50.1174C261.1 50.9003 262.072 51.9298 262.788 53.1326C263.505 54.3354 263.949 55.6819 264.088 57.0764C264.227 58.4709 264.058 59.8791 263.594 61.2007L261.703 66.5829C261.703 66.5829 264.085 82.7885 260.159 87.3629L248.11 86.2679C248.11 86.2679 250.313 78.092 248.622 74.1361C247.586 71.7135 247.644 63.3461 248.664 56.5394C249.444 51.3419 250.916 47.7985 256.09 48.6029Z" fill="#E6E6E6"/>
<path d="M180.409 21.7893C176.054 23.9696 172.741 27.7974 171.197 32.4304C169.654 37.0635 170.007 42.1224 172.179 46.4942C176.701 55.598 193.043 71.1246 206.082 73.4705C200.473 56.3731 208.272 38.9944 205.016 30.0523C201.538 20.4973 189.477 17.249 180.409 21.7893Z" fill="#5A8BB7"/>
<path d="M186.521 43.4412C189.826 43.4412 192.505 40.7516 192.505 37.4338C192.505 34.116 189.826 31.4263 186.521 31.4263C183.217 31.4263 180.538 34.116 180.538 37.4338C180.538 40.7516 183.217 43.4412 186.521 43.4412Z" fill="white"/>
<path d="M205.967 83.1129C208.131 83.1129 209.886 81.3513 209.886 79.1782C209.886 77.0051 208.131 75.2434 205.967 75.2434C203.802 75.2434 202.047 77.0051 202.047 79.1782C202.047 81.3513 203.802 83.1129 205.967 83.1129Z" fill="#5A8BB7"/>
<path opacity="0.2" d="M188.345 31.1188C189.13 31.0914 189.914 31.2197 190.65 31.4964C191.386 31.7732 192.061 32.1929 192.636 32.7315C193.21 33.2702 193.674 33.9173 193.999 34.6358C194.325 35.3543 194.506 36.1302 194.532 36.919C194.559 37.7079 194.431 38.4943 194.154 39.2333C193.878 39.9723 193.46 40.6494 192.923 41.2259C192.386 41.8023 191.741 42.2669 191.025 42.5931C190.309 42.9192 189.536 43.1005 188.75 43.1266C190.082 42.6293 191.194 41.6725 191.887 40.4273C192.58 39.1822 192.809 37.73 192.533 36.3307C192.258 34.9314 191.495 33.6764 190.381 32.7901C189.268 31.9039 187.877 31.4444 186.457 31.4938C187.062 31.2674 187.699 31.1407 188.345 31.1188Z" fill="#231F20"/>
<path opacity="0.2" d="M205.046 30.0558C208.302 38.9979 200.503 56.3766 206.112 73.474C204.881 73.2465 203.669 72.9279 202.485 72.5209C197.915 55.993 205.088 39.4777 201.942 30.838C199.127 23.1053 190.691 19.504 182.77 20.8178C191.464 17.8409 201.859 21.2995 205.046 30.0558Z" fill="#231F20"/>
<path d="M21.3656 113.02C16.858 112.911 12.492 114.605 9.22815 117.728C5.96427 120.851 4.06982 125.148 3.96159 129.674C3.7362 139.097 10.4195 158.924 20.0861 166.518C22.8719 150.074 36.7601 139.233 37.9534 130.493C39.2284 121.154 30.7522 113.246 21.3656 113.02Z" fill="#D1D3D4"/>
<path d="M19.6192 134.059C22.6814 134.059 25.1637 131.567 25.1637 128.493C25.1637 125.418 22.6814 122.926 19.6192 122.926C16.5571 122.926 14.0747 125.418 14.0747 128.493C14.0747 131.567 16.5571 134.059 19.6192 134.059Z" fill="white"/>
<path d="M17.5285 174.788C19.5342 174.788 21.1601 173.156 21.1601 171.142C21.1601 169.129 19.5342 167.497 17.5285 167.497C15.5229 167.497 13.897 169.129 13.897 171.142C13.897 173.156 15.5229 174.788 17.5285 174.788Z" fill="#D1D3D4"/>
<path opacity="0.2" d="M23.8386 124.114C25.1609 124.759 26.1735 125.906 26.6537 127.302C27.1338 128.697 27.0422 130.227 26.3989 131.554C26.0804 132.212 25.6361 132.799 25.0913 133.284C24.5465 133.769 23.9118 134.142 23.2237 134.381C21.8338 134.863 20.3101 134.771 18.9878 134.125C20.2931 134.297 21.6168 133.997 22.722 133.279C23.8272 132.56 24.6417 131.471 25.0197 130.205C25.3978 128.939 25.3147 127.579 24.7854 126.369C24.2561 125.158 23.315 124.177 22.1307 123.6C22.7239 123.677 23.3006 123.851 23.8386 124.114Z" fill="#231F20"/>
<path opacity="0.2" d="M37.9767 130.509C36.7834 139.249 22.8953 150.09 20.1094 166.534C19.1996 165.812 18.3442 165.024 17.5503 164.175C20.9412 148.65 33.9438 138.244 35.0967 129.799C36.1286 122.241 30.7736 115.622 23.7184 113.251C32.1242 114.596 39.1452 121.951 37.9767 130.509Z" fill="#231F20"/>
<path d="M85.8641 40.4907C84.5973 40.5739 83.4128 41.1502 82.5626 42.0968C81.7125 43.0435 81.2639 44.2858 81.3121 45.5595C81.326 45.8182 81.3612 46.0754 81.4174 46.3283L67.0312 55.4274L74.9847 58.959L87.4266 49.7769C88.4532 49.462 89.347 48.8148 89.9686 47.9362C90.5903 47.0577 90.9048 45.9972 90.863 44.9204C90.8334 44.3079 90.6839 43.7072 90.423 43.1527C90.1622 42.5982 89.7951 42.1007 89.3428 41.6887C88.8904 41.2766 88.3617 40.958 87.7867 40.7511C87.2117 40.5442 86.6017 40.453 85.9916 40.4827C85.9491 40.4848 85.9066 40.4875 85.8641 40.4907Z" fill="#FFB6B6"/>
<path d="M71.9915 51.2918L75.5569 58.6775L61.4595 67.7852C60.4565 68.4388 59.3036 68.8241 58.1104 68.9043C56.9172 68.9846 55.7235 68.7572 54.6425 68.2437C53.3283 67.6122 52.2542 66.5689 51.582 65.2711C50.9098 63.9732 50.6761 62.4913 50.9159 61.0484L55.4902 34.83C55.7973 32.9952 56.793 31.3484 58.2725 30.2281C59.7521 29.1079 61.6029 28.5994 63.4444 28.8073C64.3414 28.9058 65.2102 29.1806 66.0014 29.6162C66.7925 30.0518 67.4905 30.6396 68.0553 31.346C68.6202 32.0523 69.041 32.8635 69.2937 33.7332C69.5463 34.6028 69.6258 35.5139 69.5278 36.4144C69.52 36.4856 69.5112 36.5566 69.5012 36.6275C69.4666 36.8794 69.4185 37.1293 69.3572 37.376L64.3634 56.0221L71.9915 51.2918Z" fill="#5A8BB7"/>
<path d="M72.9933 62.7413H52.8325V82.9822H72.9933V62.7413Z" fill="#FFB8B8"/>
<path d="M120.805 122.352L128.504 119.751L132.792 140.793L127.575 142.555L120.805 122.352Z" fill="#FFB6B6"/>
<path d="M107.755 120.735L115.392 117.955L120.167 138.891L114.992 140.774L107.755 120.735Z" fill="#FFB6B6"/>
<path d="M53.556 88.2701C49.5151 115.316 103.326 99.326 103.326 99.326L120.198 122.693L130.076 120.89C130.076 120.89 125.631 106.862 117.694 88.0568C114.169 79.7055 74.1423 81.7461 74.1423 81.7461L73.3112 75.1978L50.4131 74.7471L53.556 88.2701Z" fill="#2F2E41"/>
<path d="M92.4263 101.139L104.869 93.3586C113.979 111.621 116.664 119.53 116.664 119.53L108.052 121.961L92.4263 101.139Z" fill="#2F2E41"/>
<path d="M65.073 29.8499L61.015 24.6131L55.2264 24.3611L54.6487 29.2864L51.7804 30.6143C48.9165 41.5379 48.4742 52.9592 50.4847 64.0731C50.8691 64.4365 51.15 64.8962 51.2983 65.4049C51.4467 65.9136 51.4572 66.4528 51.3288 66.967L51.1428 67.7112L51.16 67.7385C51.7703 68.7054 51.9774 69.8744 51.7365 70.9932L50.3668 73.4368C49.8752 74.3156 49.5803 75.2913 49.5023 76.2961C49.4244 77.3009 49.5654 78.3107 49.9155 79.2552C50.2657 80.1998 50.8165 81.0564 51.5298 81.7656C52.2431 82.4748 53.1017 83.0194 54.0459 83.3617C62.4656 86.4257 70.3584 87.567 76.1974 78.969L78.0335 49.0064L65.073 29.8499Z" fill="#5A8BB7"/>
<path d="M60.8219 26.0037C66.7329 26.0037 71.5247 21.1929 71.5247 15.2585C71.5247 9.32406 66.7329 4.51324 60.8219 4.51324C54.9109 4.51324 50.1191 9.32406 50.1191 15.2585C50.1191 21.1929 54.9109 26.0037 60.8219 26.0037Z" fill="#FFB8B8"/>
<path d="M55.449 2.30527C50.9173 2.39268 47.3231 6.61285 47.4211 11.7313C44.0675 15.2444 43.2551 32.5241 46.0572 37.1209C51.1831 37.7183 54.301 24.9863 58.7962 26.8269L59.3885 24.0483L60.7309 27.6667C61.8733 28.1954 63.0071 28.7758 64.1322 29.4079C64.9408 25.6843 64.7403 22.0649 62.5671 18.9124C60.6364 16.1116 65.3349 12.7866 68.695 13.2566L68.6458 10.6843L69.4898 13.2413C70.7996 14.2076 72.2485 13.8577 73.7343 13.1594C76.1436 0.587812 57.4901 -2.85011 55.449 2.30527Z" fill="#2F2E41"/>
<path d="M125.203 146.114L128.634 145.664L128.823 142.332L130.814 145.378L139.913 144.185C140.349 144.128 140.755 143.932 141.073 143.626C141.39 143.321 141.602 142.921 141.678 142.486C141.753 142.051 141.688 141.604 141.492 141.208C141.296 140.813 140.979 140.491 140.588 140.289L132.667 136.204L132.239 132.917L124.656 134.377L125.203 146.114Z" fill="#2F2E41"/>
<path d="M116.143 146.144L119.255 144.627L118.384 141.406L121.233 143.662L129.487 139.639C129.883 139.446 130.207 139.131 130.412 138.74C130.616 138.349 130.691 137.903 130.626 137.466C130.56 137.03 130.357 136.626 130.047 136.313C129.736 136.001 129.334 135.796 128.899 135.729L120.097 134.372L118.655 131.39L111.923 135.185L116.143 146.144Z" fill="#2F2E41"/>
<path d="M69.1631 74.4897H72.9792V45.0028H69.8756C69.7253 45.0028 69.5811 45.0625 69.4746 45.169C69.368 45.2754 69.3078 45.4199 69.307 45.5708L69.1631 74.4897Z" fill="#CCCCCC"/>
<path d="M72.6221 53.6461H113.602V74.6458H72.6221V53.6461Z" fill="white"/>
<path d="M72.7002 58.4293V53.7242H113.525V74.5677H88.7748C84.513 74.5629 80.4272 72.861 77.4137 69.8355C74.4001 66.81 72.705 62.708 72.7002 58.4293Z" fill="#F2F2F2"/>
<path d="M69.7846 45.8404C69.8052 45.8795 69.8212 45.9209 69.8322 45.9637L71.2453 51.4322L72.7781 54.3466H113.447V53.6207L111.132 51.4322L108.431 46.2452C108.311 46.0162 108.155 45.8089 107.967 45.6318C107.54 45.2278 106.975 45.0028 106.387 45.0028H70.2874C70.1894 45.0028 70.093 45.0282 70.0077 45.0766C69.9224 45.125 69.8509 45.1948 69.8004 45.279C69.7498 45.3633 69.7217 45.4593 69.719 45.5576C69.7162 45.656 69.7388 45.7534 69.7846 45.8404Z" fill="#F2F2F2"/>
<path d="M72.6221 53.6461H113.602V74.6458H72.6221V53.6461ZM113.291 74.3335H72.9331V53.9584H113.291L113.291 74.3335Z" fill="#E6E6E6"/>
<path d="M70.4902 48.6376L71.2453 51.4322H111.132L109.843 49.1063L70.4902 48.6376Z" fill="#CCCCCC"/>
<path d="M112.091 64.6503H105.559V65.0132H112.091V64.6503Z" fill="white"/>
<path d="M112.091 65.9205H105.559V66.2834H112.091V65.9205Z" fill="white"/>
<path d="M112.091 67.1908H105.559V67.5537H112.091V67.1908Z" fill="white"/>
<path d="M109.561 60.6073C110.858 60.6073 111.91 59.5511 111.91 58.2482C111.91 56.9453 110.858 55.8891 109.561 55.8891C108.263 55.8891 107.211 56.9453 107.211 58.2482C107.211 59.5511 108.263 60.6073 109.561 60.6073Z" fill="white"/>
<path d="M90.6051 22.6026C93.3671 22.5361 96.0423 23.5738 98.0422 25.4874C100.042 27.4011 101.203 30.0341 101.269 32.807C101.407 38.5814 97.3122 50.73 91.3891 55.3831C89.682 45.3075 81.1722 38.6647 80.441 33.3092C79.6597 27.5866 84.8535 22.7413 90.6051 22.6026Z" fill="#D1D3D4"/>
<path d="M91.6752 35.4942C93.5515 35.4942 95.0726 33.9671 95.0726 32.0833C95.0726 30.1996 93.5515 28.6725 91.6752 28.6725C89.7989 28.6725 88.2778 30.1996 88.2778 32.0833C88.2778 33.9671 89.7989 35.4942 91.6752 35.4942Z" fill="white"/>
<path d="M92.9567 60.4509C94.1856 60.4509 95.1819 59.4507 95.1819 58.2168C95.1819 56.983 94.1856 55.9828 92.9567 55.9828C91.7277 55.9828 90.7314 56.983 90.7314 58.2168C90.7314 59.4507 91.7277 60.4509 92.9567 60.4509Z" fill="#D1D3D4"/>
<path opacity="0.2" d="M89.0899 29.4002C88.6887 29.5961 88.3299 29.8695 88.0339 30.2046C87.7379 30.5398 87.5106 30.9302 87.3649 31.3536C87.2193 31.7769 87.1581 32.2249 87.1848 32.672C87.2116 33.1191 87.3258 33.5566 87.521 33.9594C87.7162 34.3621 87.9884 34.7224 88.3223 35.0195C88.6561 35.3167 89.045 35.5449 89.4667 35.6911C89.8884 35.8374 90.3346 35.8988 90.7799 35.872C91.2253 35.8451 91.661 35.7304 92.0622 35.5344C91.2623 35.6399 90.4512 35.4561 89.7741 35.016C89.0969 34.5759 88.5978 33.9082 88.3661 33.1325C88.1345 32.3567 88.1854 31.5234 88.5097 30.7819C88.8341 30.0404 89.4107 29.4389 90.1364 29.0852C89.7729 29.1328 89.4195 29.2392 89.0899 29.4002Z" fill="#231F20"/>
<path opacity="0.2" d="M80.4268 33.3189C81.158 38.6744 89.6679 45.3173 91.3749 55.3929C91.9324 54.9506 92.4565 54.4676 92.943 53.9477C90.8652 44.4349 82.898 38.0585 82.1915 32.884C81.5592 28.2529 84.8405 24.1967 89.1635 22.7443C84.0129 23.568 79.7109 28.0748 80.4268 33.3189Z" fill="#231F20"/>
<path d="M84.5532 50.9658C83.2871 50.8717 82.0344 51.2773 81.0616 52.0963C80.0888 52.9153 79.4727 54.0831 79.3445 55.3511C79.3224 55.6093 79.3217 55.8689 79.3423 56.1271L63.8374 63.1332L71.2255 67.7391L84.8166 60.3798C85.8767 60.2111 86.8514 59.6947 87.5885 58.9113C88.3256 58.1279 88.7837 57.1216 88.8912 56.0493C89.003 54.816 88.6222 53.5885 87.8325 52.637C87.0429 51.6855 85.9091 51.0879 84.6806 50.9757C84.6382 50.9718 84.5957 50.9685 84.5532 50.9658Z" fill="#FFB6B6"/>
<path d="M69.3214 59.7288L71.8311 67.5399L56.6109 74.5947C55.5272 75.1022 54.3322 75.323 53.1395 75.2362C51.9468 75.1494 50.796 74.7578 49.7965 74.0987C48.5824 73.2901 47.6629 72.1072 47.1767 70.7283C46.6905 69.3494 46.6639 67.8491 47.1009 66.4537L55.2561 41.1266C55.8139 39.3524 57.0277 37.8603 58.6478 36.9571C60.2679 36.0539 62.1711 35.8083 63.966 36.2708C64.8407 36.4933 65.6631 36.8866 66.3864 37.4282C67.1096 37.9699 67.7196 38.6492 68.1813 39.4275C68.6431 40.2058 68.9476 41.0677 69.0775 41.9642C69.2075 42.8606 69.1603 43.774 68.9387 44.6521C68.9211 44.7215 68.9026 44.7906 68.8829 44.8594C68.8138 45.1041 68.7316 45.3448 68.6368 45.5806L61.1132 63.3502L69.3214 59.7288Z" fill="#5A8BB7"/>
</g>
<defs>
<clipPath id="clip0_40_78">
<rect width="276" height="226" fill="white"/>
</clipPath>
</defs>
</svg>
