<svg width="716" height="465" viewBox="0 0 716 465" fill="none" xmlns="http://www.w3.org/2000/svg">
<g clip-path="url(#clip0_67_3913)">
<path d="M716 399.757H0V400.115H716V399.757Z" fill="#EBEBEB"/>
<path d="M248.051 408.885H214.857V409.243H248.051V408.885Z" fill="#EBEBEB"/>
<path d="M656.959 416.554H575.807V416.912H656.959V416.554Z" fill="#EBEBEB"/>
<path d="M142.326 416.554H61.175V416.912H142.326V416.554Z" fill="#EBEBEB"/>
<path d="M339.384 335.945H62.8791C60.713 335.941 58.6369 335.078 57.1066 333.547C55.5762 332.015 54.7167 329.939 54.7167 327.775V-60.5788C54.7356 -62.7306 55.6034 -64.7881 57.1317 -66.3044C58.66 -67.8207 60.7254 -68.6733 62.8791 -68.6769H339.384C341.553 -68.6769 343.632 -67.8162 345.166 -66.2841C346.699 -64.752 347.561 -62.674 347.561 -60.5073V-60.5073V327.775C347.561 329.942 346.699 332.02 345.166 333.552C343.632 335.084 341.553 335.945 339.384 335.945V335.945ZM62.8791 -68.3908C60.808 -68.387 58.8229 -67.5623 57.3597 -66.0977C55.8965 -64.633 55.0747 -62.6482 55.0747 -60.5788V327.775C55.0747 329.844 55.8965 331.829 57.3597 333.294C58.8229 334.758 60.808 335.583 62.8791 335.587H339.384C341.455 335.579 343.44 334.754 344.904 333.29C346.369 331.827 347.195 329.844 347.203 327.775V-60.5788C347.195 -62.6483 346.369 -64.631 344.904 -66.0944C343.44 -67.5578 341.455 -68.3832 339.384 -68.3908H62.8791Z" fill="#EBEBEB"/>
<path d="M649.14 335.945H372.621C370.454 335.937 368.379 335.074 366.847 333.543C365.315 332.013 364.452 329.939 364.444 327.775V-60.5788C364.467 -62.7319 365.338 -64.7894 366.868 -66.3053C368.399 -67.8212 370.466 -68.6733 372.621 -68.6769H649.14C651.291 -68.6695 653.353 -67.8153 654.878 -66.2994C656.403 -64.7835 657.269 -62.7282 657.288 -60.5788V327.775C657.29 328.846 657.081 329.907 656.672 330.897C656.264 331.887 655.664 332.787 654.907 333.546C654.151 334.304 653.252 334.907 652.262 335.318C651.273 335.73 650.212 335.943 649.14 335.945V335.945ZM372.621 -68.3908C370.549 -68.3832 368.565 -67.5578 367.1 -66.0944C365.636 -64.631 364.81 -62.6483 364.802 -60.5788V327.775C364.81 329.844 365.636 331.827 367.1 333.29C368.565 334.754 370.549 335.579 372.621 335.587H649.14C651.211 335.579 653.196 334.754 654.66 333.29C656.125 331.827 656.951 329.844 656.959 327.775V-60.5788C656.951 -62.6483 656.125 -64.631 654.66 -66.0944C653.196 -67.5578 651.211 -68.3832 649.14 -68.3908H372.621Z" fill="#EBEBEB"/>
<path d="M141.338 39.2174H260.624C261.824 39.2155 263.013 39.4503 264.123 39.9084C265.232 40.3664 266.24 41.0388 267.089 41.8868C267.937 42.7348 268.61 43.7418 269.069 44.8502C269.527 45.9585 269.762 47.1464 269.76 48.3457V399.428H132.288V48.3314C132.292 45.9277 133.244 43.6224 134.939 41.9161C136.633 40.2097 138.933 39.24 141.338 39.2174V39.2174Z" fill="#F5F5F5"/>
<path d="M161.358 60.4929H143.63V99.9249H161.358V60.4929Z" fill="#EBEBEB"/>
<path d="M258.304 60.4929H240.576V99.9249H258.304V60.4929Z" fill="#EBEBEB"/>
<path d="M193.664 60.4929H175.936V99.9249H193.664V60.4929Z" fill="#EBEBEB"/>
<path d="M225.984 60.4929H208.256V99.9249H225.984V60.4929Z" fill="#EBEBEB"/>
<path d="M161.358 122.746H143.63V162.178H161.358V122.746Z" fill="#EBEBEB"/>
<path d="M258.304 122.746H240.576V162.178H258.304V122.746Z" fill="#EBEBEB"/>
<path d="M193.664 122.746H175.936V162.178H193.664V122.746Z" fill="#EBEBEB"/>
<path d="M225.984 122.746H208.256V162.178H225.984V122.746Z" fill="#EBEBEB"/>
<path d="M161.358 184.984H143.63V224.416H161.358V184.984Z" fill="#EBEBEB"/>
<path d="M258.304 184.984H240.576V224.416H258.304V184.984Z" fill="#EBEBEB"/>
<path d="M193.664 184.984H175.936V224.416H193.664V184.984Z" fill="#EBEBEB"/>
<path d="M225.984 184.984H208.256V224.416H225.984V184.984Z" fill="#EBEBEB"/>
<path d="M161.358 247.237H143.63V286.669H161.358V247.237Z" fill="#EBEBEB"/>
<path d="M258.304 247.237H240.576V286.669H258.304V247.237Z" fill="#EBEBEB"/>
<path d="M193.664 247.237H175.936V286.669H193.664V247.237Z" fill="#EBEBEB"/>
<path d="M225.984 247.237H208.256V286.669H225.984V247.237Z" fill="#EBEBEB"/>
<path d="M161.358 309.475H143.63V348.907H161.358V309.475Z" fill="#EBEBEB"/>
<path d="M258.304 309.475H240.576V348.907H258.304V309.475Z" fill="#EBEBEB"/>
<path d="M193.664 309.475H175.936V348.907H193.664V309.475Z" fill="#EBEBEB"/>
<path d="M225.984 309.475H208.256V348.907H225.984V309.475Z" fill="#EBEBEB"/>
<path d="M564.122 71.9391H649.527C651.496 71.9429 653.385 72.7264 654.778 74.1182C656.171 75.51 656.955 77.3965 656.959 79.3648V399.428H556.719V79.3791C556.719 77.4133 557.497 75.5274 558.884 74.1333C560.272 72.7393 562.155 71.9504 564.122 71.9391V71.9391Z" fill="#F5F5F5"/>
<path d="M585.574 91.2974H569.464V127.138H585.574V91.2974Z" fill="#EBEBEB"/>
<path d="M614.958 91.2974H598.848V127.138H614.958V91.2974Z" fill="#EBEBEB"/>
<path d="M644.329 91.2974H628.219V127.138H644.329V91.2974Z" fill="#EBEBEB"/>
<path d="M585.574 147.884H569.464V183.725H585.574V147.884Z" fill="#EBEBEB"/>
<path d="M614.958 147.884H598.848V183.725H614.958V147.884Z" fill="#EBEBEB"/>
<path d="M644.329 147.884H628.219V183.725H644.329V147.884Z" fill="#EBEBEB"/>
<path d="M585.574 204.485H569.464V240.326H585.574V204.485Z" fill="#EBEBEB"/>
<path d="M614.958 204.485H598.848V240.326H614.958V204.485Z" fill="#EBEBEB"/>
<path d="M644.329 204.485H628.219V240.326H644.329V204.485Z" fill="#EBEBEB"/>
<path d="M585.574 261.058H569.464V296.899H585.574V261.058Z" fill="#EBEBEB"/>
<path d="M614.958 261.058H598.848V296.899H614.958V261.058Z" fill="#EBEBEB"/>
<path d="M644.329 261.058H628.219V296.899H644.329V261.058Z" fill="#EBEBEB"/>
<path d="M585.574 317.659H569.464V353.5H585.574V317.659Z" fill="#EBEBEB"/>
<path d="M614.958 317.659H598.848V353.5H614.958V317.659Z" fill="#EBEBEB"/>
<path d="M644.329 317.659H628.219V353.5H644.329V317.659Z" fill="#EBEBEB"/>
<path d="M368.468 -19.6588H507.2C510.018 -19.6588 512.721 -18.5403 514.713 -16.5494C516.706 -14.5584 517.826 -11.8581 517.826 -9.04251V399.428H357.857V-9.04251C357.857 -11.8557 358.974 -14.5538 360.964 -16.5443C362.953 -18.5349 365.652 -19.655 368.468 -19.6588Z" fill="#F5F5F5"/>
<path d="M391.752 5.10785H371.131V50.9783H391.752V5.10785Z" fill="#EBEBEB"/>
<path d="M504.537 5.10785H483.916V50.9783H504.537V5.10785Z" fill="#EBEBEB"/>
<path d="M429.342 5.10785H408.721V50.9783H429.342V5.10785Z" fill="#EBEBEB"/>
<path d="M466.946 5.10785H446.326V50.9783H466.946V5.10785Z" fill="#EBEBEB"/>
<path d="M391.752 77.5334H371.131V123.404H391.752V77.5334Z" fill="#EBEBEB"/>
<path d="M504.537 77.5334H483.916V123.404H504.537V77.5334Z" fill="#EBEBEB"/>
<path d="M429.342 77.5334H408.721V123.404H429.342V77.5334Z" fill="#EBEBEB"/>
<path d="M466.946 77.5334H446.326V123.404H466.946V77.5334Z" fill="#EBEBEB"/>
<path d="M391.752 149.959H371.131V195.829H391.752V149.959Z" fill="#EBEBEB"/>
<path d="M504.537 149.959H483.916V195.829H504.537V149.959Z" fill="#EBEBEB"/>
<path d="M429.342 149.959H408.721V195.829H429.342V149.959Z" fill="#EBEBEB"/>
<path d="M466.946 149.959H446.326V195.829H466.946V149.959Z" fill="#EBEBEB"/>
<path d="M391.752 222.37H371.131V268.241H391.752V222.37Z" fill="#EBEBEB"/>
<path d="M504.537 222.37H483.916V268.241H504.537V222.37Z" fill="#EBEBEB"/>
<path d="M429.342 222.37H408.721V268.241H429.342V222.37Z" fill="#EBEBEB"/>
<path d="M466.946 222.37H446.326V268.241H466.946V222.37Z" fill="#EBEBEB"/>
<path d="M391.752 294.781H371.131V340.652H391.752V294.781Z" fill="#EBEBEB"/>
<path d="M504.537 294.781H483.916V340.652H504.537V294.781Z" fill="#EBEBEB"/>
<path d="M429.342 294.781H408.721V340.652H429.342V294.781Z" fill="#EBEBEB"/>
<path d="M466.946 294.781H446.326V340.652H466.946V294.781Z" fill="#EBEBEB"/>
<path d="M357.842 130.443H269.717V399.442H357.842V130.443Z" fill="#E6E6E6"/>
<path d="M556.776 159.245H517.84V399.428H556.776V159.245Z" fill="#E6E6E6"/>
<path d="M132.202 399.428H55.0747V287.127L132.202 261.058V399.428Z" fill="#E6E6E6"/>
<path d="M358 464.37C511.342 464.37 635.651 454.192 635.651 441.636C635.651 429.079 511.342 418.901 358 418.901C204.658 418.901 80.3497 429.079 80.3497 441.636C80.3497 454.192 204.658 464.37 358 464.37Z" fill="#F5F5F5"/>
<path d="M426.278 351.855H401.934C389.261 351.855 379.022 370.212 379.022 392.861C379.022 415.51 389.289 433.852 401.934 433.852H426.278C438.951 433.852 449.19 415.495 449.19 392.861C449.19 370.226 438.951 351.855 426.278 351.855Z" fill="#263238"/>
<path opacity="0.05" d="M454.918 351.855H430.574C417.901 351.855 407.662 370.212 407.662 392.861C407.662 415.51 417.929 433.852 430.574 433.852H454.918C467.591 433.852 477.83 415.495 477.83 392.861C477.83 370.226 467.591 351.855 454.918 351.855Z" fill="white"/>
<path d="M623.478 360.64L197.186 360.339V88.2785H623.478V360.64Z" fill="#464561"/>
<path opacity="0.3" d="M623.479 88.2785H334.558V360.625H623.479V88.2785Z" fill="#263238"/>
<path opacity="0.2" d="M334.558 88.2785H197.186V366.005H334.558V88.2785Z" fill="white"/>
<path opacity="0.1" d="M198.218 100.927H623.479" stroke="white" stroke-width="2" stroke-linecap="round" stroke-linejoin="round"/>
<path opacity="0.1" d="M198.218 112.702H623.479" stroke="white" stroke-width="2" stroke-linecap="round" stroke-linejoin="round"/>
<path opacity="0.1" d="M198.218 124.463H623.479" stroke="white" stroke-width="2" stroke-linecap="round" stroke-linejoin="round"/>
<path opacity="0.1" d="M198.218 136.224H623.479" stroke="white" stroke-width="2" stroke-linecap="round" stroke-linejoin="round"/>
<path opacity="0.1" d="M198.218 147.999H623.479" stroke="white" stroke-width="2" stroke-linecap="round" stroke-linejoin="round"/>
<path opacity="0.1" d="M198.218 159.76H623.479" stroke="white" stroke-width="2" stroke-linecap="round" stroke-linejoin="round"/>
<path opacity="0.1" d="M198.218 171.521H623.479" stroke="white" stroke-width="2" stroke-linecap="round" stroke-linejoin="round"/>
<path opacity="0.1" d="M198.218 183.282H623.479" stroke="white" stroke-width="2" stroke-linecap="round" stroke-linejoin="round"/>
<path opacity="0.1" d="M198.218 195.057H623.479" stroke="white" stroke-width="2" stroke-linecap="round" stroke-linejoin="round"/>
<path opacity="0.1" d="M198.218 206.818H623.479" stroke="white" stroke-width="2" stroke-linecap="round" stroke-linejoin="round"/>
<path opacity="0.1" d="M198.218 218.579H623.479" stroke="white" stroke-width="2" stroke-linecap="round" stroke-linejoin="round"/>
<path opacity="0.1" d="M198.218 230.354H623.479" stroke="white" stroke-width="2" stroke-linecap="round" stroke-linejoin="round"/>
<path opacity="0.1" d="M198.218 242.115H623.479" stroke="white" stroke-width="2" stroke-linecap="round" stroke-linejoin="round"/>
<path opacity="0.1" d="M198.218 253.876H623.479" stroke="white" stroke-width="2" stroke-linecap="round" stroke-linejoin="round"/>
<path opacity="0.1" d="M198.218 265.637H623.479" stroke="white" stroke-width="2" stroke-linecap="round" stroke-linejoin="round"/>
<path opacity="0.1" d="M198.218 277.412H623.479" stroke="white" stroke-width="2" stroke-linecap="round" stroke-linejoin="round"/>
<path opacity="0.1" d="M198.218 289.173H623.479" stroke="white" stroke-width="2" stroke-linecap="round" stroke-linejoin="round"/>
<path opacity="0.1" d="M198.218 300.934H623.479" stroke="white" stroke-width="2" stroke-linecap="round" stroke-linejoin="round"/>
<path opacity="0.1" d="M198.218 312.709H623.479" stroke="white" stroke-width="2" stroke-linecap="round" stroke-linejoin="round"/>
<path opacity="0.1" d="M198.218 324.47H623.479" stroke="white" stroke-width="2" stroke-linecap="round" stroke-linejoin="round"/>
<path opacity="0.1" d="M198.218 336.231H623.479" stroke="white" stroke-width="2" stroke-linecap="round" stroke-linejoin="round"/>
<path opacity="0.1" d="M198.218 348.006H623.479" stroke="white" stroke-width="2" stroke-linecap="round" stroke-linejoin="round"/>
<path d="M118.956 357.206H96.4309C84.6885 357.206 75.1801 374.203 75.1801 395.179C75.1801 416.154 84.6885 433.137 96.4309 433.137H118.956C130.699 433.137 140.207 416.139 140.207 395.179C140.207 374.218 130.699 357.206 118.956 357.206Z" fill="#263238"/>
<path opacity="0.05" d="M147.611 357.206H125.071C113.329 357.206 103.82 374.203 103.82 395.179C103.82 416.154 113.329 433.137 125.071 433.137H147.611C159.339 433.137 168.862 416.139 168.862 395.179C168.862 374.218 159.339 357.206 147.611 357.206Z" fill="white"/>
<path d="M106.426 283.049H95.7722C93.6815 283.121 91.9631 280.889 91.9202 278.056C91.8916 277.761 91.8916 277.464 91.9202 277.169L94.7842 245.019C95.1422 241.714 97.1899 239.296 99.653 239.139H110.407C112.484 239.139 114.202 241.328 114.245 244.161C114.245 244.447 114.245 244.733 114.245 245.019L111.381 277.169C110.951 280.431 108.832 282.963 106.426 283.049Z" fill="#263238"/>
<path d="M117.08 176.857L96.5312 287.585L320.253 375.148L318.692 156.927L269.488 155.496H134.708C126.603 155.425 119.458 164.124 117.08 176.857Z" fill="#464561"/>
<path d="M283.536 194.671C275.187 194.299 267.698 201.138 265.249 211.339L248.323 282.191H215.745L213.969 375.663H321.126" fill="#464561"/>
<path d="M120.288 276.239C117.009 276.239 114.36 272.032 114.36 266.853C114.358 265.95 114.444 265.049 114.617 264.163L126.918 199.149C127.949 193.755 131.1 190.063 134.665 190.078H252.347C253.622 190.078 254.667 191.709 254.667 193.741C254.67 194.101 254.636 194.46 254.567 194.814C251.989 208.206 243.612 252.574 240.404 269.543C239.66 273.52 237.34 276.239 234.676 276.239H120.288Z" fill="#263238"/>
<path d="M228.576 305.054C228.574 306.194 228.492 307.332 228.332 308.46L227.717 312.652L227.359 315.127L224.724 333.212L220.428 362.614L219.239 370.784H52.712V362.614L52.8265 333.212L52.9841 315.628V308.474C51.5521 299.031 56.1201 289.874 63.0797 287.971C63.8962 287.748 64.7393 287.638 65.5857 287.642H215.745C222.834 287.585 228.576 295.425 228.576 305.054Z" fill="#464561"/>
<path d="M313.221 198.877V268.57C313.221 272.79 311.059 276.224 308.381 276.239H267.684C265.006 276.239 262.844 272.805 262.844 268.57C262.843 267.879 262.9 267.19 263.015 266.509L275.56 195.257C276.161 191.838 278.166 189.534 280.4 189.663L308.553 191.208C311.159 191.365 313.221 194.756 313.221 198.877Z" fill="#263238"/>
<path opacity="0.1" d="M188.938 190.078H166.456L140.637 276.239H163.133L188.938 190.078Z" fill="white"/>
<path opacity="0.1" d="M206.437 190.078H195.697L169.893 276.239H180.618L206.437 190.078Z" fill="white"/>
<path d="M271.722 333.212V362.614H52.7406L52.8552 333.212H271.722Z" fill="black"/>
<path d="M241.221 333.212H220.972L184.556 354.588V362.614H271.722V333.212H241.221Z" fill="white"/>
<path d="M90.4881 354.588V362.614H52.7406L52.8552 333.212H54.0867L90.4881 354.588Z" fill="white"/>
<path opacity="0.3" d="M320.353 375.663L318.692 156.927L288.62 155.496C281.116 155.124 272.452 163.837 270.261 173.939L248.466 287.585H239.975C230.438 287.585 223.908 294.524 223.922 301.892L224.051 375.691H320.353" fill="#263238"/>
<path d="M228.017 313.682C228.014 313.953 227.954 314.221 227.841 314.467C227.727 314.714 227.563 314.934 227.359 315.113C227.009 315.437 226.548 315.617 226.07 315.613H52.9841V311.722H226.113C226.442 311.723 226.766 311.807 227.055 311.967C227.343 312.127 227.585 312.358 227.76 312.637C227.941 312.955 228.03 313.317 228.017 313.682Z" fill="white"/>
<path d="M83.5143 311.736V315.628H52.9268L52.9411 311.736H83.5143Z" fill="#263238"/>
<path d="M228.017 313.682C228.014 313.953 227.954 314.221 227.841 314.467C227.727 314.714 227.563 314.934 227.359 315.113C227.009 315.437 226.548 315.617 226.07 315.613H184.084V311.722H226.07C226.399 311.723 226.723 311.807 227.011 311.967C227.3 312.127 227.542 312.358 227.717 312.637C227.913 312.951 228.017 313.312 228.017 313.682V313.682Z" fill="#263238"/>
<path d="M631.125 367.708V368.48C631.125 370.378 630.371 372.197 629.028 373.539C627.686 374.881 625.864 375.634 623.965 375.634H55.175C53.2761 375.634 51.4549 374.881 50.1121 373.539C48.7694 372.197 48.015 370.378 48.015 368.48V367.708C48.015 365.81 48.7694 363.991 50.1121 362.649C51.4549 361.308 53.2761 360.554 55.175 360.554H623.965C625.864 360.554 627.686 361.308 629.028 362.649C630.371 363.991 631.125 365.81 631.125 367.708V367.708Z" fill="#263238"/>
<path d="M181.306 366.434H96.5312V370.569H181.306V366.434Z" fill="black"/>
<path d="M73.9772 368.495C73.9772 368.961 73.839 369.417 73.58 369.805C73.321 370.193 72.9528 370.495 72.5219 370.674C72.091 370.853 71.6166 370.901 71.1587 370.811C70.7007 370.721 70.2797 370.498 69.9487 370.169C69.6177 369.84 69.3915 369.421 69.2987 368.964C69.206 368.507 69.2507 368.033 69.4274 367.601C69.604 367.169 69.9046 366.8 70.2913 366.539C70.678 366.278 71.1334 366.137 71.6001 366.134C71.9116 366.132 72.2203 366.192 72.5087 366.309C72.797 366.427 73.0592 366.601 73.2801 366.82C73.501 367.04 73.6763 367.301 73.796 367.588C73.9156 367.875 73.9772 368.183 73.9772 368.495V368.495Z" fill="white"/>
<path d="M201.554 368.495C201.554 368.962 201.416 369.418 201.156 369.806C200.896 370.195 200.527 370.497 200.096 370.676C199.664 370.854 199.189 370.901 198.73 370.81C198.272 370.719 197.851 370.494 197.521 370.164C197.19 369.834 196.965 369.413 196.874 368.955C196.783 368.497 196.83 368.023 197.008 367.591C197.187 367.16 197.49 366.791 197.879 366.532C198.267 366.272 198.724 366.134 199.191 366.134C199.502 366.134 199.809 366.195 200.096 366.314C200.382 366.432 200.643 366.606 200.862 366.825C201.081 367.045 201.256 367.305 201.374 367.591C201.493 367.878 201.554 368.185 201.554 368.495V368.495Z" fill="white"/>
<path d="M270.061 391.931C270.061 369.167 280.386 350.71 293.13 350.71H268.658C255.927 350.71 245.602 369.167 245.602 391.931C245.602 414.694 255.927 433.137 268.658 433.137H293.13C280.386 433.18 270.061 414.737 270.061 391.931Z" fill="black"/>
<path opacity="0.7" d="M270.061 391.931C270.061 369.167 280.386 350.71 293.13 350.71H268.658C255.927 350.71 245.602 369.167 245.602 391.931C245.602 414.694 255.927 433.137 268.658 433.137H293.13C280.386 433.18 270.061 414.737 270.061 391.931Z" fill="#263238"/>
<path d="M293.13 433.194C305.871 433.194 316.2 414.739 316.2 391.974C316.2 369.208 305.871 350.753 293.13 350.753C280.389 350.753 270.061 369.208 270.061 391.974C270.061 414.739 280.389 433.194 293.13 433.194Z" fill="#263238"/>
<path d="M294.978 424.109C304.009 424.109 311.331 409.721 311.331 391.974C311.331 374.226 304.009 359.839 294.978 359.839C285.946 359.839 278.624 374.226 278.624 391.974C278.624 409.721 285.946 424.109 294.978 424.109Z" fill="white"/>
<path d="M293.488 419.788C302.133 419.788 309.14 407.335 309.14 391.974C309.14 376.612 302.133 364.159 293.488 364.159C284.844 364.159 277.837 376.612 277.837 391.974C277.837 407.335 284.844 419.788 293.488 419.788Z" fill="#263238"/>
<path d="M290.052 412.276C296.363 412.276 301.479 403.186 301.479 391.974C301.479 380.761 296.363 371.671 290.052 371.671C283.74 371.671 278.624 380.761 278.624 391.974C278.624 403.186 283.74 412.276 290.052 412.276Z" fill="black"/>
<path opacity="0.5" d="M631.125 367.708V368.48C631.125 370.378 630.371 372.197 629.028 373.539C627.686 374.881 625.864 375.634 623.965 375.634H334.558V360.554H623.965C625.864 360.554 627.686 361.308 629.028 362.649C630.371 363.991 631.125 365.81 631.125 367.708V367.708Z" fill="black"/>
<path d="M541.182 391.931C541.182 369.167 551.506 350.71 564.237 350.71H539.778C527.033 350.71 516.709 369.167 516.709 391.931C516.709 414.694 527.033 433.137 539.778 433.137H564.208C551.506 433.18 541.182 414.737 541.182 391.931Z" fill="black"/>
<path opacity="0.7" d="M541.182 391.931C541.182 369.167 551.506 350.71 564.237 350.71H539.778C527.033 350.71 516.709 369.167 516.709 391.931C516.709 414.694 527.033 433.137 539.778 433.137H564.208C551.506 433.18 541.182 414.737 541.182 391.931Z" fill="#263238"/>
<path d="M564.237 433.194C576.978 433.194 587.306 414.739 587.306 391.974C587.306 369.208 576.978 350.753 564.237 350.753C551.496 350.753 541.167 369.208 541.167 391.974C541.167 414.739 551.496 433.194 564.237 433.194Z" fill="#263238"/>
<path d="M566.098 424.109C575.13 424.109 582.452 409.721 582.452 391.974C582.452 374.226 575.13 359.839 566.098 359.839C557.067 359.839 549.745 374.226 549.745 391.974C549.745 409.721 557.067 424.109 566.098 424.109Z" fill="white"/>
<path d="M564.595 419.788C573.239 419.788 580.246 407.335 580.246 391.974C580.246 376.612 573.239 364.159 564.595 364.159C555.95 364.159 548.943 376.612 548.943 391.974C548.943 407.335 555.95 419.788 564.595 419.788Z" fill="#263238"/>
<path d="M561.158 412.276C567.469 412.276 572.585 403.186 572.585 391.974C572.585 380.761 567.469 371.671 561.158 371.671C554.847 371.671 549.731 380.761 549.731 391.974C549.731 403.186 554.847 412.276 561.158 412.276Z" fill="black"/>
<path d="M470.928 190.292C470.641 195.801 470.14 201.123 469.324 206.546C468.619 212.147 467.391 217.67 465.658 223.043C465.111 224.608 464.426 226.121 463.61 227.564C463.042 228.537 462.349 229.432 461.548 230.225L461.147 230.597L460.918 230.769L460.803 230.869L460.317 231.198L459.357 231.87C456.925 233.43 454.367 234.784 451.71 235.92C446.668 238.134 441.427 239.868 436.059 241.099L434.197 236.005C438.751 233.487 443.419 230.912 447.672 228.236C449.751 226.962 451.75 225.562 453.658 224.044L454.288 223.515L454.603 223.243C454.603 223.243 454.732 223.028 454.889 222.685C455.308 221.76 455.652 220.803 455.92 219.823C456.568 217.47 457.079 215.081 457.453 212.67C457.897 210.18 458.255 207.648 458.555 205.072C459.142 199.964 459.644 194.728 459.987 189.634L470.928 190.292Z" fill="#CE7A63"/>
<path d="M437.591 236.077L428.798 233.359L430.445 243.989C430.445 243.989 436.173 243.274 439.037 240.069L437.591 236.077Z" fill="#CE7A63"/>
<path d="M418.144 240.198L418.631 241.628C418.906 242.419 419.43 243.098 420.125 243.565C420.819 244.032 421.647 244.261 422.483 244.218L426.965 244.018L425.304 233.359L420.378 235.29C419.444 235.662 418.689 236.38 418.273 237.295C417.856 238.209 417.81 239.25 418.144 240.198V240.198Z" fill="#CE7A63"/>
<path d="M481.324 179.976C481.324 183.296 479.72 189.849 478.345 194.771C477.329 198.305 476.484 200.994 476.484 200.994L474.465 200.494L457.825 196.287C457.567 187.703 457.896 178.36 466.417 172.751C471.744 169.231 481.281 174.067 481.324 179.976Z" fill="#263238"/>
<path opacity="0.3" d="M481.31 180.549C480.221 179.404 477.758 179.204 472.388 180.906C464.698 183.339 462.55 191.752 462.45 197.46L474.465 200.494L475.496 200.766L476.484 200.994C476.484 200.994 476.899 199.65 477.501 197.604C477.744 196.774 478.045 195.801 478.331 194.742C479.764 190.114 480.761 185.362 481.31 180.549V180.549Z" fill="black"/>
<path d="M447.171 447.073L437.018 443.524L443.405 421.548L453.543 425.11L447.171 447.073Z" fill="#CE7A63"/>
<path d="M582.824 421.032L574.562 427.185L557.65 410.058L565.912 403.906L582.824 421.032Z" fill="#CE7A63"/>
<path d="M571.182 424.681L580.103 417.313C580.254 417.182 580.448 417.11 580.648 417.11C580.847 417.11 581.041 417.182 581.192 417.313L588.037 423.522C588.19 423.675 588.312 423.857 588.396 424.057C588.479 424.257 588.522 424.471 588.522 424.688C588.522 424.905 588.479 425.119 588.396 425.32C588.312 425.52 588.19 425.701 588.037 425.854L587.893 425.983C584.743 428.501 583.082 429.56 579.158 432.793C576.752 434.782 571.697 439.547 568.361 442.294C565.024 445.041 562.132 441.907 563.277 440.462C568.39 433.995 569.578 429.732 570.18 426.241C570.324 425.621 570.678 425.07 571.182 424.681V424.681Z" fill="#263238"/>
<path d="M436.331 440.348L447.615 445.055C447.816 445.143 447.983 445.294 448.092 445.485C448.2 445.675 448.244 445.896 448.216 446.114L446.942 456.058C446.892 456.456 446.686 456.818 446.369 457.065C446.052 457.311 445.65 457.423 445.252 457.374C445.104 457.359 444.959 457.32 444.822 457.26C440.827 455.643 438.951 454.842 433.996 452.767L418.789 446.4C414.664 444.669 415.552 440.148 417.357 440.477C425.705 441.993 431.089 441.493 434.383 440.248C434.698 440.135 435.033 440.086 435.367 440.103C435.701 440.12 436.029 440.204 436.331 440.348V440.348Z" fill="#263238"/>
<path opacity="0.2" d="M443.405 421.562L440.125 432.879L450.006 437.343L453.558 425.11L443.405 421.562Z" fill="black"/>
<path opacity="0.2" d="M565.927 403.906L557.65 410.058L566.371 418.886L574.633 412.734L565.927 403.906Z" fill="black"/>
<path d="M512.542 233.688L470.727 234.289C464.999 201.939 463.567 186.501 463.567 179.075C463.56 177.223 464.2 175.427 465.376 173.995C466.552 172.564 468.192 171.588 470.011 171.234C472.56 170.734 475.739 170.161 478.933 169.718C480.021 169.575 481.124 169.432 482.212 169.317C488.527 168.776 494.872 168.685 501.2 169.045C502.145 169.045 503.076 169.131 504.064 169.189C508.36 169.46 512.284 170.004 515.076 170.433C516.081 170.595 516.98 171.148 517.576 171.972C518.172 172.796 518.416 173.822 518.255 174.826C518.262 174.897 518.262 174.969 518.255 175.04C517.024 180.763 516.021 185.843 515.219 190.364C513.945 197.518 513.143 203.355 512.67 208.449C511.955 216.845 511.911 225.285 512.542 233.688V233.688Z" fill="#263238"/>
<path opacity="0.1" d="M512.656 208.492C510.551 202.182 510.666 189.09 512.928 184.855L515.234 190.392C513.931 197.589 513.129 203.398 512.656 208.492Z" fill="black"/>
<path d="M470.727 234.288C470.727 234.288 463.567 295.11 457.109 333.012C451.997 362.686 439.08 424.452 439.08 424.452L455.849 430.39C455.849 430.39 475.052 366.005 478.417 338.506C491.949 298.859 501.687 233.988 501.687 233.988L470.727 234.288Z" fill="#464561"/>
<path d="M436.359 428.601L455.763 435.426L458.355 429.202L437.304 421.161L436.359 428.601Z" fill="#263238"/>
<path opacity="0.1" d="M491.921 252.359L485.649 264.363C483.357 273.406 483.902 295.411 486.809 309.318C492.021 288.357 496.188 266.295 498.78 251.486L491.921 252.359Z" fill="black"/>
<path d="M479.806 234.289C479.806 234.289 487.295 302.365 501.286 340.165C508.303 359.123 560.356 415.324 560.356 415.324L572.098 405.938C572.098 405.938 539.091 349.237 524.656 334.399C518.771 301.492 526.174 252.159 512.499 233.702L479.806 234.289Z" fill="#464561"/>
<path d="M561.344 419.344L575.12 408.07L571.397 401.96L556.318 415.08L561.344 419.344Z" fill="#263238"/>
<path d="M513.2 231.241L515.133 234.947C515.277 235.233 514.947 235.548 514.46 235.548L470.584 236.177C470.197 236.177 469.897 235.991 469.854 235.762L469.438 232.028C469.438 231.77 469.739 231.541 470.14 231.541L512.499 230.926C512.632 230.918 512.766 230.943 512.888 230.997C513.01 231.052 513.117 231.136 513.2 231.241V231.241Z" fill="#263238"/>
<path d="M507.515 236.077H508.675C508.89 236.077 509.062 235.948 509.048 235.819L508.432 230.955C508.432 230.812 508.231 230.712 508.002 230.712H506.928C506.699 230.712 506.527 230.84 506.556 230.969L507.157 235.819C507.086 235.934 507.301 236.077 507.515 236.077Z" fill="#464561"/>
<path d="M473.734 236.535H474.88C475.109 236.535 475.267 236.406 475.252 236.263L474.665 231.413C474.665 231.27 474.436 231.155 474.207 231.155H473.061C472.832 231.155 472.66 231.284 472.675 231.427L473.276 236.277C473.305 236.42 473.505 236.535 473.734 236.535Z" fill="#464561"/>
<path d="M490.632 236.263H491.778C492.007 236.263 492.179 236.134 492.164 235.991L491.563 231.141C491.563 230.983 491.348 230.869 491.119 230.883H489.973C489.744 230.883 489.587 231.012 489.587 231.155L490.188 236.005C490.174 236.177 490.403 236.263 490.632 236.263Z" fill="#464561"/>
<path d="M414.765 191.466L476.828 182.953L485.42 243.832L424.474 252.187L414.765 191.466Z" fill="#464561"/>
<path opacity="0.8" d="M414.765 191.466L476.828 182.953L485.42 243.832L424.474 252.187L414.765 191.466Z" fill="white"/>
<path opacity="0.2" d="M477.679 180.013L461.107 182.354L469.996 245.16L486.569 242.819L477.679 180.013Z" fill="#464561"/>
<path d="M494.427 236.163L485.835 232.8L486.68 243.531C486.68 243.531 492.408 243.245 495.486 240.255L494.427 236.163Z" fill="#CE7A63"/>
<path d="M521.449 182.738C523.754 189.176 525.745 195.615 527.434 202.196C528.294 205.501 529.096 208.821 529.74 212.212C530.055 213.929 530.327 215.674 530.528 217.491C530.758 219.39 530.839 221.303 530.771 223.214C530.731 224.459 530.538 225.694 530.198 226.891C529.728 228.364 528.941 229.717 527.893 230.855C526.361 232.494 524.541 233.837 522.523 234.818C519.218 236.42 515.739 237.634 512.155 238.438C505.455 239.99 498.622 240.905 491.749 241.17L491.076 235.776C494.212 235.032 497.42 234.203 500.541 233.33C503.663 232.457 506.771 231.484 509.749 230.397C512.594 229.42 515.337 228.169 517.94 226.662C518.886 226.11 519.729 225.399 520.432 224.559C520.618 224.273 520.618 224.202 520.589 224.202C520.618 223.778 520.618 223.352 520.589 222.928C520.535 221.541 520.387 220.16 520.146 218.793C519.916 217.362 519.601 215.76 519.258 214.186C518.542 211.124 517.74 207.991 516.838 204.858C515.048 198.648 513.029 192.338 511.009 186.258L521.449 182.738Z" fill="#CE7A63"/>
<path d="M477.916 238.094L478.589 240.584C478.791 241.383 479.248 242.095 479.892 242.612C480.535 243.128 481.33 243.421 482.155 243.445L486.766 243.574L485.921 232.858L481.224 233.387C480.725 233.437 480.241 233.585 479.8 233.822C479.359 234.059 478.969 234.381 478.652 234.769C478.335 235.158 478.098 235.604 477.955 236.084C477.811 236.564 477.764 237.067 477.816 237.565C477.837 237.744 477.87 237.92 477.916 238.094V238.094Z" fill="#CE7A63"/>
<path d="M516.566 170.748C521.377 172.708 525.315 188.504 525.315 188.504L512.026 198.877C512.026 198.877 502.604 184.14 504.522 177.745C506.155 172.336 510.437 168.273 516.566 170.748Z" fill="#263238"/>
<path d="M567.931 429.145H567.759C567.519 429.128 567.287 429.052 567.084 428.922C566.881 428.791 566.715 428.612 566.6 428.401C566.514 428.279 566.463 428.137 566.45 427.988C566.437 427.84 566.464 427.691 566.528 427.557C567.115 426.412 570.824 425.954 571.225 425.911C571.272 425.902 571.321 425.909 571.365 425.929C571.409 425.95 571.445 425.984 571.468 426.026C571.495 426.066 571.51 426.113 571.51 426.162C571.51 426.21 571.495 426.258 571.468 426.298C570.695 427.342 569.191 429.059 567.931 429.145ZM570.724 426.469C569.292 426.684 567.273 427.156 566.986 427.786C566.952 427.839 566.933 427.901 566.933 427.965C566.933 428.028 566.952 428.09 566.986 428.143C567.054 428.29 567.16 428.416 567.294 428.506C567.428 428.597 567.584 428.65 567.745 428.658C568.461 428.658 569.607 427.886 570.752 426.469H570.724Z" fill="#263238"/>
<path d="M571.053 426.369C569.807 426.369 567.316 425.926 566.757 424.939C566.668 424.767 566.64 424.571 566.676 424.382C566.712 424.192 566.812 424.02 566.958 423.894C567.084 423.755 567.239 423.646 567.412 423.575C567.586 423.503 567.773 423.47 567.96 423.479C569.464 423.479 571.368 425.783 571.425 425.911C571.447 425.946 571.459 425.985 571.459 426.026C571.459 426.066 571.447 426.106 571.425 426.14C571.414 426.182 571.39 426.22 571.357 426.248C571.324 426.276 571.283 426.294 571.239 426.298L571.053 426.369ZM567.874 423.994C567.672 424.014 567.484 424.105 567.344 424.252C567.129 424.481 567.172 424.624 567.23 424.738C567.559 425.368 569.521 425.883 570.781 425.883C570.063 424.982 569.09 424.319 567.989 423.98L567.874 423.994Z" fill="#263238"/>
<path d="M430.56 440.119C429.764 439.86 429.068 439.36 428.569 438.688C428.456 438.49 428.387 438.27 428.367 438.043C428.347 437.815 428.377 437.586 428.455 437.372C428.494 437.248 428.564 437.137 428.66 437.049C428.755 436.961 428.872 436.9 428.999 436.871C430.316 436.628 433.424 439.962 434.025 440.634C434.053 440.676 434.068 440.726 434.068 440.777C434.068 440.828 434.053 440.878 434.025 440.92C434.001 440.965 433.963 441.001 433.916 441.022C433.869 441.042 433.817 441.047 433.767 441.035C432.67 440.839 431.595 440.532 430.56 440.119V440.119ZM429.572 437.429C429.425 437.358 429.261 437.329 429.099 437.343C429.099 437.343 428.97 437.343 428.913 437.515C428.855 437.664 428.833 437.824 428.848 437.983C428.863 438.142 428.914 438.295 428.999 438.431C429.443 439.203 430.975 439.933 433.152 440.405C432.13 439.234 430.932 438.23 429.6 437.429H429.572Z" fill="#263238"/>
<path d="M433.753 441.006H433.667C432.622 439.962 430.918 436.828 431.505 435.827C431.634 435.612 431.906 435.383 432.521 435.555C434.827 436.227 434.125 440.691 434.082 440.877C434.082 440.924 434.065 440.969 434.033 441.004C434.001 441.038 433.957 441.06 433.911 441.063C433.882 441.069 433.851 441.067 433.824 441.057C433.796 441.047 433.771 441.029 433.753 441.006V441.006ZM432.607 436.013H432.464C432.235 435.941 432.063 436.013 432.006 436.013C431.662 436.599 432.765 438.96 433.767 440.219C433.753 439.117 433.896 436.585 432.607 436.013V436.013Z" fill="#263238"/>
<path d="M476.971 126.237C476.971 126.237 471.243 135.809 475.539 140.001C479.835 144.193 481.095 129.327 481.095 129.327L476.971 126.237Z" fill="#263238"/>
<path d="M503.577 148.7C503.577 148.7 510.737 137.511 507.759 126.394C504.78 115.277 490.861 122.46 484.99 119.412C482.839 118.106 480.548 117.045 478.159 116.25C477.775 116.136 477.371 116.112 476.976 116.179C476.581 116.246 476.207 116.402 475.882 116.636C474.45 117.895 476.942 120.256 477.715 121.143C477.24 120.594 476.69 120.112 476.083 119.712C475.324 119.212 474.307 119.169 474.651 120.442C475.24 121.81 476.295 122.926 477.629 123.59C477.071 123.275 473.763 121.601 473.534 122.646C473.505 122.899 473.572 123.154 473.72 123.361C475.868 127.367 480.193 132.403 485.176 132.504C491.176 132.589 496.904 149.458 503.577 148.7Z" fill="#263238"/>
<path d="M506.112 149.201C505.74 152.978 500.126 153.021 500.126 153.021C499.207 155.183 497.68 157.032 495.73 158.343C495.557 160.625 495.634 162.918 495.959 165.182C496.904 168.745 498.107 169.975 499.611 170.777L498.408 171.964C496.105 173.291 493.504 174.015 490.847 174.067L489.272 173.152L487.21 173.481C481.482 171.607 482.914 167.758 482.914 167.758C483.958 165.144 484.014 162.24 483.071 159.588C477.572 157.871 475.324 153.092 474.551 145.051C473.777 137.011 478.303 129.313 478.303 129.313C484.517 135.308 496.833 131.459 496.833 131.459C496.303 142.734 501.573 146.897 501.573 146.897C503.305 145.352 506.47 145.438 506.112 149.201Z" fill="#CE7A63"/>
<path d="M501.945 171.277L498.866 174.282L493.381 179.662L491.319 176.385L489.272 173.152L496.432 164.624L501.644 170.92L501.945 171.277Z" fill="white"/>
<path d="M489.272 173.152L487.682 175.799L485.348 179.662L479.992 170.004L483.415 165.984L489.272 173.152Z" fill="white"/>
</g>
<defs>
<clipPath id="clip0_67_3913">
<rect width="716" height="465" fill="white"/>
</clipPath>
</defs>
</svg>
 