<svg width="577" height="161" viewBox="0 0 577 161" fill="none" xmlns="http://www.w3.org/2000/svg">
<g clip-path="url(#clip0_234_753)">
<path d="M360.493 37.1432L354.406 61.7319H350.1L356.163 37.1432H360.493ZM369.222 48.2047L368.549 50.873H356.258L356.931 48.2047H369.222ZM373.889 37.1432L373.217 39.8115H358.976L359.65 37.1432H373.889ZM379.181 37.1432L388.395 37.1602C390.462 37.2052 392.164 37.5373 393.494 38.1565C394.841 38.7645 395.802 39.6033 396.381 40.6728C396.974 41.7311 397.181 42.9696 397.007 44.3881C396.861 45.5478 396.445 46.5892 395.756 47.5123C395.08 48.4356 394.167 49.2236 393.014 49.8766C391.873 50.5295 390.536 51.0475 388.996 51.4304L387.745 51.7681H378.989L379.589 49.1168L385.459 49.1505C386.806 49.1392 387.994 48.931 389.021 48.5256C390.045 48.1091 390.871 47.5405 391.496 46.8201C392.139 46.0994 392.531 45.2832 392.677 44.3712C392.819 43.5719 392.787 42.8345 392.58 42.1589C392.371 41.4834 391.923 40.9374 391.233 40.5209C390.561 40.093 389.58 39.8622 388.299 39.8284L382.863 39.8115L377.425 61.7319H373.119L379.181 37.1432ZM389.526 61.7319L385.533 50.586L389.79 50.569L394.167 61.5123L394.144 61.7319H389.526ZM417.404 59.0805L416.732 61.7319H401.96L402.635 59.0805H417.404ZM408.84 37.1432L402.755 61.7319H398.45L404.512 37.1432H408.84ZM418.222 47.7149L417.572 50.3663H404.776L405.447 47.7149H418.222ZM422.599 37.1432L421.927 39.8115H407.374L408.047 37.1432H422.599ZM439.726 37.1432L433.641 61.7319H429.358L435.444 37.1432H439.726ZM448.652 37.1432L447.977 39.8115H425.848L426.52 37.1432H448.652ZM466.522 59.0805L465.85 61.7319H451.08L451.753 59.0805H466.522ZM457.96 37.1432L451.873 61.7319H447.568L453.63 37.1432H457.96ZM467.34 47.7149L466.692 50.3663H453.893L454.568 47.7149H467.34ZM471.719 37.1432L471.045 39.8115H456.492L457.167 37.1432H471.719ZM487.74 55.382C487.851 54.729 487.804 54.1662 487.594 53.6934C487.402 53.2092 487.072 52.7925 486.61 52.4436C486.144 52.0946 485.582 51.7849 484.924 51.5147C484.267 51.2445 483.545 50.9913 482.759 50.7548C481.636 50.417 480.587 50.0286 479.609 49.5896C478.646 49.1505 477.804 48.6495 477.082 48.0866C476.377 47.5123 475.84 46.8593 475.471 46.1276C475.118 45.3958 474.997 44.5626 475.111 43.6282C475.222 42.6149 475.584 41.6861 476.193 40.8416C476.803 39.9973 477.597 39.2711 478.575 38.6632C479.569 38.0552 480.7 37.5879 481.966 37.2615C483.25 36.935 484.604 36.783 486.031 36.8055C488.035 36.8393 489.71 37.1996 491.058 37.8864C492.423 38.5618 493.432 39.4626 494.09 40.5884C494.748 41.703 495.011 42.9189 494.883 44.2361H490.553C490.649 43.4255 490.57 42.6599 490.314 41.9394C490.073 41.2189 489.592 40.6334 488.871 40.183C488.149 39.7327 487.122 39.4963 485.792 39.4738C484.604 39.4512 483.552 39.6201 482.639 39.9804C481.742 40.3294 481.013 40.8192 480.451 41.4496C479.905 42.0801 479.569 42.7951 479.441 43.5944C479.328 44.1799 479.392 44.6977 479.633 45.1481C479.872 45.5872 480.227 45.9812 480.69 46.3303C481.173 46.6681 481.725 46.9664 482.35 47.2252C482.993 47.4843 483.651 47.7149 484.323 47.9176C485.558 48.278 486.673 48.6832 487.666 49.1335C488.661 49.5839 489.503 50.1018 490.193 50.6873C490.898 51.2727 491.412 51.9481 491.732 52.7139C492.068 53.4794 492.174 54.3631 492.045 55.3652C491.917 56.4121 491.54 57.3579 490.915 58.2023C490.289 59.0355 489.471 59.7447 488.461 60.3302C487.449 60.9156 486.297 61.3603 484.996 61.6642C483.697 61.957 482.311 62.0921 480.836 62.0696C479.328 62.0471 477.973 61.8445 476.772 61.4617C475.567 61.0676 474.55 60.5328 473.714 59.8572C472.882 59.1706 472.263 58.3825 471.862 57.493C471.463 56.5923 471.3 55.6241 471.382 54.5882L475.712 54.6052C475.631 55.2582 475.673 55.8775 475.833 56.4629C476.008 57.0371 476.314 57.5436 476.746 57.9827C477.18 58.4218 477.749 58.771 478.454 59.0298C479.175 59.2775 480.05 59.407 481.077 59.4182C482.279 59.4407 483.353 59.2887 484.299 58.9622C485.245 58.6357 486.016 58.1686 486.61 57.5606C487.218 56.9414 487.594 56.2152 487.74 55.382ZM515.376 48.0866L520.14 45.4689C521.022 44.9849 521.751 44.4612 522.33 43.8984C522.924 43.3355 523.276 42.6487 523.387 41.8381C523.468 41.2301 523.29 40.6616 522.858 40.1324C522.426 39.592 521.712 39.3218 520.716 39.3218C519.885 39.3218 519.194 39.5076 518.647 39.8791C518.103 40.2506 517.68 40.7066 517.374 41.247C517.069 41.7762 516.884 42.2884 516.82 42.7838C516.724 43.3805 516.788 43.9659 517.012 44.5402C517.238 45.1142 517.542 45.6716 517.929 46.212C518.328 46.7524 518.721 47.2758 519.106 47.7826L529.353 61.7319H524.687L516.436 50.3157C515.86 49.5388 515.266 48.7564 514.655 47.9683C514.046 47.1803 513.549 46.3696 513.165 45.5366C512.795 44.6922 512.66 43.814 512.755 42.902C512.867 41.8099 513.254 40.7966 513.911 39.8622C514.584 38.9165 515.515 38.1621 516.699 37.5993C517.887 37.0363 519.323 36.7661 521.008 36.7887C522.338 36.8111 523.482 37.0588 524.446 37.5317C525.424 37.9933 526.163 38.6068 526.658 39.3724C527.173 40.1268 527.389 40.9543 527.308 41.8549C527.244 42.6543 526.987 43.3805 526.54 44.0335C526.106 44.6865 525.537 45.2887 524.83 45.8404C524.141 46.3808 523.364 46.882 522.498 47.3435L515.81 50.9913C515.216 51.3515 514.647 51.7569 514.103 52.2072C513.573 52.6462 513.125 53.1247 512.755 53.6426C512.386 54.1492 512.155 54.6841 512.058 55.2469C511.93 55.9449 511.977 56.6149 512.202 57.2565C512.426 57.8983 512.859 58.4275 513.502 58.8441C514.16 59.2607 515.056 59.4858 516.194 59.5195C517.783 59.5645 519.177 59.2887 520.382 58.6921C521.584 58.0841 522.601 57.3017 523.436 56.3447C524.286 55.3765 524.959 54.3631 525.456 53.3049C525.953 52.2466 526.291 51.2727 526.466 50.3832H530.123C529.946 51.4753 529.641 52.4885 529.209 53.423C528.777 54.3576 528.207 55.2526 527.5 56.1082C526.81 56.9526 525.978 57.8027 525 58.6584C524.872 58.771 524.752 58.889 524.638 59.0128C524.542 59.1367 524.439 59.255 524.325 59.3675C523.364 60.2232 522.113 60.8932 520.574 61.3772C519.049 61.8614 517.519 62.0921 515.978 62.0696C514.15 62.0359 512.595 61.7094 511.312 61.0901C510.046 60.4708 509.108 59.6546 508.497 58.6414C507.888 57.6168 507.657 56.4853 507.799 55.2469C507.928 54.1211 508.369 53.1417 509.123 52.3085C509.894 51.4641 510.832 50.704 511.938 50.0286C513.044 49.3531 514.191 48.7057 515.376 48.0866Z" fill="black"/>
<path d="M359.688 87.2922H363.703L367.625 107.305L381.433 87.2922H385.785L368.299 111.881H365.004L359.688 87.2922ZM358.266 87.2922H361.924L358.821 102.39L356.489 111.881H352.183L358.266 87.2922ZM383.357 87.2922H387.037L380.95 111.881H376.644L379.076 102.12L383.357 87.2922ZM410.37 87.2922H414.7L410.491 104.585C410.2 106.117 409.535 107.467 408.494 108.638C407.451 109.798 406.08 110.699 404.38 111.341C402.697 111.982 400.725 112.286 398.463 112.253C396.281 112.219 394.493 111.875 393.098 111.222C391.704 110.558 390.71 109.657 390.116 108.521C389.522 107.383 389.337 106.077 389.564 104.602L393.749 87.2922H398.054L393.891 104.619C393.731 105.531 393.763 106.358 393.988 107.101C394.215 107.833 394.694 108.418 395.431 108.858C396.184 109.297 397.283 109.533 398.727 109.567C400.252 109.612 401.525 109.432 402.552 109.027C403.58 108.61 404.387 108.024 404.981 107.271C405.575 106.505 405.976 105.622 406.186 104.619L410.37 87.2922ZM423.141 111.881H417.058L417.78 109.229L423.262 109.247C425.508 109.258 427.376 108.937 428.868 108.284C430.359 107.619 431.529 106.719 432.378 105.581C433.229 104.434 433.815 103.133 434.134 101.681L435.026 97.4593C435.201 96.5691 435.265 95.6911 435.218 94.8243C435.169 93.9463 434.946 93.1468 434.544 92.4262C434.142 91.7056 433.495 91.1258 432.595 90.6867C431.699 90.2476 430.479 90.0112 428.94 89.9775L422.348 89.9606L423.023 87.2922L429.06 87.3091C431.13 87.3429 432.876 87.6469 434.305 88.2212C435.731 88.7841 436.855 89.544 437.672 90.501C438.49 91.4467 439.027 92.5218 439.282 93.7263C439.539 94.931 439.548 96.1918 439.308 97.5098L438.418 101.681C438.096 103.155 437.544 104.518 436.758 105.768C435.972 107.017 434.946 108.104 433.679 109.027C432.411 109.939 430.895 110.648 429.132 111.155C427.384 111.65 425.388 111.892 423.141 111.881ZM425.548 87.2922L419.462 111.881H415.156L421.217 87.2922H425.548ZM458.431 89.6398L443.734 111.881H439.163L456.192 87.2922H459.055L458.431 89.6398ZM460.498 111.881L456.722 89.285L457.18 87.2922H459.897L464.757 111.881H460.498ZM462.713 102.779L462.037 105.447H445.633L446.308 102.779H462.713ZM497.783 87.2922L491.721 111.881H487.487L478.516 92.7809L473.801 111.881H469.471L475.533 87.2922H479.743L488.763 106.443L493.502 87.2922H497.783ZM517.963 104.079L522.173 104.045C521.853 105.633 521.173 107.051 520.129 108.301C519.104 109.55 517.724 110.53 515.993 111.239C514.277 111.937 512.207 112.264 509.786 112.219C507.813 112.185 506.195 111.847 504.926 111.205C503.677 110.564 502.714 109.731 502.041 108.706C501.384 107.682 500.976 106.573 500.815 105.379C500.652 104.174 500.677 102.998 500.887 101.849L501.896 97.3067C502.185 96.0234 502.665 94.7625 503.34 93.5239C504.012 92.2742 504.911 91.1484 506.035 90.1463C507.155 89.1444 508.512 88.3563 510.099 87.7821C511.688 87.1966 513.53 86.9208 515.631 86.9545C517.924 86.9884 519.737 87.388 521.068 88.1536C522.414 88.9191 523.361 89.9211 523.908 91.1597C524.452 92.3981 524.683 93.7431 524.604 95.1959L520.274 95.179C520.321 94.2898 520.25 93.4282 520.058 92.5952C519.88 91.7507 519.44 91.0526 518.734 90.501C518.028 89.938 516.907 89.6398 515.368 89.6058C513.86 89.5721 512.569 89.786 511.493 90.2476C510.419 90.6981 509.529 91.306 508.823 92.0715C508.119 92.8371 507.557 93.6758 507.141 94.5875C506.724 95.5001 506.419 96.395 506.227 97.273L505.217 101.866C505.072 102.576 504.983 103.364 504.951 104.231C504.936 105.097 505.064 105.93 505.335 106.73C505.608 107.529 506.113 108.194 506.852 108.723C507.589 109.252 508.648 109.539 510.028 109.584C511.759 109.629 513.146 109.41 514.188 108.926C515.229 108.442 516.04 107.777 516.619 106.933C517.195 106.077 517.643 105.125 517.963 104.079ZM507.741 112.049H510.675L510.22 112.979C511.116 113.17 511.734 113.525 512.072 114.042C512.409 114.561 512.56 115.129 512.528 115.748C512.481 116.424 512.256 116.992 511.855 117.454C511.471 117.916 510.956 118.287 510.315 118.568C509.676 118.85 508.953 119.059 508.151 119.193C507.365 119.328 506.554 119.407 505.722 119.429L505.843 117.606C506.387 117.583 506.909 117.51 507.404 117.387C507.901 117.262 508.318 117.071 508.655 116.812C509.008 116.564 509.234 116.227 509.33 115.799C509.409 115.394 509.32 115.095 509.064 114.903C508.823 114.712 508.488 114.578 508.054 114.498C507.62 114.431 507.173 114.375 506.707 114.33L507.741 112.049ZM542.716 89.6398L528.019 111.881H523.45L540.479 87.2922H543.342L542.716 89.6398ZM544.785 111.881L541.009 89.285L541.465 87.2922H544.184L549.044 111.881H544.785ZM547 102.779L546.324 105.447H529.92L530.593 102.779H547ZM570.163 105.531C570.274 104.878 570.227 104.315 570.018 103.842C569.826 103.358 569.498 102.942 569.033 102.593C568.567 102.243 568.005 101.934 567.347 101.664C566.69 101.393 565.969 101.141 565.183 100.904C564.061 100.566 563.01 100.178 562.032 99.7385C561.069 99.2995 560.23 98.7987 559.507 98.2352C558.8 97.6614 558.263 97.0081 557.894 96.277C557.542 95.545 557.421 94.712 557.535 93.7768C557.645 92.7639 558.008 91.8351 558.616 90.9907C559.226 90.1463 560.02 89.4201 560.998 88.8122C561.992 88.2043 563.123 87.737 564.389 87.4105C565.673 87.084 567.027 86.932 568.454 86.9545C570.459 86.9884 572.136 87.3486 573.481 88.0353C574.846 88.711 575.855 89.6115 576.513 90.7373C577.17 91.8521 577.435 93.068 577.306 94.3853H572.976C573.072 93.5747 572.993 92.8091 572.737 92.0885C572.495 91.3678 572.015 90.7825 571.294 90.3322C570.572 89.8817 569.545 89.6453 568.215 89.6228C567.027 89.6003 565.978 89.7691 565.065 90.1295C564.165 90.4785 563.436 90.9682 562.875 91.5988C562.33 92.2292 561.992 92.9441 561.865 93.7432C561.752 94.3291 561.815 94.8467 562.057 95.297C562.296 95.736 562.651 96.1301 563.116 96.4792C563.596 96.8171 564.148 97.1157 564.773 97.3741C565.417 97.6334 566.074 97.8636 566.747 98.0667C567.981 98.4271 569.096 98.8324 570.092 99.2827C571.084 99.7329 571.927 100.251 572.616 100.837C573.321 101.422 573.836 102.097 574.156 102.863C574.493 103.629 574.596 104.512 574.469 105.514C574.341 106.561 573.964 107.507 573.338 108.351C572.713 109.184 571.895 109.894 570.884 110.48C569.875 111.065 568.72 111.509 567.421 111.814C566.121 112.106 564.734 112.241 563.259 112.219C561.752 112.196 560.396 111.993 559.195 111.61C557.99 111.216 556.973 110.682 556.138 110.006C555.305 109.32 554.687 108.532 554.288 107.642C553.886 106.741 553.726 105.773 553.805 104.737L558.135 104.754C558.055 105.407 558.096 106.027 558.256 106.612C558.431 107.186 558.736 107.693 559.17 108.132C559.604 108.571 560.172 108.92 560.877 109.179C561.599 109.427 562.473 109.556 563.5 109.567C564.702 109.589 565.777 109.438 566.722 109.111C567.668 108.784 568.439 108.317 569.033 107.71C569.64 107.09 570.018 106.364 570.163 105.531Z" fill="black"/>
<path d="M324.525 27.1453V129.174" stroke="black"/>
<path d="M35.4068 33.1361C39.7156 33.1361 43.4624 33.6977 46.6471 34.8209C49.8943 35.8818 52.5482 37.4419 54.609 39.5012C56.6697 41.498 58.1059 43.9318 58.9177 46.8023C59.7919 49.6105 60.0106 52.793 59.5734 56.35C59.1987 59.1581 58.4182 61.9663 57.2317 64.7744C56.0452 67.5826 54.3591 70.1411 52.1736 72.45C49.988 74.759 47.2403 76.631 43.9307 78.0663C40.6835 79.4392 36.7494 80.1256 32.1284 80.1256H22.3869L19.6705 102.029H6.0885L14.5187 33.1361H35.4068ZM33.6271 67.0209C36.3747 67.0209 38.5916 66.4593 40.2776 65.3361C41.9637 64.1504 43.2126 62.7776 44.0244 61.2174C44.8362 59.595 45.3046 58.1285 45.4294 56.818C45.5543 56.0692 45.5543 55.1331 45.4294 54.0099C45.3669 52.8242 45.0547 51.6386 44.4927 50.4529C43.9932 49.2672 43.0877 48.2688 41.7763 47.4576C40.465 46.6463 38.6228 46.2407 36.2499 46.2407H26.5083L23.9792 67.0209H33.6271ZM45.3357 75.4454L59.1051 102.029H43.275L29.0374 75.8198L45.3357 75.4454ZM123.13 98.0041C122.38 98.503 121.038 99.19 119.102 100.063C117.228 100.875 114.949 101.592 112.264 102.216C109.641 102.902 106.769 103.246 103.646 103.246C100.087 103.246 96.3721 102.715 92.5001 101.655C88.691 100.594 85.1316 98.8465 81.8219 96.4128C78.5123 93.9791 75.8271 90.7029 73.7664 86.5843C71.7057 82.4657 70.6753 77.3486 70.6753 71.2331C70.6753 67.3018 71.1125 63.464 71.9867 59.7198C72.861 55.9756 74.2035 52.481 76.0144 49.2361C77.8878 45.9287 80.2295 43.0581 83.0396 40.6244C85.8497 38.1283 89.1906 36.1938 93.0622 34.8209C96.9342 33.3857 101.337 32.668 106.269 32.668C111.453 32.668 115.949 33.4793 119.757 35.1017C123.567 36.6619 126.595 38.2843 128.843 39.9692L121.912 52.4186C120.539 51.1706 118.633 49.8289 116.198 48.3936C113.763 46.9584 110.891 46.1159 107.581 45.8663C104.208 45.6791 101.117 46.1471 98.3073 47.2704C95.56 48.3312 93.1871 49.9537 91.1888 52.1378C89.1906 54.3219 87.6294 56.9428 86.5053 60.0006C85.4438 63.0584 84.913 66.4593 84.913 70.2035C84.913 73.1364 85.3501 75.8198 86.2243 78.2535C87.0986 80.6872 88.3475 82.7777 89.9711 84.525C91.6571 86.2723 93.6867 87.6451 96.0593 88.6436C98.4947 89.5797 101.211 90.0477 104.208 90.0477C106.894 90.0477 109.205 89.7669 111.14 89.2052C113.076 88.5812 114.699 87.9259 116.011 87.2395C117.322 86.4907 118.322 85.8979 119.008 85.4611L123.13 98.0041ZM139.728 33.1361H186.187L184.501 46.5215H168.016L161.178 102.029H147.128L153.965 46.5215H138.042L139.728 33.1361ZM199.295 33.1361H212.877L206.04 88.9244H238.449L236.857 102.029H190.865L199.295 33.1361Z" fill="#EB8C5B"/>
<path d="M256.447 103.527C254.985 103.527 253.524 103.283 252.063 102.797C250.602 102.31 249.272 101.598 248.073 100.662C246.874 99.6889 245.918 98.4908 245.206 97.068C244.494 95.6452 244.138 93.9977 244.138 92.1256C244.138 90.6654 244.382 89.1677 244.869 87.6326C245.394 86.0601 246.18 84.6186 247.23 83.3081C248.279 81.9976 249.646 80.9305 251.332 80.1068C253.056 79.2831 255.135 78.8712 257.571 78.8712C259.706 78.8712 261.692 79.3205 263.528 80.2191C265.401 81.1177 266.919 82.4282 268.08 84.1505C269.279 85.8354 269.879 87.876 269.879 90.2723C269.879 91.2458 269.729 92.3503 269.429 93.5859C269.167 94.784 268.717 95.9634 268.08 97.1241C267.481 98.2848 266.656 99.3519 265.607 100.325C264.596 101.299 263.322 102.085 261.786 102.684C260.287 103.246 258.507 103.527 256.447 103.527ZM256.615 99.2022C258.526 99.2022 260.062 98.7529 261.224 97.8543C262.385 96.9182 263.228 95.7762 263.753 94.4283C264.277 93.0804 264.54 91.77 264.54 90.4969C264.54 89.1865 264.315 88.0819 263.865 87.1833C263.453 86.2473 262.872 85.4797 262.123 84.8806C261.411 84.2816 260.624 83.851 259.762 83.5889C258.938 83.2894 258.151 83.1396 257.402 83.1396C255.529 83.1396 253.992 83.5889 252.793 84.4875C251.632 85.3861 250.77 86.5281 250.208 87.9134C249.684 89.2613 249.421 90.5718 249.421 91.8448C249.421 93.5297 249.777 94.9151 250.489 96.0009C251.239 97.0867 252.175 97.8917 253.299 98.4159C254.423 98.9401 255.529 99.2022 256.615 99.2022ZM286.509 114.478C284.635 114.478 283.005 114.273 281.619 113.861C280.233 113.486 278.978 112.925 277.854 112.176C276.767 111.427 275.718 110.566 274.706 109.592L278.247 106.054C279.071 106.915 279.914 107.627 280.776 108.188C281.638 108.787 282.575 109.218 283.586 109.48C284.635 109.742 285.759 109.873 286.958 109.873C288.494 109.873 289.825 109.592 290.949 109.031C292.073 108.506 292.953 107.739 293.59 106.728C294.264 105.754 294.677 104.613 294.826 103.302L295.613 97.0118L296.007 97.9666C295.22 99.5766 293.965 100.906 292.241 101.954C290.555 102.965 288.551 103.471 286.228 103.471C284.055 103.471 282.106 103.003 280.383 102.066C278.697 101.093 277.348 99.7263 276.336 97.9666C275.362 96.1694 274.875 94.0539 274.875 91.6202C274.875 90.3846 275.119 89.0367 275.606 87.5765C276.13 86.0788 276.917 84.6747 277.966 83.3643C279.053 82.0163 280.42 80.9305 282.069 80.1068C283.755 79.2456 285.759 78.8151 288.082 78.8151C290.405 78.8151 292.391 79.2644 294.04 80.163C295.688 81.0241 296.831 82.1474 297.468 83.5327L296.85 84.5998L298.199 79.7137H302.976L299.941 104.144C299.716 106.241 299.004 108.057 297.805 109.592C296.644 111.127 295.089 112.326 293.14 113.187C291.23 114.048 289.019 114.478 286.509 114.478ZM289.038 83.0834C287.389 83.0834 286.003 83.383 284.879 83.982C283.755 84.5437 282.837 85.2738 282.125 86.1724C281.451 87.071 280.963 88.007 280.664 88.9805C280.364 89.9166 280.214 90.7965 280.214 91.6202C280.214 93.1179 280.533 94.447 281.17 95.6077C281.806 96.731 282.706 97.6109 283.867 98.2474C285.029 98.8839 286.396 99.2022 287.97 99.2022C289.131 99.2022 290.255 98.9588 291.342 98.472C292.429 97.9853 293.365 97.3301 294.152 96.5063C294.976 95.6452 295.613 94.6717 296.063 93.5859L296.625 88.9244C296.438 87.8011 295.988 86.8089 295.276 85.9477C294.564 85.0491 293.684 84.3565 292.635 83.8697C291.585 83.3455 290.387 83.0834 289.038 83.0834Z" fill="black"/>
</g>
<defs>
<clipPath id="clip0_234_753">
<rect width="577" height="161" fill="white"/>
</clipPath>
</defs>
</svg>
