<svg width="244" height="68" viewBox="0 0 244 68" fill="none" xmlns="http://www.w3.org/2000/svg">
<g clip-path="url(#clip0_234_844)">
<path d="M152.444 15.6878L149.87 26.073H148.049L150.613 15.6878H152.444ZM156.135 20.3597L155.851 21.4867H150.653L150.938 20.3597H156.135ZM158.109 15.6878L157.825 16.8148H151.802L152.088 15.6878H158.109ZM160.347 15.6878L164.243 15.6949C165.117 15.714 165.837 15.8542 166.4 16.1157C166.969 16.3725 167.376 16.7268 167.62 17.1785C167.871 17.6255 167.959 18.1486 167.885 18.7477C167.823 19.2375 167.647 19.6774 167.356 20.0673C167.07 20.4572 166.684 20.79 166.196 21.0658C165.714 21.3416 165.149 21.5604 164.498 21.7221L163.968 21.8648H160.266L160.519 20.7449L163.002 20.7592C163.571 20.7544 164.074 20.6665 164.508 20.4953C164.941 20.3193 165.29 20.0792 165.555 19.7749C165.826 19.4705 165.992 19.1258 166.054 18.7406C166.114 18.403 166.101 18.0915 166.013 17.8062C165.925 17.5209 165.735 17.2903 165.443 17.1144C165.159 16.9336 164.744 16.8362 164.203 16.8219L161.904 16.8148L159.604 26.073H157.783L160.347 15.6878ZM164.721 26.073L163.033 21.3655L164.833 21.3583L166.684 25.9803L166.675 26.073H164.721ZM176.511 24.9532L176.226 26.073H169.98L170.265 24.9532H176.511ZM172.889 15.6878L170.316 26.073H168.495L171.059 15.6878H172.889ZM176.856 20.1529L176.581 21.2727H171.17L171.454 20.1529H176.856ZM178.707 15.6878L178.423 16.8148H172.269L172.553 15.6878H178.707ZM185.95 15.6878L183.377 26.073H181.566L184.139 15.6878H185.95ZM189.725 15.6878L189.439 16.8148H180.081L180.365 15.6878H189.725ZM197.281 24.9532L196.997 26.073H190.751L191.036 24.9532H197.281ZM193.661 15.6878L191.087 26.073H189.266L191.829 15.6878H193.661ZM197.627 20.1529L197.353 21.2727H191.941L192.226 20.1529H197.627ZM199.479 15.6878L199.194 16.8148H193.04L193.325 15.6878H199.479ZM206.254 23.3911C206.301 23.1153 206.281 22.8776 206.192 22.6779C206.111 22.4734 205.972 22.2974 205.776 22.15C205.579 22.0027 205.341 21.8718 205.063 21.7577C204.785 21.6436 204.48 21.5367 204.148 21.4367C203.673 21.2941 203.229 21.13 202.815 20.9446C202.408 20.7592 202.052 20.5476 201.747 20.3098C201.449 20.0673 201.222 19.7915 201.065 19.4824C200.917 19.1733 200.865 18.8214 200.913 18.4268C200.96 17.9988 201.113 17.6065 201.371 17.2498C201.629 16.8932 201.965 16.5865 202.378 16.3298C202.799 16.073 203.277 15.8756 203.812 15.7377C204.355 15.5998 204.928 15.5357 205.531 15.5451C206.379 15.5594 207.087 15.7116 207.657 16.0017C208.234 16.2869 208.661 16.6674 208.939 17.1429C209.217 17.6136 209.329 18.1272 209.275 18.6835H207.444C207.484 18.3412 207.451 18.0178 207.343 17.7135C207.24 17.4092 207.037 17.1619 206.732 16.9717C206.427 16.7815 205.993 16.6816 205.43 16.6721C204.928 16.6626 204.483 16.7339 204.097 16.8861C203.717 17.0335 203.409 17.2404 203.172 17.5066C202.941 17.7729 202.799 18.0749 202.745 18.4125C202.697 18.6598 202.724 18.8785 202.826 19.0687C202.927 19.2542 203.077 19.4206 203.273 19.5681C203.477 19.7107 203.71 19.8367 203.975 19.946C204.247 20.0554 204.525 20.1529 204.809 20.2384C205.331 20.3907 205.803 20.5618 206.223 20.752C206.643 20.9422 206.999 21.161 207.291 21.4082C207.589 21.6555 207.807 21.9408 207.942 22.2642C208.084 22.5875 208.129 22.9608 208.074 23.384C208.02 23.8262 207.861 24.2257 207.596 24.5823C207.332 24.9342 206.986 25.2338 206.559 25.4811C206.131 25.7283 205.644 25.9161 205.093 26.0445C204.544 26.1681 203.958 26.2252 203.334 26.2157C202.697 26.2062 202.124 26.1206 201.616 25.9589C201.106 25.7925 200.676 25.5666 200.323 25.2813C199.971 24.9913 199.709 24.6584 199.54 24.2827C199.371 23.9023 199.302 23.4934 199.336 23.0559L201.168 23.063C201.133 23.3388 201.151 23.6004 201.219 23.8476C201.293 24.0902 201.422 24.3041 201.605 24.4896C201.788 24.675 202.029 24.8225 202.327 24.9318C202.632 25.0364 203.002 25.0911 203.436 25.0959C203.945 25.1053 204.399 25.0411 204.799 24.9032C205.199 24.7653 205.525 24.5681 205.776 24.3113C206.033 24.0497 206.192 23.743 206.254 23.3911ZM217.941 20.3098L219.955 19.2042C220.328 18.9998 220.637 18.7786 220.881 18.5409C221.132 18.3031 221.281 18.0131 221.328 17.6707C221.363 17.4139 221.287 17.1738 221.104 16.9503C220.922 16.7221 220.62 16.6079 220.199 16.6079C219.847 16.6079 219.555 16.6864 219.324 16.8433C219.094 17.0002 218.915 17.1928 218.786 17.4211C218.656 17.6446 218.578 17.8609 218.551 18.0701C218.511 18.3222 218.538 18.5694 218.632 18.8119C218.728 19.0544 218.856 19.2898 219.02 19.5181C219.189 19.7463 219.355 19.9674 219.518 20.1814L223.851 26.073H221.878L218.389 21.2513C218.145 20.9232 217.894 20.5927 217.636 20.2599C217.378 19.927 217.168 19.5846 217.005 19.2328C216.849 18.8762 216.792 18.5052 216.832 18.12C216.88 17.6588 217.043 17.2308 217.321 16.8362C217.606 16.4367 217.999 16.1181 218.5 15.8804C219.002 15.6426 219.609 15.5285 220.322 15.538C220.885 15.5475 221.369 15.6521 221.776 15.8519C222.19 16.0468 222.502 16.306 222.711 16.6293C222.929 16.9479 223.021 17.2974 222.986 17.6778C222.959 18.0154 222.851 18.3222 222.661 18.5979C222.478 18.8737 222.238 19.1281 221.939 19.3611C221.647 19.5894 221.319 19.801 220.952 19.996L218.124 21.5367C217.873 21.6888 217.632 21.86 217.402 22.0502C217.178 22.2356 216.989 22.4377 216.832 22.6565C216.676 22.8704 216.578 23.0963 216.538 23.3341C216.483 23.6289 216.503 23.9118 216.598 24.1828C216.693 24.4539 216.876 24.6774 217.148 24.8534C217.426 25.0293 217.805 25.1244 218.286 25.1386C218.958 25.1577 219.548 25.0411 220.057 24.7891C220.566 24.5324 220.996 24.2019 221.349 23.7977C221.708 23.3888 221.993 22.9608 222.203 22.5138C222.413 22.0669 222.556 21.6555 222.63 21.2798H224.177C224.102 21.7411 223.973 22.169 223.79 22.5637C223.607 22.9584 223.366 23.3365 223.067 23.6978C222.776 24.0545 222.424 24.4135 222.01 24.7749C221.956 24.8225 221.905 24.8723 221.857 24.9246C221.817 24.9769 221.773 25.0269 221.725 25.0744C221.319 25.4359 220.789 25.7188 220.139 25.9232C219.494 26.1278 218.847 26.2252 218.195 26.2157C217.422 26.2015 216.765 26.0636 216.222 25.802C215.687 25.5404 215.29 25.1957 215.032 24.7678C214.774 24.335 214.676 23.8571 214.737 23.3341C214.791 22.8586 214.977 22.4449 215.296 22.093C215.622 21.7363 216.019 21.4153 216.487 21.13C216.954 20.8448 217.44 20.5713 217.941 20.3098Z" fill="black"/>
<path d="M152.104 36.8687H153.802L155.46 45.3212L161.299 36.8687H163.14L155.746 47.254H154.352L152.104 36.8687ZM151.503 36.8687H153.05L151.737 43.2456L150.751 47.254H148.93L151.503 36.8687ZM162.113 36.8687H163.669L161.095 47.254H159.274L160.303 43.1313L162.113 36.8687ZM173.536 36.8687H175.367L173.587 44.1727C173.464 44.8195 173.183 45.3899 172.743 45.8845C172.302 46.3744 171.722 46.7547 171.003 47.0259C170.292 47.2967 169.457 47.4252 168.501 47.411C167.578 47.3967 166.822 47.2516 166.232 46.9757C165.643 46.6954 165.222 46.3147 164.971 45.8347C164.72 45.3544 164.642 44.8029 164.738 44.1798L166.508 36.8687H168.328L166.568 44.1869C166.5 44.572 166.514 44.9215 166.609 45.2354C166.705 45.5445 166.907 45.7916 167.219 45.9774C167.538 46.1629 168.002 46.2625 168.613 46.2767C169.257 46.2957 169.796 46.2198 170.23 46.0486C170.665 45.8727 171.006 45.6252 171.257 45.3069C171.508 44.9835 171.678 44.6103 171.767 44.1869L173.536 36.8687ZM178.937 47.254H176.364L176.67 46.134L178.988 46.1415C179.938 46.1462 180.728 46.0106 181.359 45.7347C181.989 45.454 182.484 45.0737 182.843 44.5933C183.203 44.1086 183.451 43.5591 183.586 42.9459L183.963 41.1629C184.037 40.7869 184.064 40.4161 184.044 40.05C184.023 39.6791 183.929 39.3415 183.759 39.0371C183.589 38.7327 183.315 38.4879 182.935 38.3024C182.556 38.117 182.04 38.0171 181.389 38.0029L178.602 37.9957L178.887 36.8687L181.44 36.8759C182.315 36.8901 183.054 37.0185 183.658 37.2611C184.261 37.4988 184.736 37.8198 185.082 38.224C185.428 38.6234 185.655 39.0775 185.763 39.5862C185.871 40.095 185.875 40.6276 185.773 41.1842L185.397 42.9459C185.261 43.5686 185.028 44.1442 184.695 44.672C184.363 45.1998 183.929 45.6588 183.393 46.0486C182.857 46.4337 182.216 46.7333 181.471 46.9472C180.731 47.1564 179.887 47.2588 178.937 47.254ZM179.955 36.8687L177.381 47.254H175.56L178.123 36.8687H179.955ZM193.86 37.8603L187.645 47.254H185.712L192.914 36.8687H194.124L193.86 37.8603ZM194.734 47.254L193.137 37.7104L193.331 36.8687H194.48L196.535 47.254H194.734ZM195.671 43.4096L195.385 44.5364H188.448L188.733 43.4096H195.671ZM210.501 36.8687L207.938 47.254H206.147L202.354 39.1869L200.36 47.254H198.529L201.092 36.8687H202.872L206.687 44.9574L208.691 36.8687H210.501ZM219.035 43.9588L220.815 43.9446C220.68 44.6151 220.392 45.214 219.951 45.7418C219.517 46.2696 218.934 46.6835 218.202 46.9828C217.476 47.2777 216.601 47.4157 215.577 47.3967C214.743 47.3825 214.058 47.2398 213.522 46.9686C212.994 46.6978 212.586 46.3459 212.302 45.913C212.024 45.4805 211.851 45.012 211.784 44.5079C211.715 43.9991 211.725 43.5022 211.814 43.0171L212.241 41.0984C212.363 40.5564 212.566 40.0239 212.851 39.5008C213.135 38.9729 213.516 38.4974 213.991 38.0742C214.464 37.651 215.038 37.3182 215.709 37.0756C216.381 36.8284 217.16 36.7118 218.049 36.7261C219.018 36.7404 219.785 36.9092 220.348 37.2326C220.917 37.5559 221.317 37.9791 221.549 38.5022C221.779 39.0252 221.877 39.5933 221.843 40.2069L220.012 40.1998C220.032 39.8242 220.002 39.4603 219.921 39.1085C219.845 38.7518 219.659 38.457 219.361 38.224C219.062 37.9862 218.588 37.8603 217.937 37.8459C217.3 37.8317 216.754 37.922 216.299 38.117C215.845 38.3072 215.469 38.564 215.17 38.8873C214.872 39.2106 214.634 39.5649 214.458 39.9499C214.282 40.3354 214.153 40.7134 214.072 41.0842L213.645 43.0242C213.583 43.3239 213.546 43.6567 213.532 44.0228C213.526 44.3889 213.58 44.7408 213.695 45.0784C213.81 45.416 214.024 45.6967 214.336 45.9201C214.648 46.1435 215.096 46.2649 215.679 46.2838C216.411 46.3028 216.998 46.2103 217.438 46.0059C217.879 45.8015 218.222 45.5208 218.467 45.1642C218.71 44.8029 218.9 44.4008 219.035 43.9588ZM214.712 47.3252H215.953L215.76 47.7178C216.139 47.7984 216.401 47.9482 216.544 48.1669C216.686 48.3859 216.75 48.6259 216.736 48.8872C216.717 49.1726 216.622 49.4126 216.452 49.6079C216.29 49.8028 216.072 49.9598 215.801 50.0784C215.53 50.1974 215.225 50.2856 214.885 50.3425C214.553 50.3994 214.21 50.4326 213.858 50.4421L213.909 49.672C214.14 49.6625 214.36 49.6316 214.57 49.5795C214.78 49.5269 214.956 49.4462 215.099 49.3367C215.248 49.2319 215.344 49.0896 215.384 48.9089C215.418 48.7378 215.38 48.6116 215.272 48.5306C215.17 48.4499 215.028 48.393 214.845 48.3594C214.661 48.3309 214.472 48.3072 214.275 48.2882L214.712 47.3252ZM229.502 37.8603L223.287 47.254H221.355L228.557 36.8687H229.767L229.502 37.8603ZM230.377 47.254L228.78 37.7104L228.973 36.8687H230.123L232.178 47.254H230.377ZM231.314 43.4096L231.028 44.5364H224.091L224.376 43.4096H231.314ZM241.109 44.572C241.156 44.2964 241.136 44.0584 241.048 43.8588C240.967 43.6544 240.828 43.4784 240.631 43.331C240.434 43.1835 240.196 43.0526 239.918 42.9388C239.64 42.8245 239.335 42.7178 239.003 42.6178C238.529 42.475 238.084 42.311 237.671 42.1256C237.263 41.9401 236.908 41.7286 236.603 41.4906C236.304 41.2483 236.077 40.9723 235.921 40.6636C235.772 40.3544 235.721 40.0025 235.769 39.6076C235.816 39.1798 235.969 38.7875 236.226 38.4308C236.484 38.0742 236.82 37.7675 237.233 37.5107C237.654 37.2539 238.132 37.0566 238.668 36.9187C239.21 36.7808 239.783 36.7166 240.386 36.7261C241.234 36.7404 241.943 36.8926 242.512 37.1826C243.089 37.4679 243.516 37.8483 243.794 38.3238C244.072 38.7946 244.184 39.3082 244.13 39.8646H242.299C242.339 39.5222 242.306 39.1988 242.198 38.8945C242.095 38.5901 241.892 38.3429 241.587 38.1527C241.282 37.9624 240.848 37.8626 240.285 37.8531C239.783 37.8436 239.339 37.9149 238.953 38.0671C238.573 38.2145 238.264 38.4213 238.027 38.6876C237.797 38.9539 237.654 39.2559 237.6 39.5933C237.552 39.8408 237.579 40.0595 237.681 40.2496C237.782 40.435 237.932 40.6015 238.129 40.7489C238.332 40.8917 238.565 41.0178 238.83 41.1269C239.102 41.2364 239.38 41.3337 239.665 41.4195C240.186 41.5717 240.658 41.7429 241.079 41.933C241.498 42.1232 241.855 42.3418 242.146 42.5893C242.444 42.8364 242.662 43.1218 242.798 43.4452C242.94 43.7686 242.984 44.1418 242.93 44.5649C242.876 45.0072 242.716 45.4066 242.452 45.7632C242.187 46.115 241.841 46.4147 241.414 46.6622C240.987 46.9093 240.499 47.0971 239.95 47.2256C239.4 47.3489 238.813 47.4062 238.189 47.3967C237.552 47.3872 236.979 47.3015 236.471 47.1398C235.961 46.9733 235.531 46.7476 235.178 46.4621C234.826 46.1723 234.565 45.8395 234.396 45.4635C234.226 45.0832 234.158 44.6744 234.192 44.2367L236.023 44.2438C235.989 44.5198 236.006 44.7815 236.074 45.0286C236.148 45.2709 236.277 45.4852 236.46 45.6706C236.644 45.8561 236.884 46.0035 237.182 46.1126C237.488 46.2174 237.857 46.272 238.292 46.2767C238.8 46.2862 239.254 46.2222 239.654 46.0842C240.054 45.9462 240.38 45.7489 240.631 45.4923C240.888 45.2306 241.048 44.9238 241.109 44.572Z" fill="black"/>
<path d="M137.234 11.4651V54.5581" stroke="black"/>
<path d="M14.9728 13.9953C16.7948 13.9953 18.3793 14.2326 19.726 14.707C21.0992 15.155 22.2215 15.8139 23.0929 16.6837C23.9643 17.5271 24.5717 18.555 24.915 19.7674C25.2847 20.9535 25.3771 22.2977 25.1922 23.8C25.0338 24.986 24.7037 26.1721 24.202 27.3581C23.7002 28.5442 22.9872 29.6248 22.063 30.6C21.1388 31.5752 19.9769 32.3659 18.5773 32.9721C17.2041 33.5519 15.5405 33.8419 13.5864 33.8419H9.46692L8.31821 43.093H2.57471L6.13964 13.9953H14.9728ZM14.2202 28.307C15.3821 28.307 16.3195 28.0698 17.0325 27.5953C17.7455 27.0946 18.2736 26.5147 18.6169 25.8558C18.9602 25.1706 19.1583 24.5512 19.2111 23.9977C19.2639 23.6814 19.2639 23.286 19.2111 22.8116C19.1847 22.3108 19.0526 21.8101 18.815 21.3093C18.6037 20.8085 18.2208 20.3868 17.6663 20.0442C17.1117 19.7015 16.3327 19.5302 15.3293 19.5302H11.2098L10.1403 28.307H14.2202ZM19.1715 31.8651L24.9942 43.093H18.3L12.2793 32.0233L19.1715 31.8651ZM52.0687 41.393C51.7518 41.6037 51.1842 41.8939 50.3654 42.2628C49.5732 42.6056 48.6095 42.9084 47.4739 43.1721C46.3648 43.4619 45.1503 43.607 43.8297 43.607C42.3245 43.607 40.7536 43.3828 39.1162 42.9349C37.5054 42.4869 36.0002 41.7488 34.6006 40.7209C33.2011 39.693 32.0656 38.3093 31.1941 36.5698C30.3227 34.8302 29.887 32.669 29.887 30.086C29.887 28.4256 30.0718 26.8046 30.4415 25.2232C30.8113 23.6419 31.379 22.1659 32.1448 20.7953C32.937 19.3985 33.9272 18.186 35.1156 17.1581C36.3039 16.1039 37.7167 15.2868 39.3539 14.707C40.9912 14.1008 42.8529 13.7977 44.9388 13.7977C47.1309 13.7977 49.0322 14.1403 50.6427 14.8256C52.2537 15.4845 53.5343 16.1698 54.4849 16.8814L51.5537 22.1395C50.9731 21.6124 50.1674 21.0457 49.1375 20.4395C48.1076 19.8333 46.8932 19.4775 45.4934 19.3721C44.0674 19.293 42.7602 19.4907 41.5719 19.9651C40.4102 20.4132 39.4067 21.0985 38.5617 22.0209C37.7167 22.9434 37.0565 24.0504 36.5811 25.3419C36.1322 26.6333 35.9078 28.0698 35.9078 29.6512C35.9078 30.8899 36.0926 32.0232 36.4623 33.0512C36.832 34.0791 37.3602 34.962 38.0467 35.7C38.7597 36.438 39.618 37.0178 40.6213 37.4395C41.6511 37.8349 42.7999 38.0326 44.0674 38.0326C45.203 38.0326 46.1802 37.9139 46.9986 37.6767C47.8173 37.4132 48.5037 37.1364 49.0583 36.8465C49.6128 36.5302 50.0355 36.2799 50.3258 36.0953L52.0687 41.393ZM59.0876 13.9953H78.7344L78.0214 19.6488H71.05L68.1584 43.093H62.2169L65.1084 19.6488H58.3747L59.0876 13.9953ZM84.2775 13.9953H90.021L87.1294 37.5581H100.835L100.161 43.093H80.7125L84.2775 13.9953Z" fill="#EB8C5B"/>
<path d="M108.446 43.7255C107.828 43.7255 107.21 43.6228 106.592 43.4172C105.974 43.2116 105.411 42.9111 104.904 42.5158C104.397 42.1046 103.993 41.5986 103.692 40.9976C103.391 40.3967 103.241 39.7009 103.241 38.9102C103.241 38.2934 103.344 37.6609 103.55 37.0125C103.772 36.3483 104.104 35.7395 104.548 35.186C104.991 34.6325 105.57 34.1818 106.283 33.8339C107.012 33.486 107.891 33.3121 108.921 33.3121C109.824 33.3121 110.664 33.5018 111.44 33.8814C112.232 34.2609 112.874 34.8144 113.365 35.5418C113.872 36.2534 114.126 37.1153 114.126 38.1274C114.126 38.5386 114.062 39.0051 113.936 39.5269C113.825 40.033 113.634 40.5311 113.365 41.0214C113.112 41.5116 112.763 41.9623 112.319 42.3734C111.892 42.7846 111.353 43.1167 110.703 43.3697C110.07 43.6069 109.317 43.7255 108.446 43.7255ZM108.517 41.899C109.325 41.899 109.974 41.7093 110.466 41.3297C110.957 40.9344 111.313 40.4521 111.535 39.8827C111.757 39.3134 111.868 38.76 111.868 38.2223C111.868 37.6688 111.773 37.2023 111.583 36.8227C111.408 36.4274 111.163 36.1032 110.846 35.8502C110.545 35.5972 110.212 35.4153 109.848 35.3046C109.499 35.1781 109.166 35.1148 108.85 35.1148C108.057 35.1148 107.408 35.3046 106.901 35.6841C106.41 36.0637 106.045 36.546 105.807 37.1311C105.586 37.7004 105.475 38.2539 105.475 38.7916C105.475 39.5032 105.625 40.0883 105.926 40.5469C106.243 41.0055 106.639 41.3455 107.115 41.5669C107.59 41.7883 108.057 41.899 108.517 41.899ZM121.158 48.3511C120.366 48.3511 119.677 48.2641 119.09 48.0902C118.504 47.9321 117.973 47.6948 117.498 47.3786C117.039 47.0623 116.595 46.6986 116.167 46.2874L117.664 44.793C118.013 45.1567 118.37 45.4572 118.734 45.6944C119.098 45.9474 119.494 46.1293 119.922 46.24C120.366 46.3507 120.841 46.406 121.348 46.406C121.998 46.406 122.56 46.2874 123.036 46.0502C123.511 45.8288 123.883 45.5046 124.153 45.0776C124.438 44.6665 124.612 44.1841 124.675 43.6307L125.008 40.9739L125.175 41.3772C124.842 42.0572 124.311 42.6186 123.582 43.0614C122.869 43.4883 122.022 43.7018 121.039 43.7018C120.12 43.7018 119.296 43.5041 118.568 43.1088C117.855 42.6976 117.284 42.1204 116.856 41.3772C116.444 40.6181 116.238 39.7246 116.238 38.6967C116.238 38.1748 116.341 37.6055 116.547 36.9888C116.769 36.3562 117.102 35.7632 117.546 35.2097C118.005 34.6404 118.583 34.1818 119.281 33.8339C119.994 33.4702 120.841 33.2883 121.824 33.2883C122.806 33.2883 123.646 33.4781 124.343 33.8576C125.04 34.2214 125.523 34.6958 125.792 35.2809L125.531 35.7316L126.101 33.6679H128.122L126.838 43.9865C126.743 44.8721 126.442 45.639 125.935 46.2874C125.444 46.9358 124.786 47.4418 123.963 47.8055C123.154 48.1693 122.22 48.3511 121.158 48.3511ZM122.228 35.0911C121.53 35.0911 120.944 35.2176 120.469 35.4707C119.994 35.7079 119.605 36.0162 119.304 36.3958C119.019 36.7753 118.813 37.1707 118.686 37.5818C118.56 37.9772 118.496 38.3488 118.496 38.6967C118.496 39.3293 118.631 39.8907 118.9 40.3809C119.17 40.8553 119.55 41.2269 120.041 41.4958C120.532 41.7646 121.111 41.899 121.776 41.899C122.267 41.899 122.742 41.7962 123.202 41.5907C123.661 41.3851 124.058 41.1083 124.39 40.7604C124.739 40.3967 125.008 39.9855 125.198 39.5269L125.436 37.5581C125.357 37.0837 125.167 36.6646 124.866 36.3009C124.565 35.9214 124.192 35.6288 123.749 35.4232C123.305 35.2018 122.798 35.0911 122.228 35.0911Z" fill="black"/>
</g>
<defs>
<clipPath id="clip0_234_844">
<rect width="244" height="68" fill="white"/>
</clipPath>
</defs>
</svg>
