<svg width="577" height="172" viewBox="0 0 577 172" fill="none" xmlns="http://www.w3.org/2000/svg">
<g clip-path="url(#clip0_295_112)">
<path d="M360.493 40.1935L354.406 66.3458H350.1L356.163 40.1935H360.493ZM369.222 51.9584L368.549 54.7964H356.258L356.931 51.9584H369.222ZM373.889 40.1935L373.217 43.0315H358.975L359.65 40.1935H373.889ZM379.181 40.1935L388.395 40.2115C390.462 40.2594 392.164 40.6126 393.494 41.2712C394.841 41.9178 395.802 42.81 396.381 43.9475C396.974 45.0731 397.181 46.3903 397.007 47.8991C396.861 49.1325 396.445 50.2401 395.755 51.2219C395.08 52.204 394.167 53.0421 393.014 53.7366C391.873 54.4311 390.536 54.982 388.996 55.3892L387.745 55.7484H378.989L379.589 52.9285L385.459 52.9643C386.806 52.9524 387.994 52.7308 389.021 52.2998C390.045 51.8567 390.871 51.2519 391.496 50.4857C392.139 49.7192 392.531 48.8511 392.677 47.8811C392.819 47.031 392.787 46.2467 392.58 45.5282C392.371 44.8097 391.923 44.229 391.233 43.7859C390.561 43.3309 389.58 43.0853 388.299 43.0494L382.863 43.0315L377.424 66.3458H373.119L379.181 40.1935ZM389.526 66.3458L385.533 54.4911L389.79 54.4731L394.167 66.1122L394.144 66.3458H389.526ZM417.404 63.5258L416.732 66.3458H401.96L402.634 63.5258H417.404ZM408.84 40.1935L402.755 66.3458H398.45L404.512 40.1935H408.84ZM418.222 51.4375L417.572 54.2574H404.776L405.447 51.4375H418.222ZM422.599 40.1935L421.927 43.0315H407.374L408.047 40.1935H422.599ZM439.725 40.1935L433.641 66.3458H429.358L435.444 40.1935H439.725ZM448.652 40.1935L447.977 43.0315H425.848L426.52 40.1935H448.652ZM466.522 63.5258L465.85 66.3458H451.08L451.753 63.5258H466.522ZM457.96 40.1935L451.873 66.3458H447.568L453.63 40.1935H457.96ZM467.34 51.4375L466.692 54.2574H453.893L454.568 51.4375H467.34ZM471.719 40.1935L471.045 43.0315H456.492L457.167 40.1935H471.719ZM487.74 59.5921C487.851 58.8976 487.804 58.299 487.594 57.7961C487.402 57.2811 487.072 56.838 486.61 56.4668C486.144 56.0957 485.582 55.7662 484.924 55.4789C484.267 55.1915 483.545 54.9222 482.759 54.6706C481.636 54.3114 480.587 53.8982 479.609 53.4313C478.646 52.9643 477.804 52.4315 477.082 51.8327C476.377 51.222 475.84 50.5274 475.47 49.7492C475.118 48.9709 474.997 48.0847 475.111 47.0908C475.222 46.0131 475.584 45.0252 476.193 44.1271C476.803 43.2291 477.597 42.4567 478.575 41.8101C479.569 41.1635 480.7 40.6665 481.966 40.3193C483.25 39.972 484.604 39.8104 486.031 39.8343C488.035 39.8703 489.71 40.2534 491.058 40.9839C492.423 41.7023 493.432 42.6603 494.09 43.8577C494.748 45.0432 495.011 46.3365 494.883 47.7375H490.553C490.649 46.8753 490.57 46.061 490.314 45.2947C490.072 44.5283 489.592 43.9056 488.871 43.4266C488.149 42.9477 487.122 42.6962 485.792 42.6723C484.604 42.6483 483.552 42.8279 482.639 43.2111C481.742 43.5823 481.013 44.1032 480.451 44.7737C479.905 45.4444 479.569 46.2048 479.441 47.0549C479.328 47.6776 479.392 48.2284 479.633 48.7074C479.872 49.1745 480.227 49.5935 480.69 49.9648C481.173 50.324 481.725 50.6413 482.35 50.9166C482.993 51.1922 483.651 51.4375 484.323 51.653C485.558 52.0363 486.673 52.4673 487.666 52.9463C488.661 53.4254 489.503 53.9761 490.193 54.5988C490.898 55.2215 491.412 55.9399 491.732 56.7543C492.068 57.5685 492.173 58.5084 492.045 59.5743C491.917 60.6877 491.54 61.6937 490.915 62.5918C490.289 63.4779 489.471 64.2323 488.461 64.855C487.449 65.4776 486.297 65.9506 484.996 66.2738C483.697 66.5852 482.311 66.7289 480.836 66.705C479.328 66.6811 477.973 66.4655 476.772 66.0585C475.567 65.6393 474.55 65.0704 473.714 64.3519C472.882 63.6216 472.263 62.7834 471.862 61.8373C471.463 60.8794 471.3 59.8496 471.382 58.7479L475.712 58.7659C475.631 59.4604 475.673 60.1191 475.833 60.7417C476.008 61.3525 476.313 61.8912 476.746 62.3582C477.18 62.8252 477.749 63.1966 478.454 63.4719C479.175 63.7353 480.05 63.8731 481.077 63.885C482.279 63.9089 483.353 63.7472 484.299 63.4C485.245 63.0527 486.016 62.5559 486.61 61.9092C487.217 61.2506 487.594 60.4783 487.74 59.5921ZM515.376 51.8327L520.14 49.0486C521.022 48.5338 521.751 47.9769 522.33 47.3783C522.924 46.7795 523.276 46.0491 523.387 45.1869C523.468 44.5403 523.29 43.9356 522.857 43.3728C522.426 42.798 521.712 42.5106 520.716 42.5106C519.884 42.5106 519.194 42.7082 518.647 43.1034C518.103 43.4985 517.679 43.9835 517.374 44.5583C517.069 45.1211 516.884 45.6659 516.82 46.1927C516.724 46.8274 516.788 47.45 517.012 48.0608C517.238 48.6714 517.542 49.2643 517.929 49.839C518.328 50.4137 518.721 50.9705 519.106 51.5095L529.353 66.3458H524.687L516.436 54.2036C515.859 53.3774 515.266 52.5452 514.655 51.707C514.046 50.8688 513.549 50.0066 513.165 49.1206C512.795 48.2225 512.66 47.2884 512.755 46.3185C512.867 45.1569 513.254 44.0792 513.911 43.0853C514.584 42.0795 515.515 41.2772 516.699 40.6786C517.886 40.0798 519.322 39.7924 521.008 39.8164C522.338 39.8403 523.482 40.1037 524.446 40.6067C525.424 41.0976 526.163 41.7502 526.658 42.5645C527.173 43.3668 527.389 44.2469 527.308 45.2048C527.244 46.055 526.987 46.8274 526.54 47.5219C526.106 48.2164 525.537 48.857 524.83 49.4438C524.141 50.0185 523.364 50.5515 522.498 51.0424L515.81 54.9222C515.216 55.3053 514.647 55.7365 514.103 56.2154C513.573 56.6824 513.125 57.1913 512.755 57.7421C512.386 58.281 512.155 58.8498 512.058 59.4485C511.93 60.1909 511.977 60.9034 512.202 61.5858C512.426 62.2684 512.859 62.8313 513.502 63.2743C514.159 63.7175 515.056 63.9569 516.194 63.9927C517.783 64.0406 519.177 63.7472 520.382 63.1127C521.584 62.466 522.601 61.6339 523.435 60.6161C524.286 59.5862 524.958 58.5084 525.456 57.3829C525.953 56.2574 526.29 55.2215 526.466 54.2755H530.123C529.946 55.437 529.641 56.5146 529.209 57.5086C528.776 58.5026 528.207 59.4545 527.5 60.3645C526.81 61.2626 525.978 62.1668 525 63.0768C524.872 63.1966 524.751 63.3221 524.638 63.4538C524.542 63.5856 524.439 63.7114 524.325 63.8311C523.364 64.7412 522.113 65.4537 520.574 65.9686C519.049 66.4836 517.519 66.7289 515.978 66.705C514.15 66.6691 512.595 66.3219 511.312 65.6632C510.046 65.0045 509.108 64.1364 508.497 63.0588C507.888 61.969 507.657 60.7656 507.799 59.4485C507.928 58.2511 508.369 57.2093 509.123 56.3232C509.894 55.4251 510.832 54.6167 511.938 53.8982C513.044 53.1798 514.191 52.4912 515.376 51.8327Z" fill="white"/>
<path d="M359.688 93.5316H363.703L367.625 114.817L381.433 93.5316H385.785L368.299 119.684H365.004L359.688 93.5316ZM358.266 93.5316H361.924L358.821 109.59L356.489 119.684H352.183L358.266 93.5316ZM383.357 93.5316H387.037L380.95 119.684H376.644L379.076 109.302L383.357 93.5316ZM410.37 93.5316H414.7L410.491 111.924C410.2 113.553 409.535 114.99 408.494 116.235C407.451 117.469 406.08 118.427 404.38 119.109C402.697 119.791 400.725 120.115 398.463 120.079C396.281 120.043 394.493 119.678 393.098 118.983C391.704 118.277 390.71 117.318 390.116 116.11C389.522 114.9 389.337 113.511 389.564 111.942L393.749 93.5316H398.054L393.891 111.96C393.731 112.93 393.763 113.81 393.988 114.601C394.215 115.379 394.694 116.001 395.431 116.469C396.184 116.936 397.283 117.187 398.727 117.223C400.252 117.271 401.525 117.08 402.552 116.648C403.58 116.205 404.387 115.582 404.981 114.781C405.575 113.966 405.976 113.027 406.186 111.96L410.37 93.5316ZM423.141 119.684H417.058L417.78 116.863L423.262 116.882C425.508 116.894 427.376 116.553 428.868 115.858C430.359 115.151 431.529 114.193 432.378 112.984C433.229 111.763 433.815 110.379 434.134 108.835L435.026 104.345C435.201 103.398 435.265 102.465 435.218 101.543C435.169 100.609 434.946 99.7585 434.544 98.9921C434.142 98.2256 433.495 97.6089 432.595 97.1419C431.699 96.6749 430.479 96.4235 428.94 96.3877L422.348 96.3696L423.023 93.5316L429.06 93.5496C431.13 93.5855 432.876 93.9088 434.305 94.5197C435.731 95.1183 436.855 95.9265 437.672 96.9444C438.49 97.9503 439.027 99.0937 439.282 100.375C439.539 101.656 439.548 102.997 439.308 104.399L438.418 108.835C438.096 110.403 437.544 111.853 436.758 113.182C435.972 114.511 434.946 115.667 433.679 116.648C432.411 117.618 430.895 118.373 429.132 118.911C427.384 119.438 425.388 119.696 423.141 119.684ZM425.548 93.5316L419.462 119.684H415.156L421.217 93.5316H425.548ZM458.431 96.0285L443.734 119.684H439.163L456.192 93.5316H459.055L458.431 96.0285ZM460.498 119.684L456.722 95.6511L457.18 93.5316H459.897L464.757 119.684H460.498ZM462.713 110.003L462.037 112.84H445.633L446.308 110.003H462.713ZM497.783 93.5316L491.721 119.684H487.487L478.516 99.3693L473.801 119.684H469.471L475.533 93.5316H479.743L488.763 113.901L493.502 93.5316H497.783ZM517.963 111.386L522.173 111.35C521.853 113.038 521.173 114.547 520.129 115.876C519.104 117.205 517.724 118.247 515.993 119.001C514.277 119.744 512.207 120.091 509.786 120.043C507.813 120.007 506.195 119.648 504.926 118.965C503.677 118.283 502.714 117.397 502.041 116.307C501.384 115.218 500.976 114.038 500.815 112.769C500.652 111.487 500.677 110.236 500.887 109.014L501.896 104.183C502.185 102.818 502.665 101.477 503.34 100.16C504.012 98.8304 504.911 97.633 506.035 96.5672C507.155 95.5015 508.512 94.6633 510.099 94.0526C511.688 93.4299 513.53 93.1365 515.631 93.1724C517.924 93.2084 519.737 93.6335 521.068 94.4478C522.414 95.262 523.361 96.3276 523.908 97.645C524.452 98.9621 524.683 100.393 524.604 101.938L520.274 101.92C520.321 100.974 520.25 100.058 520.058 99.1718C519.88 98.2736 519.44 97.5311 518.734 96.9444C518.028 96.3456 516.907 96.0285 515.368 95.9923C513.86 95.9565 512.569 96.184 511.493 96.6749C510.419 97.154 509.529 97.8006 508.823 98.6147C508.119 99.429 507.557 100.321 507.141 101.291C506.724 102.261 506.419 103.213 506.227 104.147L505.217 109.032C505.072 109.787 504.983 110.625 504.951 111.547C504.936 112.469 505.064 113.355 505.335 114.205C505.608 115.056 506.113 115.762 506.852 116.325C507.589 116.887 508.648 117.193 510.028 117.241C511.759 117.289 513.146 117.056 514.188 116.541C515.229 116.026 516.04 115.319 516.619 114.421C517.195 113.511 517.643 112.499 517.963 111.386ZM507.741 119.863H510.675L510.22 120.852C511.116 121.055 511.734 121.432 512.072 121.983C512.409 122.534 512.56 123.139 512.528 123.797C512.481 124.515 512.256 125.12 511.855 125.612C511.471 126.102 510.956 126.498 510.315 126.796C509.676 127.096 508.953 127.318 508.151 127.461C507.365 127.605 506.554 127.688 505.722 127.712L505.843 125.773C506.387 125.749 506.909 125.671 507.404 125.54C507.901 125.407 508.318 125.204 508.655 124.929C509.008 124.665 509.234 124.306 509.33 123.851C509.409 123.42 509.32 123.103 509.064 122.899C508.823 122.696 508.488 122.552 508.054 122.468C507.62 122.396 507.173 122.336 506.707 122.288L507.741 119.863ZM542.716 96.0285L528.019 119.684H523.45L540.479 93.5316H543.342L542.716 96.0285ZM544.785 119.684L541.009 95.6511L541.465 93.5316H544.184L549.044 119.684H544.785ZM547 110.003L546.324 112.84H529.92L530.593 110.003H547ZM570.163 112.93C570.274 112.236 570.227 111.637 570.018 111.134C569.826 110.619 569.498 110.176 569.033 109.805C568.567 109.434 568.005 109.104 567.347 108.817C566.69 108.53 565.969 108.261 565.183 108.009C564.061 107.649 563.01 107.236 562.032 106.769C561.069 106.302 560.23 105.77 559.507 105.17C558.8 104.56 558.263 103.865 557.894 103.088C557.542 102.309 557.421 101.423 557.535 100.429C557.645 99.3513 558.008 98.3634 558.616 97.4653C559.226 96.5672 560.02 95.7948 560.998 95.1483C561.992 94.5016 563.123 94.0047 564.389 93.6574C565.673 93.3101 567.027 93.1485 568.454 93.1724C570.459 93.2084 572.136 93.5916 573.481 94.3219C574.846 95.0406 575.855 95.9984 576.513 97.1958C577.17 98.3814 577.435 99.6746 577.306 101.076H572.976C573.072 100.214 572.993 99.3993 572.737 98.6329C572.495 97.8664 572.015 97.2438 571.294 96.7649C570.572 96.2857 569.545 96.0343 568.215 96.0103C567.027 95.9864 565.978 96.1659 565.065 96.5493C564.165 96.9205 563.436 97.4414 562.875 98.112C562.33 98.7825 561.992 99.5429 561.865 100.393C561.752 101.016 561.815 101.567 562.057 102.045C562.296 102.512 562.651 102.931 563.116 103.303C563.596 103.662 564.148 103.98 564.773 104.255C565.417 104.53 566.074 104.775 566.747 104.991C567.981 105.375 569.096 105.806 570.092 106.285C571.084 106.763 571.927 107.314 572.616 107.937C573.321 108.559 573.836 109.278 574.156 110.093C574.493 110.907 574.596 111.847 574.469 112.912C574.341 114.026 573.964 115.032 573.338 115.93C572.713 116.816 571.895 117.57 570.884 118.194C569.875 118.816 568.72 119.289 567.421 119.612C566.121 119.923 564.734 120.067 563.259 120.043C561.752 120.019 560.396 119.803 559.195 119.396C557.99 118.977 556.973 118.409 556.138 117.69C555.305 116.96 554.687 116.122 554.288 115.175C553.886 114.217 553.726 113.188 553.805 112.086L558.135 112.104C558.055 112.799 558.096 113.458 558.256 114.08C558.431 114.69 558.736 115.23 559.17 115.697C559.604 116.164 560.172 116.535 560.877 116.81C561.599 117.074 562.473 117.211 563.5 117.223C564.702 117.247 565.777 117.085 566.722 116.738C567.668 116.391 568.439 115.894 569.033 115.248C569.64 114.589 570.018 113.816 570.163 112.93Z" fill="white"/>
<path d="M324.525 29.5598V138.077" stroke="white"/>
<path d="M35.4067 35.9314C39.7155 35.9314 43.4622 36.5288 46.647 37.7235C49.8942 38.8517 52.5481 40.5111 54.6088 42.7013C56.6695 44.8252 58.1058 47.4137 58.9176 50.4668C59.7918 53.4535 60.0104 56.8384 59.5733 60.6216C59.1986 63.6083 58.4181 66.595 57.2316 69.5817C56.0451 72.5685 54.359 75.2897 52.1734 77.7454C49.9879 80.2012 47.2402 82.1923 43.9306 83.7189C40.6834 85.1791 36.7493 85.9091 32.1283 85.9091H22.3868L19.6704 109.205H6.08838L14.5186 35.9314H35.4067ZM33.627 71.9711C36.3746 71.9711 38.5915 71.3738 40.2775 70.1791C41.9635 68.918 43.2124 67.4579 44.0243 65.7986C44.8361 64.073 45.3044 62.5132 45.4293 61.1194C45.5541 60.3229 45.5541 59.3274 45.4293 58.1327C45.3668 56.8716 45.0546 55.6106 44.4926 54.3495C43.9931 53.0884 43.0876 52.0265 41.7762 51.1637C40.4648 50.3008 38.6227 49.8694 36.2497 49.8694H26.5082L23.9791 71.9711H33.627ZM45.3356 80.9313L59.1049 109.205H43.2749L29.0372 81.3295L45.3356 80.9313ZM123.129 104.925C122.38 105.455 121.038 106.186 119.102 107.115C117.228 107.978 114.949 108.741 112.264 109.405C109.641 110.134 106.769 110.5 103.646 110.5C100.087 110.5 96.372 109.935 92.5 108.807C88.6909 107.679 85.1315 105.821 81.8218 103.232C78.5122 100.644 75.827 97.1591 73.7663 92.7786C71.7055 88.398 70.6752 82.9556 70.6752 76.4512C70.6752 72.2698 71.1124 68.1879 71.9866 64.2057C72.8609 60.2234 74.2034 56.5066 76.0143 53.0553C77.8877 49.5376 80.2294 46.4845 83.0395 43.896C85.8495 41.2411 89.1904 39.1837 93.062 37.7235C96.934 36.197 101.336 35.4337 106.269 35.4337C111.453 35.4337 115.949 36.2965 119.757 38.0221C123.567 39.6815 126.595 41.4071 128.843 43.1991L121.912 56.4402C120.539 55.1128 118.633 53.6858 116.198 52.1593C113.763 50.6327 110.891 49.7367 107.58 49.4712C104.208 49.2721 101.117 49.7699 98.3072 50.9646C95.5599 52.0928 93.187 53.8186 91.1887 56.1415C89.1904 58.4645 87.6292 61.2521 86.5052 64.5043C85.4437 67.7566 84.9128 71.3738 84.9128 75.3561C84.9128 78.4755 85.35 81.3295 86.2242 83.918C87.0985 86.5065 88.3474 88.7299 89.971 90.5883C91.657 92.4467 93.6865 93.9068 96.0592 94.9688C98.4946 95.9644 101.211 96.4622 104.208 96.4622C106.894 96.4622 109.205 96.1635 111.14 95.5662C113.076 94.9024 114.699 94.2055 116.011 93.4755C117.322 92.679 118.321 92.0485 119.008 91.5839L123.129 104.925ZM139.728 35.9314H186.187L184.501 50.1681H168.016L161.178 109.205H147.127L153.965 50.1681H138.042L139.728 35.9314ZM199.295 35.9314H212.877L206.039 95.2675H238.449L236.857 109.205H190.865L199.295 35.9314Z" fill="#EB8C5B"/>
<path d="M256.446 110.798C254.985 110.798 253.524 110.54 252.063 110.022C250.602 109.504 249.271 108.748 248.073 107.752C246.874 106.717 245.918 105.442 245.206 103.929C244.494 102.416 244.138 100.663 244.138 98.6723C244.138 97.1193 244.382 95.5263 244.869 93.8936C245.394 92.221 246.18 90.6879 247.229 89.2941C248.279 87.9003 249.646 86.7653 251.332 85.8892C253.056 85.0131 255.135 84.5751 257.571 84.5751C259.706 84.5751 261.692 85.0529 263.528 86.0087C265.401 86.9644 266.919 88.3582 268.08 90.1901C269.279 91.9821 269.879 94.1525 269.879 96.7011C269.879 97.7365 269.729 98.9113 269.429 100.225C269.167 101.5 268.717 102.754 268.08 103.989C267.481 105.223 266.656 106.358 265.607 107.394C264.596 108.429 263.322 109.265 261.786 109.902C260.287 110.5 258.507 110.798 256.446 110.798ZM256.615 106.199C258.526 106.199 260.062 105.721 261.224 104.765C262.385 103.77 263.228 102.555 263.753 101.121C264.277 99.6878 264.539 98.294 264.539 96.9401C264.539 95.5463 264.315 94.3715 263.865 93.4157C263.453 92.4202 262.872 91.6038 262.123 90.9666C261.411 90.3295 260.624 89.8715 259.762 89.5927C258.938 89.2742 258.151 89.1149 257.402 89.1149C255.529 89.1149 253.992 89.5927 252.793 90.5485C251.632 91.5042 250.77 92.7188 250.208 94.1923C249.684 95.6259 249.421 97.0197 249.421 98.3737C249.421 100.166 249.777 101.639 250.489 102.794C251.239 103.949 252.175 104.805 253.299 105.363C254.423 105.92 255.529 106.199 256.615 106.199ZM286.509 122.447C284.635 122.447 283.005 122.228 281.619 121.79C280.233 121.391 278.978 120.794 277.854 119.997C276.767 119.201 275.718 118.285 274.706 117.25L278.247 113.486C279.071 114.402 279.914 115.159 280.776 115.756C281.638 116.394 282.574 116.851 283.586 117.13C284.635 117.409 285.759 117.548 286.958 117.548C288.494 117.548 289.824 117.25 290.948 116.652C292.073 116.095 292.953 115.278 293.59 114.203C294.264 113.168 294.676 111.953 294.826 110.559L295.613 103.869L296.007 104.885C295.22 106.597 293.965 108.011 292.241 109.126C290.555 110.201 288.551 110.739 286.228 110.739C284.054 110.739 282.106 110.241 280.383 109.245C278.697 108.21 277.348 106.756 276.336 104.885C275.362 102.973 274.875 100.723 274.875 98.1347C274.875 96.8206 275.118 95.387 275.606 93.8339C276.13 92.241 276.917 90.7476 277.966 89.3538C279.053 87.9202 280.42 86.7653 282.069 85.8892C283.755 84.9733 285.759 84.5153 288.082 84.5153C290.405 84.5153 292.391 84.9932 294.04 85.9489C295.688 86.8649 296.831 88.0596 297.468 89.533L296.85 90.668L298.198 85.4711H302.976L299.941 111.455C299.716 113.686 299.004 115.617 297.805 117.25C296.644 118.882 295.089 120.157 293.14 121.073C291.229 121.989 289.019 122.447 286.509 122.447ZM289.038 89.0551C287.389 89.0551 286.003 89.3737 284.879 90.0109C283.755 90.6082 282.837 91.3848 282.125 92.3405C281.45 93.2963 280.963 94.2918 280.664 95.3272C280.364 96.3228 280.214 97.2586 280.214 98.1347C280.214 99.7276 280.533 101.141 281.169 102.376C281.806 103.571 282.706 104.506 283.867 105.183C285.029 105.86 286.396 106.199 287.97 106.199C289.131 106.199 290.255 105.94 291.342 105.422C292.428 104.905 293.365 104.208 294.152 103.332C294.976 102.416 295.613 101.38 296.063 100.225L296.625 95.2675C296.437 94.0728 295.988 93.0175 295.276 92.1016C294.564 91.1458 293.684 90.4091 292.635 89.8914C291.585 89.3339 290.386 89.0551 289.038 89.0551Z" fill="white"/>
</g>
<defs>
<clipPath id="clip0_295_112">
<rect width="577" height="171.238" fill="white" transform="translate(0 0.688232)"/>
</clipPath>
</defs>
</svg>
