<svg width="818" height="515" viewBox="0 0 818 515" fill="none" xmlns="http://www.w3.org/2000/svg">
<g clip-path="url(#clip0_67_1772)">
<path d="M629.594 388.995C663.24 304.873 653.062 210.941 609.667 138.8L155.41 201.699L590.733 110.972C407.263 -117.823 50.1648 33.9341 84.5873 322.804L629.594 388.995Z" fill="#E6E6E6"/>
<path d="M649.627 296.006H70.8978V476.223H649.627V296.006Z" fill="#5A8BB7"/>
<path d="M232.3 274.028C237.492 278.061 239.391 279.363 240.496 279.197C294.071 294.799 247.105 313.083 221.074 282.047L232.3 274.028Z" fill="#FFB8B8"/>
<path d="M55.5142 438.86V475.49L81.8861 474.025L74.5611 435.93L55.5142 438.86Z" fill="#FFB8B8"/>
<path d="M202.028 438.86V475.49L175.655 474.025L182.981 435.93L202.028 438.86Z" fill="#FFB8B8"/>
<path d="M121.445 249.853L161.004 248.388C252.261 344.06 217.749 322.239 215.214 453.512L166.864 438.861L177.12 348.02C177.126 348.016 179.826 346.216 177.581 346.175C163.544 350.999 153.302 291.271 122.91 298.204C88.3257 296.549 82.6955 347.855 68.7001 348.02L78.9561 438.861L30.6066 453.512C25.1932 309.256 -1.33814 341.844 84.8166 248.388L121.445 249.853Z" fill="#2F2E41"/>
<path d="M62.8396 463.769C62.8396 463.769 56.979 452.047 49.6533 457.908C42.3277 463.769 24.746 481.351 24.746 481.351C24.746 481.351 -17.743 500.398 8.6295 512.119C35.002 523.841 56.979 496.003 56.979 496.003C82.0984 490.764 96.5874 487.411 83.2662 460.01C75.7032 463.283 65.0004 467.072 62.8396 463.769Z" fill="#2F2E41"/>
<path d="M194.702 463.769C194.702 463.769 200.562 452.047 207.888 457.908C215.214 463.769 232.795 481.351 232.795 481.351C232.795 481.351 275.284 500.398 248.912 512.119C222.539 523.841 200.562 496.003 200.562 496.003C175.443 490.764 160.954 487.411 174.275 460.01C181.838 463.283 192.541 467.072 194.702 463.769Z" fill="#2F2E41"/>
<path d="M161.004 84.2882C158.825 120.762 109.047 117.551 108.259 84.2879C110.438 47.814 160.216 51.0252 161.004 84.2882Z" fill="#FFB8B8"/>
<path d="M122.91 103.335C135.728 142.075 105.467 120.984 147.818 151.686L163.934 119.452C163.934 119.452 152.213 115.057 153.678 98.9399L122.91 103.335Z" fill="#FFB8B8"/>
<path d="M202.028 125.313L158.352 115.344C159.581 141.679 131.477 136.379 126.573 123.132L84.8166 147.291C102.343 212.568 97.9012 215.262 74.5606 257.179C65.653 265.313 78.9746 269.975 90.5718 265.524C99.4173 260.065 103.909 255.213 113.388 256.448C158.174 265.773 195.458 267.975 201.358 264.331C203.47 261.309 201.297 125.838 202.028 125.313Z" fill="#575A89"/>
<path d="M190.306 128.243C191.772 128.243 199.319 124.695 199.319 124.695C221.276 124.325 236.011 272.028 237.191 276.226L222.539 286.482L199.097 226.41L190.306 128.243Z" fill="#575A89"/>
<path d="M87.7469 299.669C88.496 305.199 89.7708 367.296 112.015 338.289C114.934 317.126 105.011 310.809 102.398 296.739L87.7469 299.669Z" fill="#FFB8B8"/>
<path d="M93.6074 147.291L89.1183 144.802C77.083 144.406 80.876 176.265 75.7841 199.597C71.6243 226.778 72.8087 256.748 77.6891 296.818C78.1159 311.521 104.451 302.258 108.259 301.134C108.259 301.134 99.468 241.062 103.863 230.806C108.259 220.55 93.6074 147.291 93.6074 147.291Z" fill="#575A89"/>
<path d="M159.851 58.7216C155.782 52.1144 149.414 47.2455 141.971 45.0522L136.504 49.4256L138.629 44.3245C136.842 44.0518 135.033 43.9473 133.226 44.0122L128.308 50.3364L130.343 44.2288C109.237 46.4951 96.7501 70.7245 107.707 87.6821C109.398 82.4877 111.449 77.6137 113.139 72.4192C114.468 72.6003 115.814 72.6069 117.144 72.4388L119.2 67.6404L119.775 72.2358C126.149 71.6804 135.603 70.4613 141.645 69.3442L141.058 65.8189L144.573 68.7484C146.424 68.3222 147.523 67.9358 147.433 67.6404C151.927 74.8854 156.379 79.513 160.873 86.758C162.579 76.5386 165.591 68.044 159.851 58.7216Z" fill="#2F2E41"/>
<path d="M614.988 317.746H487.177V378.376H614.988V317.746Z" fill="white"/>
<path d="M590.819 330.445H511.346V337.715H590.819V330.445Z" fill="#E6E6E6"/>
<path d="M590.819 344.426H511.346V351.696H590.819V344.426Z" fill="#E6E6E6"/>
<path d="M590.819 358.406H511.346V365.676H590.819V358.406Z" fill="#E6E6E6"/>
<path d="M375.873 332.148L371.715 324.947L367.559 317.746L363.401 324.947L359.243 332.148H363.71V353H371.406V332.148H375.873Z" fill="white"/>
<path d="M657.579 480.521C676.485 480.521 691.812 465.194 691.812 446.287C691.812 427.381 676.485 412.054 657.579 412.054C638.673 412.054 623.346 427.381 623.346 446.287C623.346 465.194 638.673 480.521 657.579 480.521Z" fill="#3F3D56"/>
<path d="M663.803 461.459C672.182 461.459 678.975 454.666 678.975 446.287C678.975 437.908 672.182 431.115 663.803 431.115C655.424 431.115 648.632 437.908 648.632 446.287C648.632 454.666 655.424 461.459 663.803 461.459Z" fill="#E6E6E6"/>
<path d="M635.989 470.212L710.68 501.334L708.345 508.725L665.359 503.862L592.614 471.574L633.071 476.242L635.989 470.212Z" fill="#3F3D56"/>
<path d="M702.011 499.931L794.904 195.203L817.526 155.029L817.605 154.641C817.678 154.287 819.339 145.89 815.254 139.809C814.224 138.297 812.893 137.014 811.346 136.039C809.798 135.064 808.066 134.418 806.258 134.142C793.773 131.801 765.842 130.648 764.659 130.6L764.437 130.59L764.215 130.621C763.452 130.725 745.602 133.334 741.567 148.922L722.146 184.267L722.07 184.519L634.154 473.561L638.992 475.033L726.832 186.242L746.317 150.777L746.396 150.452C749.249 138.721 762.891 135.977 764.705 135.663C767.558 135.785 793.81 136.953 805.326 139.113C806.469 139.268 807.568 139.66 808.552 140.262C809.537 140.865 810.385 141.665 811.045 142.612C813.563 146.341 812.932 151.83 812.71 153.273L790.227 193.201L790.147 193.465L697.173 498.457L702.011 499.931Z" fill="#3F3D56"/>
<path d="M715.593 213.491L714.694 218.468L781.784 230.585L782.683 225.609L715.593 213.491Z" fill="#3F3D56"/>
<path d="M703.064 254.88L702.052 259.835L768.663 273.43L769.674 268.475L703.064 254.88Z" fill="#3F3D56"/>
<path d="M680.753 328.901L679.362 333.763L744.395 352.372L745.786 347.51L680.753 328.901Z" fill="#3F3D56"/>
<path d="M724.734 472.373L726.577 467.663L663.455 442.945L660.355 409.382L719.271 431.388L738.358 459.006L742.519 456.132L722.528 427.206L654.579 401.825L658.706 446.517L724.734 472.373Z" fill="#3F3D56"/>
<path d="M746.662 513.199C765.569 513.199 780.895 497.872 780.895 478.965C780.895 460.058 765.569 444.731 746.662 444.731C727.756 444.731 712.43 460.058 712.43 478.965C712.43 497.872 727.756 513.199 746.662 513.199Z" fill="#3F3D56"/>
<path d="M755.61 495.693C763.989 495.693 770.781 488.9 770.781 480.521C770.781 472.142 763.989 465.349 755.61 465.349C747.231 465.349 740.438 472.142 740.438 480.521C740.438 488.9 747.231 495.693 755.61 495.693Z" fill="#E6E6E6"/>
</g>
<defs>
<clipPath id="clip0_67_1772">
<rect width="818" height="515" fill="white"/>
</clipPath>
</defs>
</svg>
